<svg id="Layer_1" data-name="Layer 1" xmlns="http://www.w3.org/2000/svg" viewBox="0 0 763.78 478"><title>azapay-logo</title><path d="M265.9,1308.4a38.69,38.69,0,0,1,3.23-16.12,20.29,20.29,0,0,1,9.25-10.29,28.62,28.62,0,0,1,23.93-1.19c6.9,2.71,11.32,6.45,13.16,11.48v29.93c-.26,9.86-4.45,16.12-12.58,19a25.35,25.35,0,0,1-12.22,1.07,21.61,21.61,0,0,1-17.58-9.45,37.49,37.49,0,0,1-7.19-23.09ZM230,1310.76a59.9,59.9,0,0,0,16.87,42.73,54.09,54.09,0,0,0,40.69,17.7c4.52,0,11.06-2.77,19.35-8.29a9.68,9.68,0,0,1,6.84-1.54,10.17,10.17,0,0,1,6.19,3.22c4.1,4.42,7.32,6.45,9.67,6.45h15.84a7.39,7.39,0,0,0,5.38-2.29,7.1,7.1,0,0,0,2.29-5.39V1268a14.17,14.17,0,0,0-14.15-14H329.3a13.89,13.89,0,0,0-13.86,13.86h0q-7.62-17.67-27.74-17.67A54.1,54.1,0,0,0,247,1267.84,60,60,0,0,0,230,1310.76Z" transform="translate(-230 -944)"/><path d="M412.11,1343.23l49.54-65a14.2,14.2,0,0,0,2.9-8.74h0a14.32,14.32,0,0,0-14.29-14.32H381.58a13.08,13.08,0,0,0-11.1,5.84,12.9,12.9,0,0,0-1.8,12.45v.39a12.88,12.88,0,0,0,13.15,9.28h36.38l-50.73,66.31a12.91,12.91,0,0,0-2.87,8.28h0a13.65,13.65,0,0,0,3.94,9.68,13.12,13.12,0,0,0,9.67,4h73.11A13.9,13.9,0,0,0,465,1357.29a14.07,14.07,0,0,0-.74-4.22v-.39a12.58,12.58,0,0,0-12.9-9.32Z" transform="translate(-230 -944)"/><path d="M510,1308.4a38.53,38.53,0,0,1,3.22-16.12,20.08,20.08,0,0,1,9.23-10.29,28.59,28.59,0,0,1,23.92-1.19c6.9,2.71,11.32,6.45,13.16,11.48v29.93c-.23,9.86-4.45,16.12-12.58,19a25.35,25.35,0,0,1-12.22,1.07,21.57,21.57,0,0,1-17.54-9.45,37.49,37.49,0,0,1-7.19-23.09v-1.36Zm-35.93,2.36a59.81,59.81,0,0,0,16.9,42.73,54,54,0,0,0,40.76,17.77q6.84,0,19.54-8.29a9.66,9.66,0,0,1,6.81-1.55,10.35,10.35,0,0,1,6.22,3.22c4.07,4.42,7.29,6.45,9.68,6.45h15.8a7.31,7.31,0,0,0,5.38-2.29,7.08,7.08,0,0,0,2.29-5.38V1268a14.14,14.14,0,0,0-14.12-14h-9.68A13.5,13.5,0,0,0,564,1258a13.32,13.32,0,0,0-4.06,9.68h0Q552.1,1250,532,1250a54,54,0,0,0-40.66,17.71A59.83,59.83,0,0,0,474.06,1310.76Z" transform="translate(-230 -944)"/><path d="M700,1312.6a39.52,39.52,0,0,1-3.22,16.12,19.76,19.76,0,0,1-9.26,10.26,28.51,28.51,0,0,1-23.93,1.22c-6.93-2.74-11.31-6.45-13.15-11.48v-29.93c.26-10,4.42-16.31,12.57-19a25.88,25.88,0,0,1,12.19-1,21.69,21.69,0,0,1,17.77,9.48,37.63,37.63,0,0,1,7.19,23.13v1.42Zm-21.67,58a54.25,54.25,0,0,0,40.7-17.73,62.7,62.7,0,0,0,0-85.56,55.29,55.29,0,0,0-68.59-10.06h0a7.41,7.41,0,0,0-2.29-5.35,7.17,7.17,0,0,0-5.39-2.16H620.18a7.52,7.52,0,0,0-5.42,2.16,7.63,7.63,0,0,0-2.29,5.48v145.12a18.84,18.84,0,0,0,18.67,18.67h.55a18.84,18.84,0,0,0,18.64-18.67V1363.1a54.46,54.46,0,0,0,27.9,7.67Z" transform="translate(-230 -944)"/><path d="M783.45,1308.4a38.69,38.69,0,0,1,3.23-16.12,20.24,20.24,0,0,1,9.25-10.29,28.62,28.62,0,0,1,23.93-1.19c6.9,2.71,11.32,6.45,13.16,11.48v29.93c-.26,9.86-4.45,16.12-12.58,19a25.37,25.37,0,0,1-12.22,1.07,21.59,21.59,0,0,1-17.58-9.45,37.49,37.49,0,0,1-7.19-23.09v-1.36Zm-35.89,2.36a59.93,59.93,0,0,0,16.86,42.73,54.11,54.11,0,0,0,40.7,17.7c4.52,0,11.06-2.77,19.51-8.29a9.68,9.68,0,0,1,6.84-1.54,10.17,10.17,0,0,1,6.19,3.22c4.09,4.42,7.32,6.45,9.67,6.45h15.84a7.39,7.39,0,0,0,5.38-2.29,7.1,7.1,0,0,0,2.29-5.39V1268a14.18,14.18,0,0,0-14.15-14H847a13.9,13.9,0,0,0-13.87,13.86h0q-7.8-17.7-27.89-17.7a54.15,54.15,0,0,0-40.7,17.7A60.08,60.08,0,0,0,747.56,1310.76Z" transform="translate(-230 -944)"/><path d="M976,1253.52a16.76,16.76,0,0,0-10.06,3.22,16.17,16.17,0,0,0-6.1,8.65c-11,36.08-17.7,59.59-20.09,70.33L916.38,1265a16.87,16.87,0,0,0-16.13-11.58h-3a16.78,16.78,0,0,0-17,16.54h0a16.53,16.53,0,0,0,1.55,7.26q28.41,63.43,32.76,85.43v.61c0,13.45-3.77,22.06-11.38,25.8a23.57,23.57,0,0,1-9.68,2.38,13.08,13.08,0,0,0-9.67,4.16,13.68,13.68,0,0,0-3.87,9.94v.25a13.15,13.15,0,0,0,8.48,12.9,30.46,30.46,0,0,0,6.1,2,48.81,48.81,0,0,0,39-7.38,56.27,56.27,0,0,0,21.93-30.77q.9-3,37.21-106.77a16.35,16.35,0,0,0-2.16-15.45,16.14,16.14,0,0,0-13.84-7Z" transform="translate(-230 -944)"/><path d="M593.05,1028.83c6.46-5.15,12.48-9.92,24.84-9.89,11.28,0,23.11.42,34.28,0l.63-.63c2.11-5.12,5.23-10.64,7.52-15.68L676.14,971c3-6,5.9-11.28,1.92-18.79a15.74,15.74,0,0,0-15.33-8.08H639c-8,0-41.79-.49-46.94.26-13.41,2-19.8,10.07-25.48,21.46-4.88,9.88-46.75,92.37-47.2,95a33.79,33.79,0,0,0-6.54,19,14.8,14.8,0,0,0,12.81,13,128.42,128.42,0,0,0,17.1.3H559.9c.6-2.67,13.72-28.26,16-32.92,2.78-5.56,5.56-11.28,8.27-16.42a65.92,65.92,0,0,1,8.79-15.22Z" transform="translate(-230 -944)" fill="#ffb300" fill-rule="evenodd"/><path d="M690.91,1054.12a33.51,33.51,0,0,0,4.06-7.52,50.41,50.41,0,0,0,3.53-7.51,16.32,16.32,0,0,0-4.58-16.73c-6.65-5.14-18.79-3.75-30.07-3.75a41.76,41.76,0,0,1-11.27-.53l-.64.64c-11.27.37-23,0-34.27,0-12.37,0-18.38,4.73-24.85,9.88a66.34,66.34,0,0,0-8.79,15.22c-2.71,5.3-5.49,10.86-8.27,16.43-2.29,4.66-15.41,30.25-16,32.92H542.61a131.88,131.88,0,0,1-17.1-.3c1.39.9,29.54.41,33.83.41-1.39,3.76-19.85,39.91-23.3,46.83-3,6-6.2,11-2.9,18.79a15.45,15.45,0,0,0,13.91,9.13h70.54c12.85-.9,21.16-8.87,26.57-19.77,6.73-13.53,46.38-91.62,46.6-94Zm-76.25,33.22a9.87,9.87,0,0,1-1,.72A9.87,9.87,0,0,0,614.66,1087.34Zm-1.5,1.09-1.09.68Zm-1.09.68-1.17.64Zm-1.81.94c-.6.3-1.24.6-1.92.86A10.4,10.4,0,0,0,610.26,1090.05Z" transform="translate(-230 -944)" fill="#f93" fill-rule="evenodd"/></svg>