<svg xmlns="http://www.w3.org/2000/svg" width="22.299" height="15.928" viewBox="0 0 22.299 15.928">
  <path id="Icon" d="M19.509,15.928H6.955a.781.781,0,0,1-.492-.228L.2,8.5A.729.729,0,0,1,0,7.953.729.729,0,0,1,.2,7.4L6.463.206A.679.679,0,0,1,6.957,0l.048,0h12.5A2.847,2.847,0,0,1,22.3,2.9V13.032A2.848,2.848,0,0,1,19.509,15.928ZM7.276,1.45l-5.659,6.5L7.3,14.48H19.509a1.424,1.424,0,0,0,1.4-1.448V2.9a1.423,1.423,0,0,0-1.4-1.447H7.276Zm3.105,10.476a.943.943,0,0,1-.683-.293,1.031,1.031,0,0,1,0-1.418l2.17-2.253L9.726,5.739a1.023,1.023,0,0,1,0-1.406.934.934,0,0,1,1.354,0l2.143,2.224,2.2-2.284a.942.942,0,0,1,1.365,0,1.031,1.031,0,0,1,0,1.418l-2.2,2.284L16.731,10.2a1.022,1.022,0,0,1,0,1.406.934.934,0,0,1-1.355,0L13.234,9.38l-2.17,2.253A.943.943,0,0,1,10.381,11.926Z" fill="#fff" opacity="0.8"/>
</svg>
