<svg xmlns="http://www.w3.org/2000/svg" width="64" height="60" viewBox="0 0 64 60">
  <g id="Group_943" data-name="Group 943" transform="translate(-26 -351)">
    <rect id="Rectangle_655" data-name="Rectangle 655" width="64" height="60" rx="19" transform="translate(26 351)" fill="#0059cf"/>
    <path id="Icon_awesome-phone" data-name="Icon awesome-phone" d="M25.605,1.276,20.208.031a1.254,1.254,0,0,0-1.427.721L16.29,6.565a1.242,1.242,0,0,0,.358,1.453l3.145,2.574a19.233,19.233,0,0,1-9.2,9.2L8.023,16.643a1.244,1.244,0,0,0-1.453-.358L.757,18.776a1.26,1.26,0,0,0-.727,1.432l1.245,5.4a1.245,1.245,0,0,0,1.214.965A24.077,24.077,0,0,0,26.57,2.491,1.244,1.244,0,0,0,25.605,1.276Z" transform="translate(48.716 370.715)" fill="#0a489a"/>
    <path id="Icon_awesome-phone-2" data-name="Icon awesome-phone" d="M25.605,1.276,20.208.031a1.254,1.254,0,0,0-1.427.721L16.29,6.565a1.242,1.242,0,0,0,.358,1.453l3.145,2.574a19.233,19.233,0,0,1-9.2,9.2L8.023,16.643a1.244,1.244,0,0,0-1.453-.358L.757,18.776a1.26,1.26,0,0,0-.727,1.432l1.245,5.4a1.245,1.245,0,0,0,1.214.965A24.077,24.077,0,0,0,26.57,2.491,1.244,1.244,0,0,0,25.605,1.276Z" transform="translate(44.716 367.715)" fill="#fff"/>
  </g>
</svg>
