<svg xmlns="http://www.w3.org/2000/svg" width="109.706" height="63.165" viewBox="0 0 109.706 63.165"><g transform="translate(-149.294 -268)"><path d="M60.872,4H8.541a6.533,6.533,0,0,0-6.509,6.541L2,49.789A6.561,6.561,0,0,0,8.541,56.33h52.33a6.561,6.561,0,0,0,6.541-6.541V10.541A6.561,6.561,0,0,0,60.872,4Zm0,13.083L34.706,33.436,8.541,17.083V10.541L34.706,26.895,60.872,10.541Z" transform="translate(147.294 274.835)" fill="#8d8d8d"/><rect width="40" height="5" rx="2.5" transform="translate(219 283)" fill="#8d8d8d"/><rect width="27" height="5" rx="2.5" transform="translate(219 296)" fill="#8d8d8d"/><rect width="18" height="5" rx="2.5" transform="translate(219 310)" fill="#8d8d8d"/><g transform="translate(156.335 197.335)"><g transform="translate(41.665 70.665)"><circle cx="10.5" cy="10.5" r="10.5" transform="translate(0 0)" fill="#ffb300"/></g><g transform="translate(46.032 76.034)"><path d="M.775,0h6.2c.428,0,.564.2.564.584s-.136.967-.564.967H.775A.775.775,0,0,1,.775,0Z" transform="matrix(0.719, 0.695, -0.695, 0.719, 1.077, 3.13)" fill="#fff"/><rect width="11.2" height="1.551" rx="0.775" transform="translate(4.448 8.323) rotate(-48)" fill="#fff"/></g></g></g></svg>