<svg xmlns="http://www.w3.org/2000/svg" xmlns:xlink="http://www.w3.org/1999/xlink" width="87" height="79" viewBox="0 0 87 79">
  <defs>
    <filter id="Rectangle_705" x="0" y="0" width="87" height="79" filterUnits="userSpaceOnUse">
      <feOffset dy="1" input="SourceAlpha"/>
      <feGaussianBlur stdDeviation="2.5" result="blur"/>
      <feFlood flood-opacity="0.161"/>
      <feComposite operator="in" in2="blur"/>
      <feComposite in="SourceGraphic"/>
    </filter>
  </defs>
  <g id="Group_1002" data-name="Group 1002" transform="translate(-51.5 -125.5)">
    <g transform="matrix(1, 0, 0, 1, 51.5, 125.5)" filter="url(#Rectangle_705)">
      <rect id="Rectangle_705-2" data-name="Rectangle 705" width="72" height="64" rx="12" transform="translate(7.5 6.5)" fill="#ffb300"/>
    </g>
    <g id="Group_1000" data-name="Group 1000" transform="translate(35 11)">
      <path id="Icon_awesome-lightbulb" data-name="Icon awesome-lightbulb" d="M6.754,31.946a2.251,2.251,0,0,0,.377,1.244L8.333,35a2.249,2.249,0,0,0,1.873,1h4.339a2.249,2.249,0,0,0,1.873-1l1.2-1.806A2.249,2.249,0,0,0,18,31.946l0-2.7H6.751l0,2.7ZM0,12.375a12.306,12.306,0,0,0,3.063,8.141,20.206,20.206,0,0,1,3.671,6.43c0,.018,0,.037.008.055H18.008c0-.018,0-.036.008-.055a20.206,20.206,0,0,1,3.671-6.43A12.372,12.372,0,1,0,0,12.375ZM12.375,6.75A5.632,5.632,0,0,0,6.75,12.375a1.125,1.125,0,0,1-2.25,0A7.884,7.884,0,0,1,12.375,4.5a1.125,1.125,0,0,1,0,2.25Z" transform="translate(48.175 136.909)" fill="none" stroke="#fff" stroke-width="1.2"/>
      <circle id="Ellipse_306" data-name="Ellipse 306" cx="0.45" cy="0.45" r="0.45" transform="translate(60 134)" fill="#fff"/>
      <circle id="Ellipse_307" data-name="Ellipse 307" cx="0.45" cy="0.45" r="0.45" transform="translate(70 138)" fill="#fff"/>
      <circle id="Ellipse_310" data-name="Ellipse 310" cx="0.45" cy="0.45" r="0.45" transform="translate(50 138)" fill="#fff"/>
      <circle id="Ellipse_308" data-name="Ellipse 308" cx="0.45" cy="0.45" r="0.45" transform="translate(75 149)" fill="#fff"/>
      <circle id="Ellipse_311" data-name="Ellipse 311" cx="0.45" cy="0.45" r="0.45" transform="translate(45 149)" fill="#fff"/>
      <circle id="Ellipse_309" data-name="Ellipse 309" cx="0.45" cy="0.45" r="0.45" transform="translate(70 161)" fill="#fff"/>
      <circle id="Ellipse_312" data-name="Ellipse 312" cx="0.45" cy="0.45" r="0.45" transform="translate(50 161)" fill="#fff"/>
    </g>
  </g>
</svg>
