<svg xmlns="http://www.w3.org/2000/svg" width="109.707" height="63.165" viewBox="0 0 109.707 63.165">
  <g id="Group_876" data-name="Group 876" transform="translate(-149.293 -268)">
    <path id="ic_mail_24px" d="M60.872,4H8.541a6.533,6.533,0,0,0-6.509,6.541L2,49.789A6.561,6.561,0,0,0,8.541,56.33h52.33a6.561,6.561,0,0,0,6.541-6.541V10.541A6.561,6.561,0,0,0,60.872,4Zm0,13.083L34.706,33.436,8.541,17.083V10.541L34.706,26.895,60.872,10.541Z" transform="translate(147.293 274.835)" fill="#8d8d8d"/>
    <g id="Group_825" data-name="Group 825">
      <rect id="Rectangle_398" data-name="Rectangle 398" width="40" height="5" rx="2.5" transform="translate(219 283)" fill="#8d8d8d"/>
      <rect id="Rectangle_399" data-name="Rectangle 399" width="27" height="5" rx="2.5" transform="translate(219 296)" fill="#8d8d8d"/>
      <rect id="Rectangle_400" data-name="Rectangle 400" width="18" height="5" rx="2.5" transform="translate(219 310)" fill="#8d8d8d"/>
    </g>
    <g id="Group_824" data-name="Group 824" transform="translate(156.335 197.335)">
      <g id="Group_771" data-name="Group 771" transform="translate(41.665 70.665)">
        <circle id="Ellipse_77" data-name="Ellipse 77" cx="10.5" cy="10.5" r="10.5" transform="translate(0 0)" fill="#ffb300"/>
      </g>
      <g id="Group_817" data-name="Group 817" transform="translate(46.032 76.034)">
        <path id="Path_648" data-name="Path 648" d="M.775,0h6.2c.428,0,.564.2.564.584s-.136.967-.564.967H.775A.775.775,0,0,1,.775,0Z" transform="matrix(0.719, 0.695, -0.695, 0.719, 1.077, 3.13)" fill="#fff"/>
        <rect id="Rectangle_393" data-name="Rectangle 393" width="11.2" height="1.551" rx="0.775" transform="translate(4.448 8.323) rotate(-48)" fill="#fff"/>
      </g>
    </g>
  </g>
</svg>
