<svg id="Icon_map-female" data-name="Icon map-female" xmlns="http://www.w3.org/2000/svg" width="11.483" height="23.18" viewBox="0 0 11.483 23.18">
  <path id="Path_1109" data-name="Path 1109" d="M118.693,5.031a1.971,1.971,0,1,1-1.971-1.971A1.971,1.971,0,0,1,118.693,5.031Z" transform="translate(-111.034 -3.06)"/>
  <path id="Path_1110" data-name="Path 1110" d="M77.655,71.715l-2.824-7.76-.016-.08a.209.209,0,0,1,.214-.205.213.213,0,0,1,.208.157l1.92,5.02a1.219,1.219,0,0,0,1,.478c.461,0,.509-.906.5-.956l-1.92-4.95A2.741,2.741,0,0,0,74.167,61.2h-2.5a2.836,2.836,0,0,0-2.649,2.219l-1.834,4.95c-.042.1,0,.956.5.956.388,0,.9-.135,1-.478l1.852-5.042a.214.214,0,0,1,.2-.136.209.209,0,0,1,.213.2l-.013.073L68.18,71.715c-.005.023,0,.455,0,.478,0,.165.4.478.573.478h1.775v6.259a.957.957,0,0,0,1.912,0V72.666c0-.135.956-.131.956,0v6.213a.956.956,0,0,0,1.912,0V72.67h1.849a.71.71,0,0,0,.5-.478C77.655,72.154,77.669,71.748,77.655,71.715Z" transform="translate(-67.17 -56.66)"/>
</svg>
