<svg xmlns="http://www.w3.org/2000/svg" width="46" height="46" viewBox="0 0 46 46">
  <g id="Group_980" data-name="Group 980" transform="translate(-35 -269)">
    <rect id="Rectangle_680" data-name="Rectangle 680" width="46" height="46" rx="10" transform="translate(35 269)" fill="#6c63ff"/>
    <path id="Icon_awesome-slack-hash" data-name="Icon awesome-slack-hash" d="M20.916,13.429a1.706,1.706,0,0,0-2.156-1.074l-2.128.708-1.42-4.219,2.128-.708A1.7,1.7,0,1,0,16.261,4.91l-2.128.708-.736-2.2a1.7,1.7,0,0,0-3.234,1.078L10.9,6.7,6.521,8.159l-.736-2.2A1.7,1.7,0,0,0,2.55,7.034l.736,2.2-2.123.7A1.7,1.7,0,0,0,.085,12.092,1.758,1.758,0,0,0,1.66,13.246c.319.047.562-.075,2.7-.788l1.42,4.219-2.128.708a1.71,1.71,0,0,0-1.078,2.152,1.758,1.758,0,0,0,1.575,1.153c.319.047.562-.075,2.7-.788l.736,2.2A1.741,1.741,0,0,0,9.75,23.18a1.7,1.7,0,0,0,1.078-2.152l-.736-2.2,4.387-1.467.736,2.2a1.741,1.741,0,0,0,2.156,1.074,1.7,1.7,0,0,0,1.078-2.152l-.736-2.2,2.128-.708a1.689,1.689,0,0,0,1.073-2.143ZM9,15.641l-1.42-4.229,4.383-1.467,1.42,4.229Z" transform="translate(49.812 279.557)" fill="#382fce"/>
    <path id="Icon_awesome-slack-hash-2" data-name="Icon awesome-slack-hash" d="M20.916,13.429a1.706,1.706,0,0,0-2.156-1.074l-2.128.708-1.42-4.219,2.128-.708A1.7,1.7,0,1,0,16.261,4.91l-2.128.708-.736-2.2a1.7,1.7,0,0,0-3.234,1.078L10.9,6.7,6.521,8.159l-.736-2.2A1.7,1.7,0,0,0,2.55,7.034l.736,2.2-2.123.7A1.7,1.7,0,0,0,.085,12.092,1.758,1.758,0,0,0,1.66,13.246c.319.047.562-.075,2.7-.788l1.42,4.219-2.128.708a1.71,1.71,0,0,0-1.078,2.152,1.758,1.758,0,0,0,1.575,1.153c.319.047.562-.075,2.7-.788l.736,2.2A1.741,1.741,0,0,0,9.75,23.18a1.7,1.7,0,0,0,1.078-2.152l-.736-2.2,4.387-1.467.736,2.2a1.741,1.741,0,0,0,2.156,1.074,1.7,1.7,0,0,0,1.078-2.152l-.736-2.2,2.128-.708a1.689,1.689,0,0,0,1.073-2.143ZM9,15.642l-1.42-4.229,4.383-1.467,1.42,4.229Z" transform="translate(45.812 279.557)" fill="#ffb300"/>
  </g>
</svg>
