<svg id="Icon_map-male" data-name="Icon map-male" xmlns="http://www.w3.org/2000/svg" width="9.592" height="23.103" viewBox="0 0 9.592 23.103">
  <path id="Path_1111" data-name="Path 1111" d="M87.812,78.315c0,.57.409.925,1.066.925s1.066-.355,1.066-.925V69.526h1.066v8.789c0,.569.409.925,1.066.925s1.066-.355,1.066-.925v-14.8h.533v5.465a.8.8,0,1,0,1.6,0V63.356c0-1.224-1.016-2.156-2.664-2.156H88.344c-1.5,0-2.664.8-2.664,2.122v5.742c0,.925,1.6.925,1.6,0V63.513h.533Z" transform="translate(-85.68 -56.138)"/>
  <path id="Path_1112" data-name="Path 1112" d="M119.146,5.258a2.2,2.2,0,1,1-2.2-2.2A2.2,2.2,0,0,1,119.146,5.258Z" transform="translate(-112.219 -3.06)"/>
</svg>
