<svg xmlns="http://www.w3.org/2000/svg" width="13.582" height="11.119" viewBox="0 0 13.582 11.119">
  <g id="Group_828" data-name="Group 828" transform="translate(64.095 38.67)">
    <g id="naira" transform="translate(-64.095 -38.67)">
      <path id="Path_441" data-name="Path 441" d="M13.078,51.276H11.224V49.494h1.854a.5.5,0,1,0,0-1.009H11.224V46.013a1.193,1.193,0,0,0-.212-.787A.679.679,0,0,0,10.459,45a.65.65,0,0,0-.532.223,1.207,1.207,0,0,0-.209.789v2.473H6.23L4.747,46.242c-.127-.2-.246-.388-.362-.568a2.525,2.525,0,0,0-.3-.393.967.967,0,0,0-.3-.207.978.978,0,0,0-.4-.073,1.02,1.02,0,0,0-.57.172.944.944,0,0,0-.373.432,2.211,2.211,0,0,0-.1.756v2.125H.5a.5.5,0,0,0,0,1.009H2.34v1.782H.5a.5.5,0,0,0,0,1.009H2.34v2.823a1.167,1.167,0,0,0,.219.779.682.682,0,0,0,.553.233.693.693,0,0,0,.549-.233,1.14,1.14,0,0,0,.223-.778V52.285H7.041L8.748,54.9c.119.173.241.348.364.519a2.456,2.456,0,0,0,.358.4,1.114,1.114,0,0,0,.364.223,1.346,1.346,0,0,0,.455.071c.462,0,.935-.141.935-1.19V52.285h1.854a.5.5,0,0,0,0-1.009Zm-3.36-1.782v1.782H8.074L6.9,49.494ZM3.885,47.447l.678,1.039H3.885Zm0,3.829V49.494H5.22l1.162,1.782Zm5.833,2.487-.977-1.478h.977Z" transform="translate(0 -45.001)" fill="#444"/>
    </g>
  </g>
</svg>
