<svg xmlns="http://www.w3.org/2000/svg" xmlns:xlink="http://www.w3.org/1999/xlink" width="87" height="79" viewBox="0 0 87 79">
  <defs>
    <filter id="Rectangle_707" x="0" y="0" width="87" height="79" filterUnits="userSpaceOnUse">
      <feOffset dy="1" input="SourceAlpha"/>
      <feGaussianBlur stdDeviation="2.5" result="blur"/>
      <feFlood flood-opacity="0.161"/>
      <feComposite operator="in" in2="blur"/>
      <feComposite in="SourceGraphic"/>
    </filter>
  </defs>
  <g id="Group_1004" data-name="Group 1004" transform="translate(-51.5 -306.5)">
    <g transform="matrix(1, 0, 0, 1, 51.5, 306.5)" filter="url(#Rectangle_707)">
      <rect id="Rectangle_707-2" data-name="Rectangle 707" width="72" height="64" rx="12" transform="translate(7.5 6.5)" fill="#114c9a"/>
    </g>
    <g id="Group_1001" data-name="Group 1001" transform="translate(-160 26)">
      <g id="Ellipse_316" data-name="Ellipse 316" transform="translate(235 299)" fill="none" stroke="#fff" stroke-width="1.2">
        <circle cx="20" cy="20" r="20" stroke="none"/>
        <circle cx="20" cy="20" r="19.4" fill="none"/>
      </g>
      <g id="Ellipse_317" data-name="Ellipse 317" transform="translate(275 304) rotate(90)" fill="none" stroke="#fff" stroke-width="1.2">
        <ellipse cx="15" cy="20" rx="15" ry="20" stroke="none"/>
        <ellipse cx="15" cy="20" rx="14.4" ry="19.4" fill="none"/>
      </g>
      <g id="Ellipse_318" data-name="Ellipse 318" transform="translate(267 339) rotate(180)" fill="none" stroke="#fff" stroke-width="1.2">
        <ellipse cx="12" cy="20" rx="12" ry="20" stroke="none"/>
        <ellipse cx="12" cy="20" rx="11.4" ry="19.4" fill="none"/>
      </g>
      <g id="Ellipse_319" data-name="Ellipse 319" transform="translate(235 328) rotate(-90)" fill="none" stroke="#fff" stroke-width="1.2">
        <ellipse cx="9" cy="20" rx="9" ry="20" stroke="none"/>
        <ellipse cx="9" cy="20" rx="8.4" ry="19.4" fill="none"/>
      </g>
      <path id="Icon_metro-earth" data-name="Icon metro-earth" d="M9.241,1.928A6.67,6.67,0,1,0,15.91,8.6a6.67,6.67,0,0,0-6.67-6.67Zm0,12.506a5.817,5.817,0,0,1-2.309-.475l3.037-3.417a.417.417,0,0,0,.105-.277V9.015A.417.417,0,0,0,9.657,8.6a5.439,5.439,0,0,1-3.04-1.545.417.417,0,0,0-.295-.122H4.655a.417.417,0,0,0-.417.417v2.5a.417.417,0,0,0,.23.373l1.437.719v2.448A5.84,5.84,0,0,1,3.966,6.1H5.489a.417.417,0,0,0,.295-.122L7.451,4.307a.417.417,0,0,0,.122-.295V3a5.852,5.852,0,0,1,4.224.347c-.054.046-.107.093-.157.144a2.5,2.5,0,0,0,1.767,4.27q.062,0,.124,0a9.789,9.789,0,0,1-.109,4.85.416.416,0,0,0-.011.068,5.818,5.818,0,0,1-4.171,1.754Z" transform="translate(245.568 310.402)" fill="#fff"/>
    </g>
  </g>
</svg>
