<svg xmlns="http://www.w3.org/2000/svg" width="18.318" height="14.654" viewBox="0 0 18.318 14.654">
  <path id="Icon_awesome-broadcast-tower" data-name="Icon awesome-broadcast-tower" d="M4.32,5.5h.965a.451.451,0,0,0,.425-.606,3.584,3.584,0,0,1,0-2.451.451.451,0,0,0-.425-.606H4.32a.457.457,0,0,0-.441.321,5.4,5.4,0,0,0,0,3.02A.456.456,0,0,0,4.32,5.5ZM2.574.668A.453.453,0,0,0,2.174,0H1.163A.463.463,0,0,0,.741.266,8.176,8.176,0,0,0,0,3.664a7.976,7.976,0,0,0,.764,3.4.461.461,0,0,0,.418.262h1a.453.453,0,0,0,.4-.669,6.383,6.383,0,0,1,0-5.99Zm15-.4A.463.463,0,0,0,17.154,0H16.14a.452.452,0,0,0-.4.665,6.419,6.419,0,0,1,.008,5.989.454.454,0,0,0,.4.673h1.008a.463.463,0,0,0,.422-.266,8.143,8.143,0,0,0,0-6.8ZM14,1.832h-.965a.451.451,0,0,0-.425.606,3.584,3.584,0,0,1,0,2.451.451.451,0,0,0,.425.606H14a.456.456,0,0,0,.441-.322,5.395,5.395,0,0,0,0-3.02A.456.456,0,0,0,14,1.832ZM10.669,4.7a1.831,1.831,0,1,0-3.02,0l-3.735,8.97a.458.458,0,0,0,.246.6L5,14.619a.458.458,0,0,0,.6-.246l1.408-3.382h4.3l1.408,3.382a.457.457,0,0,0,.6.246l.845-.352a.458.458,0,0,0,.246-.6L10.669,4.7ZM7.774,9.159,9.159,5.833l1.385,3.326H7.774Z" fill="#444"/>
</svg>
