<svg xmlns="http://www.w3.org/2000/svg" xmlns:xlink="http://www.w3.org/1999/xlink" width="372.172" height="319" viewBox="0 0 372.172 319">
  <defs>
    <filter id="Union_1" x="83.625" y="124" width="192" height="114" filterUnits="userSpaceOnUse">
      <feOffset dx="-6" dy="3" input="SourceAlpha"/>
      <feGaussianBlur stdDeviation="3" result="blur"/>
      <feFlood flood-opacity="0.212"/>
      <feComposite operator="in" in2="blur"/>
      <feComposite in="SourceGraphic"/>
    </filter>
    <filter id="Ellipse_262" x="289.625" y="271" width="48" height="48" filterUnits="userSpaceOnUse">
      <feOffset dy="3" input="SourceAlpha"/>
      <feGaussianBlur stdDeviation="3" result="blur-2"/>
      <feFlood flood-color="#ffeeb7"/>
      <feComposite operator="in" in2="blur-2"/>
      <feComposite in="SourceGraphic"/>
    </filter>
    <filter id="Ellipse_264" x="251.625" y="0" width="76" height="76" filterUnits="userSpaceOnUse">
      <feOffset dy="3" input="SourceAlpha"/>
      <feGaussianBlur stdDeviation="3" result="blur-3"/>
      <feFlood flood-color="#ffeeb7"/>
      <feComposite operator="in" in2="blur-3"/>
      <feComposite in="SourceGraphic"/>
    </filter>
  </defs>
  <g id="Group_972" data-name="Group 972" transform="translate(-2.375 -83)">
    <path id="Path_1167" data-name="Path 1167" d="M362.391-7490.963c9.5,12.8,22.617,47.394,0,62.635-86.726-68.142-67.6,48.116-103.245,25.467-68.142-24.09-121.045,29.014-136.284,77.779-17.208,82.6-65.389,72.959-65.389,72.959" transform="translate(-55 7632)" fill="none" stroke="#ffeeb7" stroke-width="1"/>
    <g transform="matrix(1, 0, 0, 1, 2.38, 83)" filter="url(#Union_1)">
      <g id="Union_1-2" data-name="Union 1" transform="translate(98.62 130)" fill="#ffeeb7">
        <path d="M22.873,96v-.429a27.655,27.655,0,0,1,4.9-54.893,28.128,28.128,0,0,1,4.087.3c0-.1,0-.2,0-.3A22.081,22.081,0,0,1,63.85,21.062,48.239,48.239,0,0,1,151.943,48q0,2.056-.171,4.067h.171a21.966,21.966,0,1,1,0,43.932Z" stroke="none"/>
        <path d="M 151.943359375 95 C 154.7870483398438 95 157.5450286865234 94.44563293457031 160.1407470703125 93.352294921875 C 162.6481628417969 92.29613494873047 164.9001770019531 90.78401947021484 166.834228515625 88.85791015625 C 168.7680053710938 86.93206787109375 170.2860717773438 84.68979644775391 171.3462982177734 82.19334411621094 C 172.4436187744141 79.60951995849609 173 76.86422729492188 173 74.03368377685547 C 173 71.20326995849609 172.4436187744141 68.45806884765625 171.3462982177734 65.87432098388672 C 170.2860717773438 63.37793350219727 168.7680053710938 61.13570404052734 166.834228515625 59.20990753173828 C 164.9001770019531 57.28381729125977 162.6481628417969 55.77170562744141 160.1407470703125 54.71556854248047 C 157.5450286865234 53.62222671508789 154.7870178222656 53.06786346435547 151.943359375 53.06786346435547 C 151.9386444091797 53.06786346435547 151.9339294433594 53.06786346435547 151.9292144775391 53.06786346435547 C 151.8797454833984 53.06786346435547 151.8309020996094 53.0678825378418 151.7814331054688 53.06831741333008 L 150.6840515136719 53.07793045043945 L 150.7761993408203 51.9843864440918 C 150.8871307373047 50.66838455200195 150.943359375 49.32815933227539 150.943359375 48.0009765625 C 150.943359375 41.65581893920898 149.6958160400391 35.50099945068359 147.2353820800781 29.70750045776367 C 144.8585662841797 24.11086273193359 141.4556884765625 19.08434104919434 137.1212005615234 14.76749992370605 C 132.7864837646484 10.45040893554688 127.7389297485352 7.06109094619751 122.1187973022461 4.69365930557251 C 116.300407409668 2.242727279663086 110.1191329956055 1 103.7466583251953 1 C 99.76152038574219 1 95.80252075195313 1.495340943336487 91.9796142578125 2.472249984741211 C 88.26920318603516 3.420431852340698 84.67677307128906 4.824136257171631 81.30209350585938 6.644363403320313 C 74.67022705078125 10.22143173217773 68.92104339599609 15.40181827545166 64.67609405517578 21.6254997253418 L 64.18267822265625 22.34888648986816 L 63.4005012512207 21.95531845092773 C 60.44384002685547 20.46768188476563 57.25302124023438 19.71338653564453 53.9166145324707 19.71338653564453 C 51.07295608520508 19.71338653564453 48.3149528503418 20.26774978637695 45.7192268371582 21.36106872558594 C 43.21181869506836 22.41718101501465 40.95979690551758 23.92925071716309 39.02572631835938 25.85524940490723 C 37.09195327758789 27.78095436096191 35.57388687133789 30.02304458618164 34.5136604309082 32.51922607421875 C 33.41633987426758 35.1027717590332 32.85995483398438 37.84768295288086 32.85995483398438 40.67772674560547 C 32.85995483398438 40.77240753173828 32.86066055297852 40.86752319335938 32.86190795898438 40.96172714233398 L 32.87759017944336 42.1348876953125 L 31.71674919128418 41.9644775390625 C 30.42056846618652 41.77420425415039 29.09434127807617 41.67772674560547 27.77497673034668 41.67772674560547 C 24.15965843200684 41.67772674560547 20.65293121337891 42.38272857666016 17.35224914550781 43.7731819152832 C 14.16395473480225 45.11627197265625 11.30036354064941 47.03915786743164 8.841045379638672 49.48838806152344 C 6.382022857666016 51.93733978271484 4.451545238494873 54.78870391845703 3.103227376937866 57.96322631835938 C 1.70763635635376 61.24909210205078 1 64.73995208740234 1 68.3388671875 C 1 71.54734039306641 1.565886378288269 74.68388366699219 2.681931734085083 77.66140747070313 C 3.760340929031372 80.53852081298828 5.321840763092041 83.19181823730469 7.323045253753662 85.54759216308594 C 11.35429573059082 90.2930908203125 16.93881797790527 93.50304412841797 23.04790878295898 94.58615875244141 L 23.87334060668945 94.73249816894531 L 23.87334060668945 95 L 151.943359375 95 M 151.943359375 96 L 22.87334060668945 96 L 22.87334060668945 95.57079315185547 C 9.871317863464355 93.26563262939453 0 81.95117950439453 0 68.3388671875 C 0 53.0629768371582 12.43606853485107 40.67772674560547 27.77497673034668 40.67772674560547 C 29.16338729858398 40.67772674560547 30.52822685241699 40.779296875 31.86199951171875 40.97509002685547 C 31.86068153381348 40.8764533996582 31.85995483398438 40.77686309814453 31.85995483398438 40.67772674560547 C 31.85995483398438 28.54736328125 41.73477172851563 18.71338653564453 53.9166145324707 18.71338653564453 C 57.48949813842773 18.71338653564453 60.86486434936523 19.56006813049316 63.84995269775391 21.0620231628418 C 72.51999664306641 8.350590705871582 87.15409088134766 0 103.7466583251953 0 C 130.3649597167969 0 151.943359375 21.49022674560547 151.943359375 48.0009765625 C 151.943359375 49.37158966064453 151.8857269287109 50.72704696655273 151.7726745605469 52.06836318969727 C 151.8297882080078 52.06786346435547 151.8861083984375 52.06786346435547 151.943359375 52.06786346435547 C 164.1251983642578 52.06786346435547 174 61.90186309814453 174 74.03368377685547 C 174 86.16602325439453 164.1251983642578 96 151.943359375 96 Z" stroke="none" fill="rgba(255,195,0,0.36)"/>
      </g>
    </g>
    <path id="Path_1163" data-name="Path 1163" d="M175.688-7379.824c12.98,1.719,20.156,13.371,20.156,13.371" transform="translate(-42.896 7634.201)" fill="none" stroke="#ffe592" stroke-width="1"/>
    <path id="Path_1165" data-name="Path 1165" d="M0,4.474C20.118-7.319,32.184,7.931,32.184,7.931" transform="matrix(0.656, -0.755, 0.755, 0.656, 224.672, 284.561)" fill="none" stroke="#ffe592" stroke-width="1"/>
    <path id="Path_1164" data-name="Path 1164" d="M176.132-7379.631c5.038,2.158,5.5,6.184,5.5,6.184" transform="translate(-12.002 7613.995)" fill="none" stroke="#ffe592" stroke-width="1"/>
    <path id="Path_1168" data-name="Path 1168" d="M362.442-7428.307s-74.33,82.4-21.867,96.97,88.605-24.483,88.605-24.483" transform="translate(-55 7632)" fill="none" stroke="#ffeeb7" stroke-width="1"/>
    <path id="Path_1166" data-name="Path 1166" d="M238.644-7346.185l-15.155,25.3h18.694v39.719l27.472-50.091H252.167v-38.706Z" transform="translate(-56.607 7629.869)" fill="#fff" stroke="#ffc300" stroke-width="1"/>
    <g id="Ellipse_260" data-name="Ellipse 260" transform="translate(43 175)" fill="#ffeeb7" stroke="#ffc300" stroke-width="1">
      <circle cx="21" cy="21" r="21" stroke="none"/>
      <circle cx="21" cy="21" r="20.5" fill="none"/>
    </g>
    <g transform="matrix(1, 0, 0, 1, 2.38, 83)" filter="url(#Ellipse_262)">
      <g id="Ellipse_262-2" data-name="Ellipse 262" transform="translate(298.62 277)" fill="#ffeeb7" stroke="#ffeeb7" stroke-width="1">
        <circle cx="15" cy="15" r="15" stroke="none"/>
        <circle cx="15" cy="15" r="14.5" fill="none"/>
      </g>
    </g>
    <g transform="matrix(1, 0, 0, 1, 2.38, 83)" filter="url(#Ellipse_264)">
      <circle id="Ellipse_264-2" data-name="Ellipse 264" cx="29" cy="29" r="29" transform="translate(260.62 6)" fill="#ffb300"/>
    </g>
    <g id="Ellipse_261" data-name="Ellipse 261" transform="translate(59 280)" fill="none" stroke="#ffb300" stroke-width="1">
      <circle cx="5" cy="5" r="5" stroke="none"/>
      <circle cx="5" cy="5" r="4.5" fill="none"/>
    </g>
    <g id="Ellipse_265" data-name="Ellipse 265" transform="translate(296 356)" fill="none" stroke="#ffb300" stroke-width="1" stroke-dasharray="4">
      <circle cx="12" cy="12" r="12" stroke="none"/>
      <circle cx="12" cy="12" r="11.5" fill="none"/>
    </g>
    <g id="Ellipse_263" data-name="Ellipse 263" transform="translate(315 234)" fill="#ffb300" stroke="#ffeeb7" stroke-width="8">
      <circle cx="11" cy="11" r="11" stroke="none"/>
      <circle cx="11" cy="11" r="7" fill="none"/>
    </g>
    <path id="Icon_awesome-wifi" data-name="Icon awesome-wifi" d="M22.714,6.9A15.98,15.98,0,0,0,.182,6.9a.625.625,0,0,0-.013.869L1.395,9.05a.559.559,0,0,0,.8.014,13.184,13.184,0,0,1,18.5,0,.559.559,0,0,0,.8-.014l1.225-1.285a.625.625,0,0,0-.013-.869ZM11.448,14.35a2.424,2.424,0,0,0,0,4.84,2.424,2.424,0,0,0,0-4.84Zm7.25-3.161a10.542,10.542,0,0,0-14.5,0,.621.621,0,0,0-.02.875L5.409,13.35a.561.561,0,0,0,.789.03,7.731,7.731,0,0,1,10.5,0,.561.561,0,0,0,.789-.03l1.232-1.285A.621.621,0,0,0,18.7,11.189Z" transform="translate(52.052 185.487)" fill="#ffb300" stroke="#ffc300" stroke-width="1"/>
    <line id="Line_31" data-name="Line 31" y1="42" x2="33" transform="translate(47.5 175.5)" fill="none" stroke="#fff" stroke-width="3"/>
  </g>
</svg>
