<svg xmlns="http://www.w3.org/2000/svg" xmlns:xlink="http://www.w3.org/1999/xlink" width="289.057" height="221.469" viewBox="0 0 289.057 221.469">
  <defs>
    <linearGradient id="linear-gradient" x1="0.5" y1="1" x2="0.5" gradientUnits="objectBoundingBox">
      <stop offset="0" stop-color="gray" stop-opacity="0.251"/>
      <stop offset="0.54" stop-color="gray" stop-opacity="0.122"/>
      <stop offset="1" stop-color="gray" stop-opacity="0.102"/>
    </linearGradient>
    <linearGradient id="linear-gradient-2" x1="0.5" x2="0.5" y2="0" xlink:href="#linear-gradient"/>
  </defs>
  <g id="Group_847" data-name="Group 847" transform="translate(0.007 0.029)">
    <path id="Path_1054" data-name="Path 1054" d="M83.1,174.568c-4,1.307-7.733,4.469-8.741,8.856-1.144,5.04,1.491,10.133,1.867,15.3,1.229,16.962-21.1,28.93-17.917,45.6,1.267,6.616,6.381,11.493,11.424,15.506,8.072,6.429,17.026,12.106,26.932,13.711,15.05,2.435,30.778-4.728,45.409-.2,11.8,3.651,20.829,14.354,32.548,18.3,8.922,3.008,18.53,1.821,27.807.605,4.989-.653,10.232-1.411,14.266-4.651,7.512-6.032,7.965-17.941,12.989-26.476,7.752-13.176,24.748-15.749,39-13.189s28.084,8.872,42.524,8.338a18.216,18.216,0,0,0,8.938-2.2c3.272-1.989,5.485-5.49,7.44-8.957a153.632,153.632,0,0,0,19.45-72.016c.083-4.37-.059-8.93-1.96-12.8-2.4-4.882-7.2-7.8-12-9.765-11.488-4.7-24.178-5.458-35.439-10.792-10.861-5.138-19.661-14.154-29.116-21.866a149.807,149.807,0,0,0-63.87-30.735c-5.432-1.133-11.069-1.944-16.466-.635-6.218,1.509-11.578,5.7-16.4,10.2-12.824,12-23.1,26.794-34.911,39.94a204.022,204.022,0,0,1-26.53,24.69c-4.381,3.405-9.021,7.448-13.893,9.965C92,173.608,87.807,173.029,83.1,174.568Z" transform="translate(-58 -72.233)" fill="#6c63ff" opacity="0.1"/>
    <path id="Path_1055" data-name="Path 1055" d="M430.474,145.724c-5.866-1.227-16.973-3.528-29.543-6.077-18.61-3.773-23.466,10.509-23.466,10.509,0,7.274-24.266,37.449-24.266,37.449l-7.237-16.213a7.632,7.632,0,0,0,3.328-.224c4.144-1.237,6.192-5.912,6.856-10.181a33.455,33.455,0,0,0-2.605-18.933c-1.235-2.7-2.835-5.248-3.827-8.048-4.184-11.749,3.064-25.348-1.32-37.052-1.811-4.829-5.421-8.746-7.917-13.258-5.6-10.146-5.36-22.839-11.466-32.695a29.594,29.594,0,0,0-27.828-13.5c-6.376.72-10.933,3-16.874.267-5.016-2.3-11.037-4.869-16.2-1.248-4.405,3.088-5.154,9.17-7.56,13.978-4.224,8.445-14.245,13.957-15.423,23.325-.291,2.309,0,4.7-.675,6.933-1.925,6.3-10.309,8.162-13.744,13.786-3.363,5.5.035,13.826,6.29,15.413,2.667.677,5.536.267,8.2.984,2.5.667,4.922,3,4.491,5.442l-5.541,1.008L228.2,119.165l-2.467.155v.12l-.133.016.131.107v.875c-4.488,1.757-11.76,6.448-14.506,18.751a18.624,18.624,0,0,1-3.715,7.666c-4.088,5.04-10.872,14.882-10.493,24.33.533,13.472.533,18.861,18.341,15.087a62.03,62.03,0,0,0,14.194-5.288c.28,5.616,1.008,11.122,2.528,15.255,4.856,13.2-5.394,59.814-5.394,59.814h98.991s-8.362-27.482-16.453-41.492c-5.73-9.925-3.613-15.927-1.891-18.586a24.953,24.953,0,0,0,3.3-7.365c.293-1.149.579-2.453.824-3.9a20.8,20.8,0,0,0,5.965,3.629,10.765,10.765,0,0,0,6.416.371c4.219,5.157,8.93,10.813,13.973,16.69,19.421,22.631,24.815,8.621,24.815,8.621s19.69-37.449,22.4-48.766,8.632-10.778,8.632-10.778c16.234,4.1,30.623-1.853,37.308-5.437a1.779,1.779,0,0,0-.5-3.317Zm-200.291,6.77a25.618,25.618,0,0,0,3.467-5.067h.051a38.483,38.483,0,0,1-1.9,5.515c-1.512.291-2.424.443-2.424.443Z" transform="translate(-159.942 -34.75)" fill="url(#linear-gradient)"/>
    <path id="Path_1056" data-name="Path 1056" d="M355.7,45.555c-4.354,3.056-5.1,9.066-7.466,13.834-4.176,8.357-14.082,13.816-15.247,23.085-.288,2.285,0,4.656-.667,6.858-1.9,6.237-10.192,8.08-13.6,13.645-3.325,5.445.035,13.682,6.218,15.253,2.643.672,5.472.267,8.106.973s5.186,3.288,4.315,5.866c-.648,1.92-2.933,3.013-3.349,5-.363,1.707.8,3.333,1.925,4.661a19.335,19.335,0,0,0,4.867,4.434c5.258,3.029,11.818,1.211,17.882,1.011a32.311,32.311,0,0,1,20.391,6.482,15.636,15.636,0,0,1,4.3,4.573c3.389,5.968.184,13.458.9,20.282.816,7.754,6.608,13.978,12.456,19.133a25.051,25.051,0,0,0,7.733,5.152c2.933,1.064,6.44,1.005,8.906-.893,2.592-1.995,3.493-5.528,3.509-8.8s-.672-6.528-.507-9.794c.08-1.6.664-3.5,2.224-3.816a3.634,3.634,0,0,1,2.285.517c4.976,2.5,9.749,7.4,15.082,5.81,4.1-1.224,6.133-5.85,6.778-10.077a33.142,33.142,0,0,0-2.576-18.73c-1.221-2.667-2.8-5.192-3.784-7.965-4.123-11.65,3.037-25.114-1.293-36.689-1.789-4.779-5.36-8.656-7.826-13.122-5.547-10.042-5.3-22.6-11.338-32.359a29.244,29.244,0,0,0-27.511-13.357c-6.3.712-10.808,2.968-16.682.267C366.776,44.518,360.824,41.961,355.7,45.555Z" transform="translate(-248.247 -41.382)" fill="#40243e"/>
    <path id="Path_1057" data-name="Path 1057" d="M600.433,366.286s17.333-5.333,24.266,25.6l17.6,39.465s24-29.866,24-37.065c0,0,4.8-14.133,23.2-10.4,12.429,2.523,23.4,4.8,29.207,6.013a1.76,1.76,0,0,1,.477,3.272c-6.608,3.546-20.834,9.442-36.884,5.381,0,0-5.866-.533-8.533,10.666s-22.133,48.265-22.133,48.265-5.333,13.866-24.532-8.533-33.6-41.6-33.6-41.6Z" transform="translate(-450.71 -277.644)" fill="#ffc79b"/>
    <path id="Path_1058" data-name="Path 1058" d="M419.3,281.515l-2.3,7.57-2.272,7.488-4.5,14.807-21.333,4-6.952-4.434-8.514-5.432-7.341-5.066L355.3,292.982l-8.8-18.4s2.427-.429,9.992-1.805l10.541-1.928c7.28-1.333,10.032-6.752,10.872-12.266a37.9,37.9,0,0,0-.739-13.333H404.1s3.013,4.533,2.541,12.362a31.349,31.349,0,0,1-1.208,6.837c-2.368,8.2,2.979,10.933,6.605,11.821a15.032,15.032,0,0,0,2.995.445Z" transform="translate(-269.574 -189.14)" fill="#ffc79b"/>
    <path id="Path_1059" data-name="Path 1059" d="M490.944,257.627a25.348,25.348,0,0,1-28.735.976,37.9,37.9,0,0,0-.739-13.333H488.4S491.424,249.784,490.944,257.627Z" transform="translate(-353.887 -189.155)" opacity="0.1"/>
    <circle id="Ellipse_199" data-name="Ellipse 199" cx="25.332" cy="25.332" r="25.332" transform="translate(96.658 21.978)" fill="#ffc79b"/>
    <path id="Path_1060" data-name="Path 1060" d="M419.3,357.218l-2.3,7.57-2.272,7.488-4.5,14.807-21.333,4-6.952-4.434-8.514-5.432-7.341-5.066L355.3,368.685l-8.8-18.4s2.427-.429,9.992-1.805c5.333,14.839,12.08,20.365,18.167,22.156a22.4,22.4,0,0,0,9.754.4,25.17,25.17,0,0,1,10.461.533c8.186,2.277,12.5-2.083,14.759-7.616a38.633,38.633,0,0,0,2.4-12,15.031,15.031,0,0,0,2.995.445Z" transform="translate(-269.574 -264.843)" opacity="0.1"/>
    <path id="Path_1061" data-name="Path 1061" d="M304.552,487.226s10.133-46.132,5.333-59.2a50.876,50.876,0,0,1-2.416-13.674,169.655,169.655,0,0,1,.816-26.324c.229-.445.445-.888.653-1.333q.8-1.707,1.408-3.339c5.714-15.375-1.395-25.612-5-29.527a17.935,17.935,0,0,0-1.867-1.795l20.4-2.267c5.363,15.389,12.24,21.066,18.426,22.884a22.4,22.4,0,0,0,9.754.4,25.17,25.17,0,0,1,10.461.533c8.186,2.277,12.5-2.083,14.76-7.616,2.81-6.869,2.464-15.543,2.464-15.543l11.733,3.467s-1.035,6.426-1.971,14.871c-.221,1.981-.437,4.072-.632,6.218-.8,8.954-1.275,18.855-.331,25.575a51.745,51.745,0,0,1-1.005,19.914,24.7,24.7,0,0,1-3.264,7.29c-1.7,2.629-3.8,8.573,1.867,18.4,8,13.866,16.266,41.065,16.266,41.065Z" transform="translate(-238.026 -265.789)" fill="#ffb300"/>
    <path id="Path_1062" data-name="Path 1062" d="M600.922,365.75s9.688,15.2-3.024,28.266-7.642-5.333-7.642-5.333l3.2-21.333Z" transform="translate(-447.599 -277.508)" fill="#ffb300"/>
    <path id="Path_1063" data-name="Path 1063" d="M310.48,363.636a13.189,13.189,0,0,1,2.216-.5c3.466,1.653,5.386,6.242,6.429,11.034a24.815,24.815,0,0,1-3.645,19C321.194,377.787,314.085,367.55,310.48,363.636Z" transform="translate(-243.159 -275.594)" opacity="0.1"/>
    <path id="Path_1064" data-name="Path 1064" d="M399.239,418.541a102.611,102.611,0,0,1-13.13-.291,11.615,11.615,0,0,1-3.2,10.506,7.269,7.269,0,0,1-6.576,2.3c-12.3-2.133-31.012,9.066-31.012,9.066s-13.381,10.808-27.492,17.791a169.656,169.656,0,0,1,.816-26.324c.229-.445.445-.888.653-1.333,5.7-1.067,26.415-5.28,30.546-11.466a9.769,9.769,0,0,1,2.827-2.581c3.528-2.283,9.173-4.072,14.541-5.379a58.07,58.07,0,0,1,20.434-1.3,56.371,56.371,0,0,1,8.682,1.693c1.243.344,2.443.715,3.544,1.1,3.019,1.067,5.306,2.259,5.7,3.528C406.111,417.565,403.068,418.29,399.239,418.541Z" transform="translate(-248.385 -309.342)" opacity="0.1"/>
    <path id="Path_1065" data-name="Path 1065" d="M468.606,411.611c-4.1-.069-7.7-.392-7.7-.392a11.615,11.615,0,0,1-3.2,10.506,7.269,7.269,0,0,1-6.576,2.3c-4.637-.8-10.186.291-15.3,1.957l-8.525-5.432-7.341-5.066a12.949,12.949,0,0,0,4.674-3.733c2.368-3.552,10.133-6.195,17.367-7.96a57.619,57.619,0,0,1,28.866.331l.251.067c4.637,1.293,8.706,2.9,9.248,4.629C481.154,411.312,474.376,411.712,468.606,411.611Z" transform="translate(-323.453 -304.177)" opacity="0.1"/>
    <path id="Path_1066" data-name="Path 1066" d="M229.535,358.12s-13.949,1.419-18.015,19.5a18.732,18.732,0,0,1-3.707,7.68c-4.043,4.994-10.728,14.719-10.354,24.055.533,13.333.533,18.666,18.133,14.933s41.332-22.932,41.332-22.932,18.709-11.181,31.012-9.066a7.274,7.274,0,0,0,6.576-2.3,11.58,11.58,0,0,0,3.2-10.506s20.8,1.867,19.466-2.4c-.533-1.733-4.61-3.336-9.248-4.626a57.659,57.659,0,0,0-29.116-.4c-7.248,1.768-15,4.411-17.367,7.96-4.8,7.2-32,11.733-32,11.733l.8-.9a24.914,24.914,0,0,0,5.717-21.7C234.924,364.362,233.012,359.773,229.535,358.12Z" transform="translate(-160.265 -271.913)" fill="#ffc79b"/>
    <path id="Path_1067" data-name="Path 1067" d="M303.97,356.283s-.8,32.266,11.2,27.466,2.667-27.466,2.667-27.466l-5.333-.533Z" transform="translate(-238.377 -270.175)" fill="#ffb300"/>
    <path id="Path_1068" data-name="Path 1068" d="M418.731,130.828a117.935,117.935,0,0,0,23.287-5.005c1.947-.629,4.061-1.467,4.971-3.3.235-.472.411-1.032.872-1.291a1.847,1.847,0,0,1,1.317-.051c2.6.616,4.832,2.245,7.309,3.245s5.632,1.235,7.536-.643c2.248-2.219,1.5-6.032.024-8.818-5.5-10.368-18.37-15.1-30.082-14.242a12.986,12.986,0,0,0-4.8,1.067c-3.136,1.507-4.853,4.858-6.552,7.9C419.31,115.581,401.841,132.7,418.731,130.828Z" transform="translate(-317.228 -83.084)" opacity="0.1"/>
    <path id="Path_1069" data-name="Path 1069" d="M418.731,127.828a117.937,117.937,0,0,0,23.287-5.005c1.947-.629,4.061-1.467,4.971-3.3.235-.472.411-1.032.872-1.291a1.847,1.847,0,0,1,1.317-.051c2.6.616,4.832,2.245,7.309,3.245s5.632,1.235,7.536-.643c2.248-2.219,1.5-6.032.024-8.818-5.5-10.368-18.37-15.1-30.082-14.242a12.986,12.986,0,0,0-4.8,1.067c-3.136,1.507-4.853,4.858-6.552,7.9C419.31,112.581,401.841,129.7,418.731,127.828Z" transform="translate(-317.228 -80.884)" fill="#40243e"/>
    <path id="Path_1070" data-name="Path 1070" d="M927.588,316.75H873.456a2.467,2.467,0,0,0-2.467,2.467v31.732a2.467,2.467,0,0,0,2.467,2.467h54.131a2.467,2.467,0,0,0,2.467-2.467V319.217A2.466,2.466,0,0,0,927.588,316.75Z" transform="translate(-654.205 -241.574)" opacity="0" fill="url(#linear-gradient-2)"/>
    <rect id="Rectangle_532" data-name="Rectangle 532" width="57.686" height="35.804" rx="11.91" transform="translate(217.47 75.608)" fill="#ffb300"/>
    <rect id="Rectangle_533" data-name="Rectangle 533" width="57.686" height="6.565" transform="translate(217.47 81.874)" fill="#6c63ff"/>
    <rect id="Rectangle_534" data-name="Rectangle 534" width="57.686" height="6.565" transform="translate(217.47 81.874)" opacity="0.3"/>
    <rect id="Rectangle_535" data-name="Rectangle 535" width="46.745" height="3.184" transform="translate(222.939 93.311)" fill="#d6d6e3"/>
    <circle id="Ellipse_200" data-name="Ellipse 200" cx="4.576" cy="4.576" r="4.576" transform="translate(222.243 99.874)" fill="#6c63ff"/>
    <circle id="Ellipse_201" data-name="Ellipse 201" cx="4.576" cy="4.576" r="4.576" transform="translate(222.243 99.874)" opacity="0.3"/>
    <path id="Path_1071" data-name="Path 1071" d="M289.733,484.75s-5.066,2.69-5.906,5.978S282,494.616,282,494.616" transform="translate(-222.274 -364.776)" opacity="0.05"/>
    <path id="Path_1072" data-name="Path 1072" d="M774.067,610.75s-2.4,8.266,0,9.333" transform="translate(-582.345 -457.177)" opacity="0.05"/>
    <path id="Path_1073" data-name="Path 1073" d="M328,632.55s20.8,4.533,36.265-4.8h6.667s20,10.133,29.6,7.2" transform="translate(-256.008 -469.644)" opacity="0.05"/>
    <rect id="Rectangle_536" data-name="Rectangle 536" width="10.082" height="19.647" transform="translate(215.607 156.113) rotate(-66.42)" fill="#8ed16f"/>
    <ellipse id="Ellipse_202" data-name="Ellipse 202" cx="2.069" cy="4.136" rx="2.069" ry="4.136" transform="translate(221.954 155.783) rotate(-66.42)" fill="#8ed16f"/>
    <ellipse id="Ellipse_203" data-name="Ellipse 203" cx="2.069" cy="4.136" rx="2.069" ry="4.136" transform="translate(221.954 155.783) rotate(-66.42)" opacity="0.1"/>
    <rect id="Rectangle_537" data-name="Rectangle 537" width="10.082" height="19.647" transform="translate(242.014 123.192) rotate(-66.42)" fill="#8ed16f"/>
    <ellipse id="Ellipse_204" data-name="Ellipse 204" cx="2.069" cy="4.136" rx="2.069" ry="4.136" transform="translate(248.361 122.862) rotate(-66.42)" fill="#8ed16f"/>
    <ellipse id="Ellipse_205" data-name="Ellipse 205" cx="2.069" cy="4.136" rx="2.069" ry="4.136" transform="translate(248.361 122.862) rotate(-66.42)" opacity="0.1"/>
    <rect id="Rectangle_538" data-name="Rectangle 538" width="10.082" height="19.647" transform="translate(268.139 149.334) rotate(-11.09)" fill="#8ed16f"/>
    <ellipse id="Ellipse_206" data-name="Ellipse 206" cx="2.069" cy="4.136" rx="2.069" ry="4.136" transform="translate(272.024 154.368) rotate(-11.09)" fill="#8ed16f"/>
    <ellipse id="Ellipse_207" data-name="Ellipse 207" cx="2.069" cy="4.136" rx="2.069" ry="4.136" transform="translate(272.024 154.368) rotate(-11.09)" opacity="0.1"/>
    <rect id="Rectangle_539" data-name="Rectangle 539" width="10.082" height="19.647" transform="translate(238.404 201.346) rotate(-66.42)" fill="#8ed16f"/>
    <ellipse id="Ellipse_208" data-name="Ellipse 208" cx="2.069" cy="4.136" rx="2.069" ry="4.136" transform="translate(244.756 201.017) rotate(-66.42)" fill="#8ed16f"/>
    <ellipse id="Ellipse_209" data-name="Ellipse 209" cx="2.069" cy="4.136" rx="2.069" ry="4.136" transform="translate(244.756 201.017) rotate(-66.42)" opacity="0.1"/>
    <rect id="Rectangle_540" data-name="Rectangle 540" width="10.082" height="19.647" transform="translate(193.911 192.613) rotate(-66.42)" fill="#8ed16f"/>
    <ellipse id="Ellipse_210" data-name="Ellipse 210" cx="2.069" cy="4.136" rx="2.069" ry="4.136" transform="translate(200.261 192.284) rotate(-66.42)" fill="#8ed16f"/>
    <ellipse id="Ellipse_211" data-name="Ellipse 211" cx="2.069" cy="4.136" rx="2.069" ry="4.136" transform="translate(200.261 192.284) rotate(-66.42)" opacity="0.1"/>
  </g>
</svg>
