<svg xmlns="http://www.w3.org/2000/svg" xmlns:xlink="http://www.w3.org/1999/xlink" width="291.042" height="241.898" viewBox="0 0 291.042 241.898">
  <defs>
    <linearGradient id="linear-gradient" x1="-2.055" y1="1" x2="-2.055" gradientUnits="objectBoundingBox">
      <stop offset="0" stop-color="gray" stop-opacity="0.251"/>
      <stop offset="0.54" stop-color="gray" stop-opacity="0.122"/>
      <stop offset="1" stop-color="gray" stop-opacity="0.102"/>
    </linearGradient>
  </defs>
  <g id="Group_846" data-name="Group 846" transform="translate(-0.004 0.024)">
    <path id="Path_925" data-name="Path 925" d="M1031.274,308.36H1004.42v32.552h24.891c.064.336.126.672.2,1H1004.42v26.246l.126-.041q1.063-.374,2.112-.794l.45-.184q1.075-.441,2.112-.943c.248-.114.494-.234.736-.356a43.767,43.767,0,0,0,10.564-7.3c.09-.079.175-.161.257-.24.429-.415.85-.832,1.259-1.262l.45-.479c.482-.523.946-1.063,1.4-1.609l.2-.24a34.014,34.014,0,0,0,4.551-7.3c.038-.079.07-.161.105-.24.365-.824.695-1.659.981-2.509.123-.359.24-.718.342-1.078.035-.108.067-.213.1-.318,1.49-5.214,1.662-10.632,1.662-16.02v-1.884c0-2.176-.032-4.381-.073-6.557,0-.567-.026-1.13-.041-1.7q-.053-2.17-.158-4.334c-.018-.4-.035-.8-.062-1.2,0-.231-.023-.461-.038-.692C1031.39,310.022,1031.338,309.192,1031.274,308.36Z" transform="translate(-740.774 -228.801)" fill="#6c63ff" opacity="0.1"/>
    <path id="Path_926" data-name="Path 926" d="M1004.4,144.165h14.729a100.7,100.7,0,0,0-7.842-9.592c-2.19-2.389-4.489-4.72-6.9-6.963Z" transform="translate(-740.753 -100.844)" fill="#ffc300" opacity="0.1"/>
    <path id="Path_927" data-name="Path 927" d="M1004.42,187.709v34.228h26.769c0-.1-.018-.2-.026-.292-.023-.269-.047-.537-.073-.809s-.061-.631-.1-.949-.07-.686-.111-1.025-.076-.686-.12-1.028-.085-.683-.131-1.022-.091-.683-.143-1.022c-.041-.292-.079-.561-.123-.844-.062-.4-.126-.8-.193-1.192a1.705,1.705,0,0,0-.032-.175,73.388,73.388,0,0,0-1.969-8.6,59.131,59.131,0,0,0-3.321-8.724,63.345,63.345,0,0,0-5-8.558Z" transform="translate(-740.774 -143.383)" fill="#ffc300" opacity="0.1"/>
    <path id="Path_928" data-name="Path 928" d="M305.889,115.469v32.552h57.358V115.469Zm0,33.557v22.043c6.677-2.135,14.312-1.273,21.234.479,5.36,1.361,10.582,3.213,15.933,4.545a58.44,58.44,0,0,0,7.264,1.373l.6.064c.292.029.584.058.876.082l.876.061h.482a1.034,1.034,0,0,0,.134,0l.473.018h.015c.225,0,.453,0,.681.018h1.875a4.955,4.955,0,0,0,.511-.018c.275,0,.549-.023.827-.044l.511-.032.631-.05c.447-.035.876-.082,1.329-.134.175-.02.353-.041.529-.067l.26-.032c.441-.058.876-.129,1.317-.2.324-.05.648-.111.976-.169V149.026Zm42.661-69.806v1H305.889v34.24h57.358V80.236H360.37v-1h2.877V57.109c-11.157-8.987-24.2-16.026-38.724-19.277a82.367,82.367,0,0,0-18.634-1.942V79.231Zm-131.142-.193.2.193h81.863V36.191a81.914,81.914,0,0,0-40.245,14.218c-5.506,3.893-10.45,8.508-16.628,11.5a26.039,26.039,0,0,1-10.4,2.687Zm-.564-17.653v9.741l7.909-7.72a35.533,35.533,0,0,0-7.921-2.009Zm-.263,122.544h.263v21.351q4.478-.333,8.92-.917a159.6,159.6,0,0,0,38.627-10.007h0q2-.8,3.966-1.653,1.311-.57,2.608-1.168,1.945-.894,3.861-1.837a135.854,135.854,0,0,0,16.318-9.481c.324-.219.651-.441.973-.666q.97-.672,1.925-1.355c.318-.231.637-.462.952-.7l.648-.5c.654-.488,1.306-.978,1.966-1.46h0c.61-.438,1.227-.876,1.852-1.285V149.011H233.7c.047-.149.091-.292.14-.45-.053.152-.1.292-.143.45H216.831v34.9Zm.263-103.687v34.234h82.628V80.236Zm0,35.233v32.558h82.628V115.469Zm-16.52-53.088,10.094,9.852V61.33Q205.344,61.645,200.323,62.375Zm-70.288,53.094v32.552h80.382V115.469Zm19.429,80.394a149.3,149.3,0,0,0,37.891,8.99h.055q3.677.388,7.375.6h.091c5.167.292,10.354.359,15.533.166v-56.6H130.035l.292,37.479M107.77,148.021h15.854V115.469h-6.271c-.651,1.145-1.282,2.3-1.881,3.464q-.482.932-.938,1.884C110.407,129.384,107.785,138.8,107.77,148.021Zm0,1a41.149,41.149,0,0,0,4.886,19.1,46.834,46.834,0,0,0,10.956,13.143V149.026Zm10.158-34.561h5.684v-8.47a90.354,90.354,0,0,0-5.672,8.47Zm35.613-35.233h54.981l.2-.193-.292-.292h0l-15.46-15.08A125.54,125.54,0,0,0,179.4,67.3c-.421.137-.841.292-1.259.424a123.1,123.1,0,0,0-24.6,11.5ZM130.035,98.324v16.14h80.391v-33.3L209.3,80.25H151.923a110.327,110.327,0,0,0-21.888,18.074Z" transform="translate(-106.015 -35.91)" fill="#ffc300" opacity="0.1"/>
    <path id="Path_929" data-name="Path 929" d="M1004.42,246.84V263.8h26.769c0-.1-.018-.2-.026-.292-.023-.269-.047-.537-.073-.809s-.061-.631-.1-.949-.07-.686-.111-1.025-.076-.686-.12-1.028-.085-.684-.131-1.022-.091-.683-.143-1.022c-.041-.292-.079-.561-.123-.844-.062-.4-.126-.8-.193-1.192a1.708,1.708,0,0,0-.032-.175,73.385,73.385,0,0,0-1.969-8.6Z" transform="translate(-740.774 -185.25)" fill="#6c63ff" opacity="0.1"/>
    <path id="Path_930" data-name="Path 930" d="M1031.274,308.36H1004.42v32.552h24.891c.064.336.126.672.2,1H1004.42v26.246l.126-.041q1.063-.374,2.112-.794l.45-.184q1.075-.441,2.112-.943c.248-.114.494-.234.736-.356a43.767,43.767,0,0,0,10.564-7.3c.09-.079.175-.161.257-.24.429-.415.85-.832,1.259-1.262l.45-.479c.482-.523.946-1.063,1.4-1.609l.2-.24a34.014,34.014,0,0,0,4.551-7.3c.038-.079.07-.161.105-.24.365-.824.695-1.659.981-2.509.123-.359.24-.718.342-1.078.035-.108.067-.213.1-.318,1.49-5.214,1.662-10.632,1.662-16.02v-1.884c0-2.176-.032-4.381-.073-6.557,0-.567-.026-1.13-.041-1.7q-.053-2.17-.158-4.334c-.018-.4-.035-.8-.062-1.2,0-.231-.023-.461-.038-.692C1031.39,310.022,1031.338,309.192,1031.274,308.36Z" transform="translate(-740.774 -228.801)" fill="#ffc300" opacity="0.1"/>
    <path id="Path_931" data-name="Path 931" d="M811.56,144.531v29.327h20.191V144.531h-2.877V134.6h-11.82v9.931Z" transform="translate(-574.519 -95.304)" fill="#6c63ff" opacity="0.1"/>
    <rect id="Rectangle_497" data-name="Rectangle 497" width="20.191" height="32.549" transform="translate(237.041 79.559)" fill="#6c63ff" opacity="0.1"/>
    <path id="Path_932" data-name="Path 932" d="M933.528,423.25H913.34v27.067a58.826,58.826,0,0,0,7.261,1.373l.6.064c.292.032.584.058.876.082l.876.061h.09a2.955,2.955,0,0,1,.391.017h.134a4.348,4.348,0,0,1,.476.018h0c.225,0,.453,0,.681.018H926.6l.514-.018c.272,0,.549-.023.824-.044l.508-.032.634-.05c.444-.038.876-.082,1.326-.134l.529-.067.26-.032c.441-.061.876-.126,1.317-.2.327-.05.648-.111.976-.169Z" transform="translate(-676.296 -310.134)" fill="#6c63ff" opacity="0.1"/>
    <rect id="Rectangle_498" data-name="Rectangle 498" width="16.651" height="32.789" transform="translate(110.817 45.763)" fill="#6c63ff" opacity="0.1"/>
    <path id="Path_933" data-name="Path 933" d="M379.4,272.45V305h82.64v-14.04H418.021v8.283H396.048v-26.8Z" transform="translate(-268.583 -192.891)" fill="#6c63ff" opacity="0.1"/>
    <path id="Path_934" data-name="Path 934" d="M480.27,457.07h.263v21.354q4.478-.339,8.92-.917a159.886,159.886,0,0,0,38.639-10.021q5.327-2.138,10.436-4.656a135.848,135.848,0,0,0,16.318-9.484q1.954-1.326,3.847-2.713c.876-.645,1.753-1.3,2.629-1.942.61-.438,1.227-.876,1.852-1.288V422.167H497.4c.047-.149.091-.292.137-.447-.05.149-.1.292-.143.447H480.533v34.889Z" transform="translate(-369.716 -309.051)" fill="#6c63ff" opacity="0.1"/>
    <path id="Path_935" data-name="Path 935" d="M332.5,155.378h10.848v-3.005h-4.86V143.45c-.421.137-.841.292-1.259.423v8.5H332.5Z" transform="translate(-265.106 -112.057)" fill="#6c63ff" opacity="0.1"/>
    <path id="Path_936" data-name="Path 936" d="M243,221.958h63.15V189.167h-2.8v24.242H290.559V199.063h-10.57V187.73H269.141v11.333H258.574v14.344H243Z" transform="translate(-201.747 -143.404)" fill="#6c63ff" opacity="0.1"/>
    <path id="Path_937" data-name="Path 937" d="M201.233,308.36v32.552h63.15V308.36Zm2.205,80.394a149.3,149.3,0,0,0,37.891,8.99h.055q3.677.388,7.375.6h.091c5.167.292,10.354.359,15.533.167v-56.6h-63.15v11.54H184l.091,25.764" transform="translate(-159.98 -228.801)" fill="#6c63ff" opacity="0.1"/>
    <path id="Path_938" data-name="Path 938" d="M122.539,423.25H107.81a41.185,41.185,0,0,0,4.886,19.1,46.843,46.843,0,0,0,10.956,13.143v-20.7h-1.113Z" transform="translate(-106.043 -310.134)" fill="#ffc300" opacity="0.1"/>
    <path id="Path_939" data-name="Path 939" d="M107.77,353.874h14.741v-27.2h-7.977C110.407,335.237,107.785,344.653,107.77,353.874Z" transform="translate(-106.015 -241.763)" fill="#ffc300" opacity="0.1"/>
    <rect id="Rectangle_499" data-name="Rectangle 499" width="8.92" height="10.281" transform="translate(110.817 54.879)" fill="#6c63ff" opacity="0.1"/>
    <rect id="Rectangle_500" data-name="Rectangle 500" width="8.92" height="2.366" transform="translate(110.817 76.188)" fill="#6c63ff" opacity="0.1"/>
    <rect id="Rectangle_501" data-name="Rectangle 501" width="8.92" height="6.908" transform="translate(110.817 79.559)" fill="#6c63ff" opacity="0.1"/>
    <rect id="Rectangle_502" data-name="Rectangle 502" width="8.92" height="10.281" transform="translate(110.817 97.495)" fill="#6c63ff" opacity="0.1"/>
    <rect id="Rectangle_503" data-name="Rectangle 503" width="8.92" height="10.281" transform="translate(110.817 118.805)" fill="#6c63ff" opacity="0.1"/>
    <path id="Path_940" data-name="Path 940" d="M480.533,523.565h0v2.386h8.92V515.67h-8.92Z" transform="translate(-369.716 -375.561)" fill="#6c63ff" opacity="0.1"/>
    <path id="Path_941" data-name="Path 941" d="M481.17,588.63v7.942q4.478-.339,8.92-.917v-7.01Z" transform="translate(-370.353 -427.211)" fill="#6c63ff" opacity="0.1"/>
    <rect id="Rectangle_504" data-name="Rectangle 504" width="38.227" height="0.754" transform="translate(155.23 111.354)" fill="#6c63ff" opacity="0.1"/>
    <rect id="Rectangle_505" data-name="Rectangle 505" width="38.227" height="2.894" transform="translate(155.23 113.116)" fill="#6c63ff" opacity="0.1"/>
    <rect id="Rectangle_506" data-name="Rectangle 506" width="38.227" height="4.656" transform="translate(155.23 125.497)" fill="#6c63ff" opacity="0.1"/>
    <path id="Path_942" data-name="Path 942" d="M633.23,514.06v4.656h29.9q1.948-1.323,3.847-2.716c.876-.643,1.753-1.3,2.629-1.936Z" transform="translate(-478 -374.421)" fill="#6c63ff" opacity="0.1"/>
    <path id="Path_943" data-name="Path 943" d="M633.23,562.47v4.656h3.146q5.325-2.132,10.433-4.656Z" transform="translate(-478 -408.691)" fill="#6c63ff" opacity="0.1"/>
    <rect id="Rectangle_507" data-name="Rectangle 507" width="7.524" height="6.691" transform="translate(88.87 89.408) rotate(180)" fill="#6c63ff" opacity="0.1"/>
    <rect id="Rectangle_508" data-name="Rectangle 508" width="7.524" height="6.691" transform="translate(251.808 58.226) rotate(180)" fill="#6c63ff" opacity="0.1"/>
    <rect id="Rectangle_509" data-name="Rectangle 509" width="7.524" height="6.691" transform="translate(251.808 73.77) rotate(180)" fill="#6c63ff" opacity="0.1"/>
    <rect id="Rectangle_510" data-name="Rectangle 510" width="7.524" height="6.691" transform="translate(251.808 89.311) rotate(180)" fill="#6c63ff" opacity="0.1"/>
    <rect id="Rectangle_511" data-name="Rectangle 511" width="7.524" height="6.691" transform="translate(251.808 104.856) rotate(180)" fill="#6c63ff" opacity="0.1"/>
    <rect id="Rectangle_512" data-name="Rectangle 512" width="7.524" height="6.691" transform="translate(251.808 120.403) rotate(180)" fill="#6c63ff" opacity="0.1"/>
    <rect id="Rectangle_513" data-name="Rectangle 513" width="7.524" height="6.691" transform="translate(251.808 135.944) rotate(180)" fill="#6c63ff" opacity="0.1"/>
    <rect id="Rectangle_514" data-name="Rectangle 514" width="7.524" height="6.691" transform="translate(60.142 89.408) rotate(180)" fill="#6c63ff" opacity="0.1"/>
    <rect id="Rectangle_515" data-name="Rectangle 515" width="7.524" height="6.691" transform="translate(88.87 105.91) rotate(180)" fill="#6c63ff" opacity="0.1"/>
    <rect id="Rectangle_516" data-name="Rectangle 516" width="7.524" height="6.691" transform="translate(60.142 105.91) rotate(180)" fill="#6c63ff" opacity="0.1"/>
    <rect id="Rectangle_517" data-name="Rectangle 517" width="7.524" height="6.691" transform="translate(88.87 122.415) rotate(180)" fill="#6c63ff" opacity="0.1"/>
    <rect id="Rectangle_518" data-name="Rectangle 518" width="7.524" height="6.691" transform="translate(60.142 122.415) rotate(180)" fill="#6c63ff" opacity="0.1"/>
    <rect id="Rectangle_519" data-name="Rectangle 519" width="7.524" height="6.691" transform="translate(88.87 138.921) rotate(180)" fill="#6c63ff" opacity="0.1"/>
    <rect id="Rectangle_520" data-name="Rectangle 520" width="7.524" height="6.691" transform="translate(60.142 138.921) rotate(180)" fill="#6c63ff" opacity="0.1"/>
    <rect id="Rectangle_521" data-name="Rectangle 521" width="7.524" height="6.691" transform="translate(88.87 155.429) rotate(180)" fill="#6c63ff" opacity="0.1"/>
    <rect id="Rectangle_522" data-name="Rectangle 522" width="7.524" height="6.691" transform="translate(60.142 155.429) rotate(180)" fill="#6c63ff" opacity="0.1"/>
    <path id="Path_944" data-name="Path 944" d="M286.021,570.124V565.81H278.5v3.7Z" transform="translate(-197.154 -400.567)" fill="#6c63ff" opacity="0.1"/>
    <path id="Path_945" data-name="Path 945" d="M1004.42,276.26v3.829h25.752V276.26Zm23.188.242h2.1v3.347H1027.6Zm-2.564,0h2.112v3.347h-2.12Zm-2.559,0h2.112v3.347h-2.112Zm-2.564,0h2.112v3.347h-2.112Zm-2.562,0h2.126v3.347h-2.112Zm-2.564,0h2.112v3.347h-2.112Zm-2.564,0h2.112v3.347h-2.112Zm-2.562,0h2.112v3.347h-2.112Zm-2.561,0h2.112v3.347h-2.112Zm-2.562,0h2.112v3.347h-2.112Z" transform="translate(-740.774 -206.077)" fill="#6c63ff" opacity="0.1"/>
    <path id="Path_946" data-name="Path 946" d="M1004.42,314.42v3.829h25.752V314.42Zm23.188.242h2.1v3.344H1027.6Zm-2.564,0h2.112v3.344h-2.12Zm-2.559,0h2.112v3.344h-2.112Zm-2.564,0h2.112v3.344h-2.112Zm-2.562,0h2.126v3.344h-2.112Zm-2.564,0h2.112v3.344h-2.112Zm-2.564,0h2.112v3.344h-2.112Zm-2.562,0h2.112v3.344h-2.112Zm-2.561,0h2.112v3.344h-2.112Zm-2.562,0h2.112v3.344h-2.112Z" transform="translate(-740.774 -233.091)" fill="#6c63ff" opacity="0.1"/>
    <path id="Path_947" data-name="Path 947" d="M1004.42,352.57V356.4h25.752V352.57Zm23.188.239h2.1v3.347H1027.6Zm-2.564,0h2.112v3.347h-2.12Zm-2.559,0h2.112v3.347h-2.112Zm-2.564,0h2.112v3.347h-2.112Zm-2.562,0h2.126v3.347h-2.112Zm-2.564,0h2.112v3.347h-2.112Zm-2.564,0h2.112v3.347h-2.112Zm-2.562,0h2.112v3.347h-2.112Zm-2.561,0h2.112v3.347h-2.112Zm-2.562,0h2.112v3.347h-2.112Z" transform="translate(-740.774 -260.098)" fill="#6c63ff" opacity="0.1"/>
    <path id="Path_948" data-name="Path 948" d="M1004.42,390.72v3.826h25.752V390.72Zm23.188.24h2.1v3.347H1027.6Zm-2.564,0h2.112v3.347h-2.12Zm-2.559,0h2.112v3.347h-2.112Zm-2.564,0h2.112v3.347h-2.112Zm-2.562,0h2.126v3.347h-2.112Zm-2.564,0h2.112v3.347h-2.112Zm-2.564,0h2.112v3.347h-2.112Zm-2.562,0h2.112v3.347h-2.112Zm-2.561,0h2.112v3.347h-2.112Zm-2.562,0h2.112v3.347h-2.112Z" transform="translate(-740.774 -287.106)" fill="#6c63ff" opacity="0.1"/>
    <path id="Path_949" data-name="Path 949" d="M1004.42,428.87V432.7h24.213c.035-.079.07-.161.1-.24h-1.127v-3.353h2.1v.832c.123-.356.239-.713.342-1.075Zm20.623.242h2.112v3.344h-2.12Zm-2.559,0h2.112v3.344h-2.112Zm-2.564,0h2.112v3.344h-2.112Zm-2.561,0h2.126v3.344h-2.112Zm-2.565,0h2.112v3.344h-2.112Zm-2.564,0h2.112v3.344h-2.112Zm-2.562,0h2.112v3.344h-2.112Zm-2.561,0h2.112v3.344h-2.112Zm-2.562,0h2.112v3.344h-2.112Z" transform="translate(-740.774 -314.113)" fill="#6c63ff" opacity="0.1"/>
    <path id="Path_950" data-name="Path 950" d="M1004.42,467v3.826h16.1c.094-.079.175-.164.26-.24h-.856v-3.338h2.112v2.088l.453-.482v-1.606h1.4c.067-.082.131-.164.2-.24Zm12.939.24h2.126v3.347h-2.112Zm-2.565,0h2.112v3.347h-2.112Zm-2.564,0h2.112v3.347h-2.112Zm-2.562,0h2.112v3.347h-2.112Zm-2.561,0h2.112v3.347h-2.112Zm-2.562,0h2.112v3.347h-2.112Z" transform="translate(-740.774 -341.106)" fill="#6c63ff" opacity="0.1"/>
    <path id="Path_951" data-name="Path 951" d="M1004.42,505.18V507.5a.9.9,0,0,0,.126-.044v-2.044h2.112v1.244l.45-.184V505.42h2.112v.117c.248-.114.494-.234.736-.353Z" transform="translate(-740.774 -368.134)" fill="#6c63ff" opacity="0.1"/>
    <path id="Path_952" data-name="Path 952" d="M425.33,219.529h.015Zm16.047,69.459h0Zm17.127-34.9h0c.047-.149.091-.292.14-.45C458.595,253.787,458.548,253.936,458.5,254.085ZM425.33,219.529h.015ZM573.357,184.29v1h11.82v-1Zm-131.981,104.7h0Zm17.127-34.9h0c.047-.149.091-.292.14-.45C458.595,253.787,458.548,253.936,458.5,254.085ZM425.33,219.529h.015Zm16.047,69.459h0Zm17.127-34.9h0c.047-.149.091-.292.14-.45C458.595,253.787,458.548,253.936,458.5,254.085Z" transform="translate(-330.823 -140.969)" fill="#6c63ff" opacity="0.1"/>
    <ellipse id="Ellipse_173" data-name="Ellipse 173" cx="10.1" cy="1.119" rx="10.1" ry="1.119" transform="translate(253.634 238.539)" fill="#6c63ff" opacity="0.1"/>
    <path id="Path_953" data-name="Path 953" d="M655.068,488.7l-5.047-.277-.342-14.5-.079-3.452,5.325-.981.035,4.451Z" transform="translate(-459.864 -332.38)" fill="#d48a9b"/>
    <path id="Path_954" data-name="Path 954" d="M588.948,524.571,563.012,540.7l-.561,4.907,2.8.14v-3.5l16.964-9.533L561.75,558.081v3.926h3.365l-.28-4.346,23.693-26.918,2.944.28,24.958,28.32.561,4.77,3.365.14-.561-4.91-19.768-24.675,13.179,9.113.28,3.925,2.664.14-.28-4.767-25.1-19.35Z" transform="translate(-397.673 -370.778)" fill="#818181"/>
    <path id="Path_955" data-name="Path 955" d="M636.229,372.69a46.267,46.267,0,0,0,6.11-9.957c1.785-3.949,3.742-8.508,3.891-9.858.292-2.524,7.43-7.571,15.281-7.851,5.12-.184,13.1-4.18,18.033-6.94a36.7,36.7,0,0,1,15.13-4.673c5.774-.435,11.2.7,8.47,7.4L666.43,385.27s-31.311,5.517-33.241-3.353a7.381,7.381,0,0,0-.447-1.3C632.376,379.775,632.28,377.588,636.229,372.69Z" transform="translate(-477.538 -246.477)" fill="#ffb300"/>
    <path id="Path_956" data-name="Path 956" d="M646.447,379.521a47.629,47.629,0,0,0,6.171-10.047c1.665-3.692,3.432-7.831,3.572-9.084.269-2.41,7.109-7.232,14.621-7.5,4.9-.175,12.53-3.99,17.25-6.627a35.168,35.168,0,0,1,14.481-4.451c5.523-.415,10.719.669,8.114,7.068l-29.123,42.643s-35.925,5.1-37.827-3.336a8.432,8.432,0,0,0-.447-1.309C642.927,386.043,642.881,384,646.447,379.521Z" transform="translate(-484.999 -252.426)" fill="#ffb300" opacity="0.2"/>
    <path id="Path_957" data-name="Path 957" d="M756.729,509.858c-1.688,0-3.467,0-5.281-.018l-.079-3.452,5.325-.978Z" transform="translate(-561.634 -368.297)" opacity="0.1"/>
    <g id="Group_844" data-name="Group 844" transform="translate(164.077 159.124)" opacity="0.1">
      <path id="Path_958" data-name="Path 958" d="M705.978,567.413,692.8,558.3l1.51,1.884,11.668,8.07.281,3.926,2.664.14-.05-.844-2.614-.137Z" transform="translate(-654.523 -554.375)"/>
      <path id="Path_959" data-name="Path 959" d="M573.75,561.113v.841l15.722-8.835,1.241-1.539Z" transform="translate(-570.245 -549.617)"/>
      <path id="Path_960" data-name="Path 960" d="M561.75,651.9v.841h3.365l-.055-.841Z" transform="translate(-561.75 -620.636)"/>
      <path id="Path_961" data-name="Path 961" d="M566.954,595.894l-2.71-.134-.094.835,2.8.14Z" transform="translate(-563.449 -580.893)"/>
      <path id="Path_962" data-name="Path 962" d="M624.466,578.23l-.561-4.77-24.958-28.32L596,544.86,572.31,571.778l.05.786L596,545.7l2.944.281,24.958,28.32.561,4.77,3.365.14-.1-.847Z" transform="translate(-569.226 -544.86)"/>
    </g>
    <path id="Path_963" data-name="Path 963" d="M759.52,426.06s6.566,4.8,3.692,4.857S759.52,426.06,759.52,426.06Z" transform="translate(-567.404 -312.124)" opacity="0.1"/>
    <path id="Path_964" data-name="Path 964" d="M665.2,394.173s10.865-.841,14.931-8.692c0,0,8.272-16.406,15-18.229s19.207-5.888,24.394-12.2a55.631,55.631,0,0,0,7.363-11.146s1.338,5.105-2.877,11.125-5.748,15.29-8.692,25.119-4.066,13.728-9.393,14.312c-4.016.423-25.25.21-35.4,0C667.207,394.375,665.2,394.173,665.2,394.173Z" transform="translate(-500.632 -253.968)" fill="#6c63ff"/>
    <path id="Path_965" data-name="Path 965" d="M665.2,394.173s10.865-.841,14.931-8.692c0,0,8.272-16.406,15-18.229s19.207-5.888,24.394-12.2a55.631,55.631,0,0,0,7.363-11.146s1.338,5.105-2.877,11.125-5.748,15.29-8.692,25.119-4.066,13.728-9.393,14.312c-4.016.423-25.25.21-35.4,0C667.207,394.375,665.2,394.173,665.2,394.173Z" transform="translate(-500.632 -253.968)" fill="#c68b00" opacity="0.81"/>
    <path id="Path_966" data-name="Path 966" d="M674.56,398.039s10.386-.815,14.271-8.418c0,0,7.909-15.883,14.341-17.647s18.36-5.7,23.32-11.812a53.769,53.769,0,0,0,7.036-10.792s1.271,4.965-2.748,10.792-5.494,14.8-8.31,24.3-3.885,13.3-8.979,13.847c-3.838.409-24.134.2-33.84,0C676.479,398.249,674.56,398.039,674.56,398.039Z" transform="translate(-507.258 -257.833)" fill="#ffb300"/>
    <path id="Path_967" data-name="Path 967" d="M645.76,493s5.678,2.173,8.9.981,11.216-4.7,11.216-4.7S652.419,490.133,645.76,493Z" transform="translate(-486.87 -356.878)" opacity="0.1"/>
    <path id="Path_968" data-name="Path 968" d="M468.5,717.2s-16.321-.876-20.3-3.213-9.609-2.337-9.639-2.337l-64.987-14.166-27.017-6.426-4.819-.634,15.918-18.214.485-.21,23.465-10.15s10.515.584,12.591,7.436a8.274,8.274,0,0,1,.292,1.478,8.575,8.575,0,0,1-1.659,6,12.722,12.722,0,0,0-2.17,4.159,2.461,2.461,0,0,0,.292,2.1,17.147,17.147,0,0,0,2.886,2.3c5.722,3.8,20.185,10.053,45.453.47,0,0,10.807-10.661,18.985-6.134S468.5,717.2,468.5,717.2Z" transform="translate(-271.647 -479.045)" fill="#e1dee5"/>
    <path id="Path_969" data-name="Path 969" d="M397.754,680.923a2.462,2.462,0,0,0,.292,2.1,17.151,17.151,0,0,0,2.886,2.3l-49.192,3.683L365.222,672l23.465-10.15s10.515.584,12.591,7.436a8.272,8.272,0,0,1,.292,1.478,8.576,8.576,0,0,1-1.659,6A12.92,12.92,0,0,0,397.754,680.923Z" transform="translate(-278.727 -479.045)" opacity="0.1"/>
    <path id="Path_970" data-name="Path 970" d="M225.626,461.94l40.307.876v48.248L227.67,537l-9.2-8.47,1.9-28.039-1.9-26.141Z" transform="translate(-154.657 -327.035)" fill="#818181"/>
    <path id="Path_971" data-name="Path 971" d="M266.24,434.946l47.059-14.5a7.129,7.129,0,0,1,2.614-.292l112.42,8.2a53.105,53.105,0,0,1,26.772,9.443,44.832,44.832,0,0,1,17.817,24.938,47.623,47.623,0,0,1-.482,26.821l-9.931,32.128s7.448-69.806-66.886-73.311Z" transform="translate(-218.199 -307.928)" fill="#d9d6df"/>
    <path id="Path_972" data-name="Path 972" d="M248.029,487.625v77.5s-12.9-1.814-15.188-4.331c-1.881-2.065-12.778-7.886-17.507-13.882a10,10,0,0,1-2.062-3.934c-1.583-7.208-8.032-24.242-8.032-24.242l1.752-16.648,7.3-10.807,14.166-6.426h10.953Z" transform="translate(-175.016 -353.742)" fill="#818181"/>
    <path id="Path_973" data-name="Path 973" d="M229.538,497.85s-20.959,13.143-16.374,34.293c.374,1.723.7,3.455.911,5.208.838,6.84,5.868,26.5,35.908,35.563v2.045L237.24,571.4l-8.651-4.77-6.6-5.923-8.073-9.849-3.747-8.032-1.373-10.579L208,520.173l1.931-10.36,4.553-6.741,5.549-4.314Z" transform="translate(-176.97 -362.945)" fill="#d9d6df"/>
    <path id="Path_974" data-name="Path 974" d="M248.022,487.6v12.329c-9.142.993-37.447,6.718-32.421,39.43l-.277,7.512a10,10,0,0,1-2.062-3.934c-1.583-7.208-8.032-24.242-8.032-24.242l1.752-16.648,7.3-10.807,14.166-6.426H239.4Z" transform="translate(-175.009 -353.714)" opacity="0.1"/>
    <path id="Path_975" data-name="Path 975" d="M508.974,694.787a12.723,12.723,0,0,0-2.17,4.159c-1.273-1.461-1.548-3.14.292-4.469,2.3-1.677,3.073-4.586,3.245-7.168a8.274,8.274,0,0,1,.292,1.478A8.575,8.575,0,0,1,508.974,694.787Z" transform="translate(-387.777 -497.068)" fill="#fff" opacity="0.1"/>
    <path id="Path_976" data-name="Path 976" d="M779.155,594.372l-5.55,18.839-12.559,12.267-15.772,3.213L720.74,624.31V537.125a43.934,43.934,0,0,1,4.673-2.775c.438,0,12.267,1.9,12.267,1.9l26.784,19.21,1.11.8,11.975,17.817Z" transform="translate(-539.95 -388.784)" fill="#818181"/>
    <path id="Path_977" data-name="Path 977" d="M618.97,495.44v90.836l2.366.424V495.44Z" transform="translate(-438.18 -350.751)" fill="#b6b6b6"/>
    <path id="Path_978" data-name="Path 978" d="M764.99,561.549a75.79,75.79,0,0,0-44.25-16.78v-7.594a43.934,43.934,0,0,1,4.673-2.775c.438,0,12.267,1.9,12.267,1.9l26.784,19.21Z" transform="translate(-539.95 -388.82)" opacity="0.1"/>
    <path id="Path_979" data-name="Path 979" d="M343.765,480.637,233.994,468.662l-12.337-.654a25.355,25.355,0,0,0-20.507,8.572c-6.426,7.39-11.283,20.425-4.188,42.807,0,0,7.4,29.012,43.227,35.245L344.3,578.223c2.307.523,4.586,1.168,6.835,1.9,9.452,3.1,41.475,11.149,56.561-16.2a46.074,46.074,0,0,0,4.726-30.832C408.787,513.849,395.08,481.186,343.765,480.637Zm53.78,82.041c-14.078,22.934-43.087,16.108-51.809,13.415-2.135-.66-4.3-1.235-6.484-1.7l-96.169-20.574c-33.133-5.441-39.977-30.773-39.977-30.773-5.593-16.648-3.149-27.391,1.373-34.19A24.324,24.324,0,0,1,226,478.186l11.368.584,98.184,13.117c1.986.266,3.987.441,5.991.508,43.663,1.481,57.247,25.489,60.7,42.036A38.751,38.751,0,0,1,397.545,562.678Z" transform="translate(-166.676 -341.789)" fill="#e1dee5"/>
    <path id="Path_980" data-name="Path 980" d="M103.008,300.439c3.6,2.407,9.054,1.262,9.054,1.262s8.234-3.9,10.667-3.9,8.35-2.41,8.35-2.41l-.2-1.624-.6-4.892c3.747,2.921,7.912,1.913,9.963,1.7,2.2-.228,13.97-7.223,15.1-7.685a2.99,2.99,0,0,0,1.031-1.04h0a26.511,26.511,0,0,0,1.992-3.639h0c.736-.648,1.273-1.168,1.236-1.282a8.842,8.842,0,0,1,.721-1.928,9.463,9.463,0,0,0,3.569-1.285,3.117,3.117,0,0,0,1.168-2.524s11.482-11.581,9.971-16.4,3.712-4.933,3.712-4.933,8-3.441,9.113-5.5c.686-1.271,6.689-4.06,11.2-6.017l.555-.24c1.752,3.841,10.655.876,12.407-.739,1.855-1.72,7.3-2.524,7.3-2.524s.234-22.49,1.971-25.346c.827-1.358,1.025-5.8,1-10.085v-.456c2.436-.476,8.231-1.577,10.921-1.843a10.463,10.463,0,0,0,4.848-2.266l.161.2a3.329,3.329,0,0,0,1.481.242,2.267,2.267,0,0,0,1.3-.242c1.046-.584,4.872-1.72,6.262-2.293s-.231-4.7-1.273-5.506-1.752-1.834-1.168-2.293-1.39-1.606-2.55-1.837a37.983,37.983,0,0,1-4.638-1.834s-1.276-2.629-3.362-2.629-4.872-2.065-4.872-2.065c-.114-.917-2.319-1.031-2.319-1.031s-8.348-6.426-9.741-5.62-5.217-1.262-5.217-1.262-4.694.526-5.8-.339h0a1.3,1.3,0,0,0-.292-.777,8.089,8.089,0,0,0-2.629-2.725,10.335,10.335,0,0,0,.134-1.659,6.48,6.48,0,0,0-.026-.716v-.12l.166-1.615a3.336,3.336,0,0,1,.4-1.519c.2-.292.485-.54.7-.829a2.065,2.065,0,0,0,.14-.213l.035-.061a1.915,1.915,0,0,0,.088-.172l.026-.058a2.8,2.8,0,0,0,.149-.491v-.038c.015-.076.026-.152.035-.231a.132.132,0,0,1,0-.032,4.892,4.892,0,0,0-.263-1.969,13.271,13.271,0,0,1-.949-3.26,10.085,10.085,0,0,0-.058-1.682c-.292-1.253-1.568-2.045-2.81-2.57a15.592,15.592,0,0,1-3.955-2.573c-1.168-.905-3.1-.45-4.574-.356a40.115,40.115,0,0,0-9.852,2.275,9.929,9.929,0,0,0-3.441,1.709,3.8,3.8,0,0,0-1.259,2.126h0a2.782,2.782,0,0,0-.038.584v.05a.635.635,0,0,0,.026.222.555.555,0,0,0,0,.073,1.725,1.725,0,0,0,.064.263h0c.134.424.383.806.526,1.227a2.393,2.393,0,0,1,.079.292v.029a2.651,2.651,0,0,1,.047.292h0a11.892,11.892,0,0,1-.426,3.2c-.023.149-.041.292-.053.456h0a5.444,5.444,0,0,0,.161,1.831.056.056,0,0,0,0,.02c.018.073.044.146.067.216a.88.88,0,0,0,.029.093c.02.061.047.123.07.181l.05.123c.023.053.05.105.076.158s.044.088.067.129a1.6,1.6,0,0,0,.079.14c.026.047.055.091.085.134s.056.085.088.126.067.091.1.134l.091.111.123.129.1.1.143.123c.035.026.064.055.1.079s.12.085.181.123l.085.058c.093.056.193.105.292.152.666.292,1.507.412,1.907,1a1.233,1.233,0,0,1,.2.456v.219a9.517,9.517,0,0,0,.058,1,3.722,3.722,0,0,0,.032.543,1.558,1.558,0,0,0,.111.394,10.422,10.422,0,0,0,3.5,5.906c.035.178.076.386.12.619a11.6,11.6,0,0,1-3.373,1.752c-2.784.815-6.718,4.574-6.718,4.574s-1.957,14.1-2.427,15.825a76.574,76.574,0,0,0-.818,8.374,18.909,18.909,0,0,1-1.168,4.127c-.494.97-.4,5.138.97,7.67a6.4,6.4,0,0,1-.853,1.39c-2.784,3.213-11.134,3.1-13.917,3.1-2.562,0-3.353,1.554-3.461,1.8-5.1,1.46-21.6,6.157-23.556,7.01-2.319,1.013-3.6,11.029-3.6,11.029s-4.846,16.625-4.615,18.8-1.624,8.248-1.624,8.248,0,6.861-.786,7.325a.073.073,0,0,1-.023.015c-.812.345-.7,3.671-.7,3.671s.6.172,1.53.409a27.306,27.306,0,0,1-1.878,5.7c-.362-.459-.716-.648-.926-.117-.584,1.46-9.276,11.782-11.482,11.782a6.688,6.688,0,0,0-3.926,2.018C101.653,297.542,101.122,299.18,103.008,300.439Zm39.883-59.75a96.783,96.783,0,0,0,20.41-.7,23.518,23.518,0,0,1-1.507,4.025,40.853,40.853,0,0,0-2.67,9.054c0,1.37-3.131,13.187-4.057,13.76a3.454,3.454,0,0,0-1.011,1.46,13.714,13.714,0,0,0-.613,1.752q.02.447.079.85c-.692.634-1.425,1.3-2.077,1.89h0a45.834,45.834,0,0,0-5.549,3.569c-1.4,1.262-7.886,2.81-7.886,2.81a40.368,40.368,0,0,0-4.673,2.38c-2.012,1.212-4.025,2.754-4.551,4.276.228-2.564.6-5.652.847-7.614l.368-.015c3.251-.2,2.766-3.3,2.594-4.072-.023-.111-.041-.172-.041-.172,2.319-2.524,7.536-21.322,6.84-23.4s.584-3.9.856-3.9.651-2.293.073-3.555S142.891,240.689,142.891,240.689ZM222.6,190.1l-.616.152v-.131S222.208,190.116,222.6,190.1ZM188.905,172.79c-.093.117-.187.228-.292.336l-.12.123v-.637C188.634,172.667,188.768,172.734,188.905,172.79Zm-11.616,22.25.041.645s-.061.394-.178,1.069Zm53.289-6.408-2.024.348c.292-.108.57-.225.844-.356a1.941,1.941,0,0,1,.645-.175,3.705,3.705,0,0,1,.754.161,1.4,1.4,0,0,0-.219.023Z" transform="translate(-101.77 -112.783)" fill="url(#linear-gradient)"/>
    <path id="Path_981" data-name="Path 981" d="M277.452,570.707s-2.337,4.822-2.217,5.164-5.009,4.434-5.009,4.434l-5.576-3.981.584-2.734s6.259-5.64,6.718-6.291S277.452,570.707,277.452,570.707Z" transform="translate(-217.074 -412.06)" fill="#ffc79b"/>
    <path id="Path_982" data-name="Path 982" d="M197.739,598c3.87,3.756,8.421,2.629,10.585,2.392s13.71-7.17,14.82-7.626a3.022,3.022,0,0,0,1.014-1.034h0a26.264,26.264,0,0,0,1.954-3.613c-.076.02-3.861,1.1-4.816,0,0,0-1.595-1.954-1.936-1.954s-.026-3.429-.026-3.429a44.038,44.038,0,0,0-5.436,3.543c-1.364,1.253-7.74,2.786-7.74,2.786a39.119,39.119,0,0,0-4.58,2.363C198.563,593.272,195.525,595.869,197.739,598Z" transform="translate(-169.168 -423.041)" fill="#67647e"/>
    <path id="Path_983" data-name="Path 983" d="M197.739,619.072c3.87,3.756,8.421,2.629,10.585,2.392s13.71-7.17,14.82-7.626a3.023,3.023,0,0,0,1.014-1.034c-1.346-.8-10.144,4.79-12.606,5.815s-8.692.453-12.229-1.025c-1.752-.739.023-3.009,2.249-5.094C198.563,614.34,195.525,616.937,197.739,619.072Z" transform="translate(-169.168 -444.109)" opacity="0.1"/>
    <path id="Path_984" data-name="Path 984" d="M173.552,590.486s-1.621,12.177-1.209,13.771S162.17,598.8,162.17,598.8s3.7-7.632,2.629-9.384S173.552,590.486,173.552,590.486Z" transform="translate(-144.526 -427.358)" fill="#ffc79b"/>
    <path id="Path_985" data-name="Path 985" d="M166.446,454.022s6.6,1.934,10.24,1.706c3.189-.2,2.713-3.277,2.547-4.039-.023-.108-.041-.169-.041-.169,2.275-2.506,7.4-21.17,6.718-23.217s.555-3.855.847-3.855.64-2.278.07-3.528,2.506-2.389,2.506-2.389a94,94,0,0,0,20.031-.7,23.447,23.447,0,0,1-1.481,4,40.758,40.758,0,0,0-2.629,8.99c0,1.367-3.073,13.088-3.984,13.658a3.385,3.385,0,0,0-.99,1.46,13.652,13.652,0,0,0-.6,1.752c.342,7.626,8.99,4.673,10.243,3.642a3.362,3.362,0,0,0,.485-.5,3.184,3.184,0,0,0,.651-2.009s11.268-11.493,9.787-16.275,3.642-4.892,3.642-4.892,7.854-3.414,8.946-5.465c.675-1.259,6.563-4.025,11-5.97,2.778-1.218,4.983-2.109,4.983-2.109l-1.846-6.619-1.46-5.219-2.74-1.028-8.762-3.295-15.72-2.205-1.44.187-15.273,1.977s-22.3,6.379-24.575,7.378-3.528,10.944-3.528,10.944-4.778,16.5-4.545,18.675-1.595,8.178-1.595,8.178,0,6.808-.774,7.27a.042.042,0,0,1-.023,0C166.333,450.733,166.446,454.022,166.446,454.022Z" transform="translate(-147.549 -290.666)" fill="#444053"/>
    <path id="Path_986" data-name="Path 986" d="M244.78,451.879a94,94,0,0,0,20.031-.7c.683-2.153,10.249-8.07,10.249-8.07C267.211,441.18,244.78,451.879,244.78,451.879Z" transform="translate(-203.007 -324.031)" opacity="0.1"/>
    <path id="Path_987" data-name="Path 987" d="M280.24,569.221c.342,7.626,8.99,4.673,10.243,3.642a3.367,3.367,0,0,0,.485-.5c-3.023,1.113-8.383,1.974-10.126-4.886A13.656,13.656,0,0,0,280.24,569.221Z" transform="translate(-228.11 -412.238)" fill="#444053"/>
    <path id="Path_988" data-name="Path 988" d="M166.446,586.4s6.6,1.933,10.24,1.706c3.189-.2,2.713-3.277,2.547-4.039-3.341-.105-9.1-.418-12.083-1.323a.041.041,0,0,1-.023,0C166.332,583.108,166.446,586.4,166.446,586.4Z" transform="translate(-147.549 -423.041)" fill="#444053"/>
    <path id="Path_989" data-name="Path 989" d="M280.24,569.221c.342,7.626,8.99,4.673,10.243,3.642a3.367,3.367,0,0,0,.485-.5c-3.023,1.113-8.383,1.974-10.126-4.886A13.656,13.656,0,0,0,280.24,569.221Z" transform="translate(-228.11 -412.238)" opacity="0.1"/>
    <path id="Path_990" data-name="Path 990" d="M166.446,586.4s6.6,1.933,10.24,1.706c3.189-.2,2.713-3.277,2.547-4.039-3.341-.105-9.1-.418-12.083-1.323a.041.041,0,0,1-.023,0C166.332,583.108,166.446,586.4,166.446,586.4Z" transform="translate(-147.549 -423.041)" opacity="0.1"/>
    <path id="Path_991" data-name="Path 991" d="M107.805,632.688c3.528,2.389,8.879,1.25,8.879,1.25s8.079-3.867,10.471-3.867,8.184-2.392,8.184-2.392l-.2-1.609-.94-7.723s-8.865-.228-9.221-1.025c0,0-1.592-3.92-2.161-2.471s-9.1,11.683-11.268,11.683a6.527,6.527,0,0,0-3.852,2C106.482,629.814,105.959,631.438,107.805,632.688Z" transform="translate(-105.185 -445.546)" fill="#67647e"/>
    <path id="Path_992" data-name="Path 992" d="M215.55,446.41s7.4,4.673,5.351,5.69S215.55,446.41,215.55,446.41Z" transform="translate(-182.315 -326.53)" opacity="0.1"/>
    <path id="Path_993" data-name="Path 993" d="M205,477.19s6.373,6.052,3.984,6.213S205,477.19,205,477.19Z" transform="translate(-174.846 -348.32)" opacity="0.1"/>
    <path id="Path_994" data-name="Path 994" d="M181.65,543s3.236,6.084,2.018,7.138S181.65,543,181.65,543Z" transform="translate(-158.316 -394.908)" opacity="0.1"/>
    <path id="Path_995" data-name="Path 995" d="M303.434,554.412c-1.139,1.136,10.807-3.756,8.079-3.984S303.434,554.412,303.434,554.412Z" transform="translate(-244.475 -400.16)" opacity="0.1"/>
    <path id="Path_996" data-name="Path 996" d="M385.44,234.363l.383-.055c1.414-.216,6.545-1.022,11.149-2.021,1.122-.245,2.208-.5,3.213-.762,3.525-.923,5.891-1.919,4.381-2.737a8.065,8.065,0,0,1-3.6-4.746c-.052-.166-.1-.327-.149-.488a12.651,12.651,0,0,1-.459-2.629s-12.851-4.553-10.357,0a4.316,4.316,0,0,1-.756,5.333,10.012,10.012,0,0,1-2.772,2.065Z" transform="translate(-302.584 -165.471)" fill="#ffc79b"/>
    <path id="Path_997" data-name="Path 997" d="M364.518,259.76s-4.6,3.3-9.3.57-10.845,24.128-10.845,24.128L338,300.163s-4.127,3.414,1.011,4.9,16.534-1.481,19.429,2.845,8.374,5.006,8.935,5.006,2.728-16.277,2.728-16.277l.564-23.559Z" transform="translate(-267.89 -194.396)" opacity="0.1"/>
    <path id="Path_998" data-name="Path 998" d="M339.773,301.938c5.138,1.478,16.537-1.481,19.432,2.845a11.116,11.116,0,0,0,4.9,3.952,12.851,12.851,0,0,0,4.039,1.069c.073,0,.181-.292.307-.815.8-3.295,2.421-15.463,2.421-15.463l.561-23.559-5.406-11.727-.739-1.6a9.75,9.75,0,0,1-2.337,1.142A8.229,8.229,0,0,1,356,257.2c-1.379-.8-2.883.946-4.317,3.815-3.458,6.9-6.528,20.314-6.528,20.314l-6.379,15.725a5.423,5.423,0,0,0-.432.415C337.437,298.413,335.74,300.776,339.773,301.938Z" transform="translate(-268.436 -192.187)" fill="#ffb300"/>
    <path id="Path_999" data-name="Path 999" d="M425.727,287.29a29.858,29.858,0,0,0-.152,5.993,70.188,70.188,0,0,0,1.069,8.47,3.327,3.327,0,0,0,.14.517c2.778-1.218,4.983-2.109,4.983-2.109l-1.846-6.618c.8-3.295,2.421-15.463,2.421-15.463l.561-23.559L427.5,242.8c3.525-.923,5.891-1.919,4.381-2.737a8.347,8.347,0,0,1-3.753-5.234,19,19,0,0,1-3.227,3.482l-.07.058-.409,3.972-.126,1.221-.263,2.532s1.253,29.932,2.161,31.641.456,5.006-.339,8.876C425.8,286.831,425.774,287.056,425.727,287.29Z" transform="translate(-329.902 -176.747)" opacity="0.1"/>
    <path id="Path_1000" data-name="Path 1000" d="M427.4,268.77c-.794,3.87-.114,10.243.8,15.135s10.585,1.709,12.407,0,7.168-2.5,7.168-2.5.228-22.306,1.937-25.151c.809-1.349,1-5.754.984-10.009-.015-3.82-.2-7.521-.275-8.762-.017-.292-.026-.453-.026-.453s7.4-12.518,7.281-13.436-2.275-1.022-2.275-1.022-8.178-6.373-9.56-5.579-5.123-1.25-5.123-1.25-4.758.54-5.742-.38a.5.5,0,0,1-.175-.418c.111-1.46-4.848-4.568-5-4.673,4.183,3.762-2.579,9.56-3.347,10.2l-.07.058-.8,7.725s1.253,29.932,2.161,31.641S428.2,264.9,427.4,268.77Z" transform="translate(-331 -159.361)" fill="#114c9a"/>
    <circle id="Ellipse_174" data-name="Ellipse 174" cx="0.57" cy="0.57" r="0.57" transform="translate(96.271 76.326)" fill="#444053"/>
    <path id="Path_1001" data-name="Path 1001" d="M429.33,221.987l3.458,3.344,5.068-8.47a.5.5,0,0,1-.175-.418c.111-1.46-4.851-4.568-5-4.673C436.86,215.552,430.11,221.35,429.33,221.987Z" transform="translate(-333.654 -160.423)" opacity="0.1"/>
    <circle id="Ellipse_175" data-name="Ellipse 175" cx="0.57" cy="0.57" r="0.57" transform="translate(97.41 94.534)" opacity="0.1"/>
    <circle id="Ellipse_176" data-name="Ellipse 176" cx="0.57" cy="0.57" r="0.57" transform="translate(97.41 94.306)" fill="#444053"/>
    <path id="Path_1002" data-name="Path 1002" d="M428.55,220.427l3.458,3.344,5.067-8.47a.5.5,0,0,1-.175-.418c.111-1.46-4.849-4.568-5-4.673C436.08,213.992,429.318,219.787,428.55,220.427Z" transform="translate(-333.102 -159.318)" fill="#0059cf"/>
    <rect id="Rectangle_523" data-name="Rectangle 523" width="7.921" height="16.736" rx="1.7" transform="translate(99.781 93.148) rotate(-178.69)" fill="#d1d9ec"/>
    <rect id="Rectangle_524" data-name="Rectangle 524" width="7.921" height="16.736" rx="1.7" transform="translate(99.821 93.519) rotate(-178.69)" fill="#dfe6f5"/>
    <circle id="Ellipse_177" data-name="Ellipse 177" cx="1.244" cy="1.244" r="1.244" transform="translate(95.015 80.353)" fill="#fff"/>
    <path id="Path_1003" data-name="Path 1003" d="M284.52,285.825c2.845,1.253,21.511-2.045,24.242-2.845s6.718-6.943,4.781-11.391.681-8.762.681-8.762,4.089-8.762,5.009-10.471a78.675,78.675,0,0,0,3.073-7.509.684.684,0,0,0-.161-.523,20.072,20.072,0,0,0-3.6-3.111c-.8.292-.9-2.012-.876-3.7.018-.946.073-1.7.073-1.7s-.377.383-.993.905c-.225.19-.482.4-.768.616a11.807,11.807,0,0,1-3.569,1.96c-2.731.809-6.6,4.539-6.6,4.539l1.139,17.478s-2.629,16.438-5.351,19.625-10.927,3.073-13.658,3.073S284.52,285.825,284.52,285.825Z" transform="translate(-231.14 -177.441)" fill="#114c9a" opacity="0.1"/>
    <path id="Path_1004" data-name="Path 1004" d="M283.74,283.509c2.845,1.25,21.512-2.045,24.242-2.848s6.718-6.943,4.781-11.391.681-8.762.681-8.762,4.089-8.762,5.009-10.471a78.686,78.686,0,0,0,3.073-7.509.686.686,0,0,0-.161-.523,20.279,20.279,0,0,0-3.6-3.1c-.8.292-.9-2.009-.876-3.7.018-.949.073-1.7.073-1.7s-.377.383-.993.908c-.225.187-.482.4-.768.613a11.808,11.808,0,0,1-3.587,1.96c-2.731.809-6.6,4.539-6.6,4.539L306.157,259s-2.629,16.438-5.351,19.625-10.924,3.073-13.657,3.073S283.74,283.509,283.74,283.509Z" transform="translate(-230.588 -175.806)" fill="#114c9a"/>
    <path id="Path_1005" data-name="Path 1005" d="M389.73,235s.108.6.292,1.522c.613,3.125,2.074,9.948,3.128,9.685.757-.19,2.045-1.528,3.026-2.684a19.777,19.777,0,0,0-3.6-3.119c-.8.292-.9-2.009-.876-3.7l-.92-.794Z" transform="translate(-305.621 -176.868)" opacity="0.1"/>
    <path id="Path_1006" data-name="Path 1006" d="M390.51,233.47s.108.6.292,1.522c.613,3.125,2.074,9.948,3.128,9.685.756-.19,2.045-1.528,3.026-2.684a20.24,20.24,0,0,0-3.6-3.111c-.8.292-.9-2.01-.876-3.7l-.92-.794Z" transform="translate(-306.173 -175.785)" fill="#0059cf"/>
    <path id="Path_1007" data-name="Path 1007" d="M353.45,331.536s5.693-1.136,7.284-3.639,12.434-4.673,11.1-2.045-11.1,11.184-11.1,11.184L356.5,343.1l-5.66-1.437-2.386-4.641Z" transform="translate(-276.398 -240.337)" fill="#ffc79b"/>
    <path id="Path_1008" data-name="Path 1008" d="M396.139,370.45s-5.512,2.045-6.341,4.778S396.139,370.45,396.139,370.45Z" transform="translate(-305.622 -272.756)" opacity="0.1"/>
    <path id="Path_1009" data-name="Path 1009" d="M407.715,381.34s.5,2.842-6.405,2.629Z" transform="translate(-313.818 -280.465)" opacity="0.1"/>
    <path id="Path_1010" data-name="Path 1010" d="M505.77,256.088l2.506-.228s2.731,2.045,4.778,2.045,3.3,2.629,3.3,2.629a36.753,36.753,0,0,0,4.554,1.823c1.139.228,3.073,1.364,2.5,1.82s.114,1.481,1.139,2.275,2.629,4.9,1.25,5.465-5.12,1.706-6.134,2.275a2.824,2.824,0,0,1-2.275,0s-6.029-7.854-9.1-6.373A19.63,19.63,0,0,1,501,269.29l-3.3-6.94Z" transform="translate(-382.055 -191.635)" opacity="0.1"/>
    <path id="Path_1011" data-name="Path 1011" d="M342.358,297.127a3.052,3.052,0,0,0,2.123,1.475,16.064,16.064,0,0,0,6.627-.613s-11.464-3.642-.426-12.5h-2.95l-.993-.374.45-2.357.648-21.26-2.389-.57s-1.925,14-2.383,15.7a77.577,77.577,0,0,0-.8,8.31,19.079,19.079,0,0,1-1.139,4.089C340.605,290.068,340.749,294.7,342.358,297.127Z" transform="translate(-271.021 -195.224)" fill="#114c9a"/>
    <path id="Path_1012" data-name="Path 1012" d="M347.59,355.736a3.047,3.047,0,0,0,2.123,1.475,16.065,16.065,0,0,0,6.627-.613s-11.464-3.642-.426-12.5h-2.947l-.984-.374C350.338,346.6,347.8,351.705,347.59,355.736Z" transform="translate(-275.789 -253.833)" opacity="0.1"/>
    <path id="Path_1013" data-name="Path 1013" d="M346,355.75a3.053,3.053,0,0,0,2.123,1.475,16.063,16.063,0,0,0,6.627-.613s-11.464-3.642-.426-12.5h-2.95l-.993-.374C348.769,346.611,346.216,351.72,346,355.75Z" transform="translate(-274.663 -253.847)" fill="none"/>
    <path id="Path_1014" data-name="Path 1014" d="M346,355.75a3.053,3.053,0,0,0,2.123,1.475,16.063,16.063,0,0,0,6.627-.613s-11.464-3.642-.426-12.5h-2.95l-.993-.374C348.769,346.611,346.216,351.72,346,355.75Z" transform="translate(-274.663 -253.847)" fill="#0059cf"/>
    <path id="Path_1015" data-name="Path 1015" d="M398.44,226.267a10.36,10.36,0,0,0,11.721-2.226c-.053-.166-.1-.327-.149-.488a12.651,12.651,0,0,1-.459-2.629s-12.851-4.553-10.357,0A4.326,4.326,0,0,1,398.44,226.267Z" transform="translate(-311.787 -165.471)" opacity="0.1"/>
    <path id="Path_1016" data-name="Path 1016" d="M377.65,185.233v.1a9.357,9.357,0,0,0,.058,1c.035.327.082.625.14.932A10.36,10.36,0,0,0,397.8,188.6c.07-.2.131-.4.187-.608a10.24,10.24,0,0,0,.374-2.76,6.39,6.39,0,0,0-.026-.71,10.357,10.357,0,0,0-20.688.71Z" transform="translate(-297.069 -134.323)" fill="#ffc79b"/>
    <path id="Path_1017" data-name="Path 1017" d="M377.65,185.342a4.453,4.453,0,0,1,.058,1,3.7,3.7,0,0,0,.029.54,1.531,1.531,0,0,0,.111.391,1.936,1.936,0,0,0,2.687.984,2.88,2.88,0,0,0,.806-1.057c.958-1.779,2.287-3.823,4.381-3.858a9.766,9.766,0,0,1,2.6.584,2.757,2.757,0,0,0,2.529-.342c.5-.453.73-1.224,1.393-1.382s1.276.45,1.58,1.046.546,1.3,1.168,1.606c.275.134.584.175.876.321,1.238.678.669,3.052,1.954,3.438a.93.93,0,0,0,.123.029c.02-.21.044-.426.064-.637q.175-1.735.348-3.47a10.357,10.357,0,0,0-20.688.71Z" transform="translate(-297.069 -134.331)" opacity="0.1"/>
    <path id="Path_1018" data-name="Path 1018" d="M385.626,149.849c1.218.517,2.486,1.311,2.757,2.553a10.234,10.234,0,0,1,.058,1.668,13.056,13.056,0,0,0,.932,3.236,3.577,3.577,0,0,1-.219,3.242c-.213.292-.5.523-.689.821a3.359,3.359,0,0,0-.4,1.525l-.564,5.6c-1.443-.272-.8-2.775-2.08-3.47-.266-.146-.584-.187-.862-.324-.616-.292-.856-1.008-1.168-1.6s-.905-1.206-1.58-1.046-.9.932-1.39,1.382a2.791,2.791,0,0,1-2.532.342,10.745,10.745,0,0,0-2.594-.584c-2.1.035-3.429,2.08-4.381,3.858a2.89,2.89,0,0,1-.809,1.06,1.944,1.944,0,0,1-2.8-1.379c-.1-.669.111-1.414-.275-1.98s-1.221-.686-1.872-.99c-1.665-.765-2.179-2.842-1.9-4.583.2-1.256.7-2.547.292-3.756-.143-.418-.386-.8-.517-1.215a3.294,3.294,0,0,1,1.168-3.3,9.5,9.5,0,0,1,3.376-1.694,38.811,38.811,0,0,1,9.668-2.261c1.446-.093,3.341-.546,4.489.356A15.948,15.948,0,0,0,385.626,149.849Z" transform="translate(-286.647 -114.399)" fill="#585268"/>
    <circle id="Ellipse_178" data-name="Ellipse 178" cx="0.57" cy="0.57" r="0.57" transform="translate(95.702 67.333)" opacity="0.1"/>
    <circle id="Ellipse_179" data-name="Ellipse 179" cx="0.57" cy="0.57" r="0.57" transform="translate(95.702 67.105)" fill="#444053"/>
    <circle id="Ellipse_180" data-name="Ellipse 180" cx="0.57" cy="0.57" r="0.57" transform="translate(99.344 103.071)" opacity="0.1"/>
    <circle id="Ellipse_181" data-name="Ellipse 181" cx="0.57" cy="0.57" r="0.57" transform="translate(99.344 102.843)" fill="#444053"/>
    <circle id="Ellipse_182" data-name="Ellipse 182" cx="0.57" cy="0.57" r="0.57" transform="translate(97.41 112.517)" opacity="0.1"/>
    <circle id="Ellipse_183" data-name="Ellipse 183" cx="0.57" cy="0.57" r="0.57" transform="translate(97.41 112.289)" fill="#444053"/>
    <path id="Path_1019" data-name="Path 1019" d="M368.9,299.24s-1.253,8.5,0,9.98S368.9,299.24,368.9,299.24Z" transform="translate(-290.481 -222.345)" opacity="0.1"/>
    <path id="Path_1020" data-name="Path 1020" d="M489.7,353.28s2.389,5.149,0,10.085-3.87,6.943-3.073,10.094S489.7,353.28,489.7,353.28Z" transform="translate(-374.06 -260.601)" opacity="0.1"/>
    <path id="Path_1021" data-name="Path 1021" d="M107.805,660.658c3.528,2.389,8.879,1.25,8.879,1.25s8.079-3.867,10.471-3.867,8.184-2.392,8.184-2.392l-.2-1.609c-2.357.453-7.72,1.536-8.339,2.065-.8.684-10.585,3.984-10.585,3.984s-6.665-.832-8.52-3.572C106.482,657.784,105.959,659.408,107.805,660.658Z" transform="translate(-105.185 -473.516)" opacity="0.1"/>
    <g id="Group_845" data-name="Group 845" transform="translate(76.285 38.388)" opacity="0.1">
      <path id="Path_1022" data-name="Path 1022" d="M450.28,167.771v.055A.176.176,0,0,0,450.28,167.771Z" transform="translate(-424.77 -167.4)"/>
      <path id="Path_1023" data-name="Path 1023" d="M365.807,191.145c.651.292,1.46.409,1.872.987s.175,1.311.275,1.98a1.944,1.944,0,0,0,2.8,1.379,2.889,2.889,0,0,0,.809-1.06c.955-1.779,2.287-3.823,4.381-3.858a10,10,0,0,1,2.6.584,2.772,2.772,0,0,0,2.532-.342c.494-.45.727-1.224,1.39-1.382s1.273.45,1.58,1.046.546,1.3,1.168,1.606c.275.134.584.175.862.321,1.279.7.637,3.213,2.08,3.47q.292-2.8.564-5.6a3.347,3.347,0,0,1,.4-1.507c.193-.292.476-.537.689-.824a2.509,2.509,0,0,0,.467-1.2,2.921,2.921,0,0,1-.467,2.115c-.213.292-.5.523-.689.821a3.359,3.359,0,0,0-.4,1.522q-.292,2.8-.564,5.6c-1.443-.272-.8-2.775-2.08-3.47-.266-.146-.584-.187-.862-.324-.616-.292-.856-1.008-1.168-1.6s-.905-1.206-1.58-1.046-.9.932-1.39,1.382a2.791,2.791,0,0,1-2.532.342,10.738,10.738,0,0,0-2.6-.584c-2.094.035-3.426,2.08-4.381,3.858a2.888,2.888,0,0,1-.809,1.06,1.944,1.944,0,0,1-2.8-1.379c-.1-.669.111-1.414-.275-1.98s-1.221-.686-1.872-.99a4.034,4.034,0,0,1-1.954-4.13A3.728,3.728,0,0,0,365.807,191.145Z" transform="translate(-363.57 -181.091)"/>
      <path id="Path_1024" data-name="Path 1024" d="M363.049,168.435c.131.418.374.8.517,1.215a3.506,3.506,0,0,1,.129,1.5,2.925,2.925,0,0,0-.129-.584c-.143-.418-.386-.8-.517-1.215a2.564,2.564,0,0,1-.067-1.189A2.384,2.384,0,0,0,363.049,168.435Z" transform="translate(-362.941 -167.938)"/>
    </g>
    <path id="Path_1025" data-name="Path 1025" d="M524.374,453.825l-23.46-2.935a.9.9,0,0,1-.534-1.513l9.84-10.223a.894.894,0,0,1,.748-.269L528.9,440.9a.9.9,0,0,1,.736,1.215l-4.317,11.154A.9.9,0,0,1,524.374,453.825Z" transform="translate(-383.774 -321.199)" fill="#746d83"/>
    <path id="Path_1026" data-name="Path 1026" d="M524.374,453.825l-23.46-2.935a.9.9,0,0,1-.534-1.513l9.84-10.223a.894.894,0,0,1,.748-.269L528.9,440.9a.9.9,0,0,1,.736,1.215l-4.317,11.154A.9.9,0,0,1,524.374,453.825Z" transform="translate(-383.774 -321.199)" opacity="0.1"/>
    <path id="Path_1027" data-name="Path 1027" d="M523.472,452.885l-23.457-2.947a.9.9,0,0,1-.534-1.516l9.84-10.223a.905.905,0,0,1,.748-.272L528,439.937a.9.9,0,0,1,.739,1.218l-4.32,11.154A.9.9,0,0,1,523.472,452.885Z" transform="translate(-383.138 -320.521)" fill="#746d83"/>
    <path id="Path_1028" data-name="Path 1028" d="M530.255,437.119l7.045.567,10.047-.654h-.172l-9.308-.9c-2.132-.783-.654-5.392-.654-5.392l-7.13.362-.57.029C526.993,437.031,530.255,437.119,530.255,437.119Z" transform="translate(-403.9 -315.437)" fill="#d1d9ec"/>
    <path id="Path_1029" data-name="Path 1029" d="M530.255,438l7.045.567,10.047-.654h-.172l-10.158.362-6.805-.739c-1.934-.508-.827-3.861-.129-5.549l-.57.029C526.993,437.916,530.255,438,530.255,438Z" transform="translate(-403.9 -316.322)" opacity="0.1"/>
    <path id="Path_1030" data-name="Path 1030" d="M492.087,303.688l2.156,30.916.292,4.057a1.752,1.752,0,0,0,1.77,1.639h.654l32.45-.2a.914.914,0,0,0,.9-1l-.292-4.06-2.284-27.186a1.866,1.866,0,0,0-1.247-1.577l-30.928-4.638a2.908,2.908,0,0,0-2.792.321A1.963,1.963,0,0,0,492.087,303.688Z" transform="translate(-378.072 -223.899)" fill="#4c4c56"/>
    <path id="Path_1031" data-name="Path 1031" d="M499.5,415l.292,4.057a1.753,1.753,0,0,0,1.77,1.639h.654l32.45-.2a.914.914,0,0,0,.9-1l-.292-4.06Z" transform="translate(-383.329 -304.294)" fill="#dfe6f5"/>
    <ellipse id="Ellipse_184" data-name="Ellipse 184" cx="0.435" cy="0.87" rx="0.435" ry="0.87" transform="translate(137.489 113.2)" fill="#fff"/>
    <path id="Path_1032" data-name="Path 1032" d="M542.254,461.763s-8.873-3.35-11.265-.914c0,0-.392.742,1.218.914l6.5.523S541.383,462.546,542.254,461.763Z" transform="translate(-405.591 -336.123)" fill="#ffb300"/>
    <path id="Path_1033" data-name="Path 1033" d="M543.768,459.642c-1.752-.713-6.989-2.556-10.348-.517,0,0,3.715-.412,5.757.768a7.911,7.911,0,0,0,4.828.619l.041-.073a.564.564,0,0,0-.278-.8Z" transform="translate(-407.342 -334.872)" fill="#ffb300"/>
    <path id="Path_1034" data-name="Path 1034" d="M492.088,304.98l2.436,34.979a1.753,1.753,0,0,0,1.77,1.639h.654a6.238,6.238,0,0,1-1.133-1.46s-2.392-35.149-2.567-36.019a1.781,1.781,0,0,0-.482-.859,1.963,1.963,0,0,0-.678,1.72Z" transform="translate(-378.073 -225.191)" fill="#dfe6f5"/>
    <path id="Path_1035" data-name="Path 1035" d="M492.088,304.98l2.436,34.979a1.753,1.753,0,0,0,1.77,1.639h.654a6.238,6.238,0,0,1-1.133-1.46s-2.392-35.149-2.567-36.019a1.781,1.781,0,0,0-.482-.859,1.963,1.963,0,0,0-.678,1.72Z" transform="translate(-378.073 -225.191)" opacity="0.1"/>
    <path id="Path_1036" data-name="Path 1036" d="M443.684,314.8c2.629-.584,8.762-2.383,8.762-2.383l1.1-.222c-.015-3.82-.2-7.521-.275-8.762h-.026s-5.237,1.709-6.487,2.629-5.123.681-5.123.681a17.428,17.428,0,0,0-11.032,5.912C425.6,318.238,441.067,315.373,443.684,314.8Z" transform="translate(-333.855 -225.311)" opacity="0.1"/>
    <path id="Path_1037" data-name="Path 1037" d="M469.239,299.923a1.522,1.522,0,0,1,.342,2.553,11.105,11.105,0,0,1-5.345,2.713c-3.213.324-10.982,1.881-11.753,2.045a.935.935,0,0,0-.123.029c-.64.187-6.236,1.826-8.7,2.366-2.629.584-18.109,3.42-13.088-2.156a17.621,17.621,0,0,1,10.93-5.909,1.169,1.169,0,0,1,.2,0c.584.026,3.891.14,5.033-.686a10.755,10.755,0,0,1,1.881-.938,35.98,35.98,0,0,1,7.7-2.22l5.354-.935a1.536,1.536,0,0,1,.9.117Z" transform="translate(-333.827 -220.592)" fill="#ffc79b"/>
    <path id="Path_1038" data-name="Path 1038" d="M507.309,256.088l2.5-.228s2.734,2.045,4.781,2.045,3.3,2.629,3.3,2.629a36.757,36.757,0,0,0,4.554,1.823c1.139.228,3.073,1.364,2.5,1.82s.114,1.481,1.139,2.275,2.629,4.9,1.25,5.465-5.12,1.706-6.134,2.275a2.824,2.824,0,0,1-2.275,0s-6.04-7.86-9.116-6.379a19.683,19.683,0,0,1-7.284,1.478l-3.3-6.94Z" transform="translate(-383.138 -191.635)" fill="#114c9a"/>
    <path id="Path_1039" data-name="Path 1039" d="M995.869,741.366a4.919,4.919,0,0,0-.663,1.253c-.044.108-.082.234-.123.353a1.348,1.348,0,0,0-.231-.082,3.208,3.208,0,0,0-1.043-.088,3.11,3.11,0,0,1,.021-.429c.041-1.539-.14-3.683-1.606-2.775-1.411.876-.406,2.337.5,3.271l.234.231c-.826.584-.984,1.966-1.124,3.4a7.968,7.968,0,0,1-2.161,3.893c-.082.094-.158.172-.228.248a2.965,2.965,0,0,0-2.337-.6l-.108-.394c-.654-2.363-2.012-6.455-3.744-7.352.073-.091.149-.184.228-.292.736-.961,1.563-2.392.339-2.757s-1.332,1.241-1.265,2.442a2.511,2.511,0,0,0,.035.429,1.8,1.8,0,0,0-1.282.625l-.187-.225c-.993-1.168-2.816-3.029-3.365-1.624-.514,1.308,1.089,3.008,2.217,3.993l.07.061c-.759,3.07,2.547,5.573,4.326,6.668l.228.14c-2.453,2.891-3.966,8.313-3.966,8.313l6.87,1.227s4.553-3.931,3.972-7.623h.047c4.551-.911,5.588-5.766,4.878-8.645l.082-.035a5.166,5.166,0,0,0,2.106-1.595A1.7,1.7,0,0,0,995.869,741.366Z" transform="translate(-721.831 -533.795)" fill="#6c63ff"/>
    <path id="Path_1040" data-name="Path 1040" d="M995.869,741.366a4.919,4.919,0,0,0-.663,1.253c-.044.108-.082.234-.123.353a1.348,1.348,0,0,0-.231-.082,3.208,3.208,0,0,0-1.043-.088,3.11,3.11,0,0,1,.021-.429c.041-1.539-.14-3.683-1.606-2.775-1.411.876-.406,2.337.5,3.271l.234.231c-.826.584-.984,1.966-1.124,3.4a7.968,7.968,0,0,1-2.161,3.893c-.082.094-.158.172-.228.248a2.965,2.965,0,0,0-2.337-.6l-.108-.394c-.654-2.363-2.012-6.455-3.744-7.352.073-.091.149-.184.228-.292.736-.961,1.563-2.392.339-2.757s-1.332,1.241-1.265,2.442a2.511,2.511,0,0,0,.035.429,1.8,1.8,0,0,0-1.282.625l-.187-.225c-.993-1.168-2.816-3.029-3.365-1.624-.514,1.308,1.089,3.008,2.217,3.993l.07.061c-.759,3.07,2.547,5.573,4.326,6.668l.228.14c-2.453,2.891-3.966,8.313-3.966,8.313l6.87,1.227s4.553-3.931,3.972-7.623h.047c4.551-.911,5.588-5.766,4.878-8.645l.082-.035a5.166,5.166,0,0,0,2.106-1.595A1.7,1.7,0,0,0,995.869,741.366Z" transform="translate(-721.831 -533.795)" fill="#119a4c" opacity="0.81"/>
    <path id="Path_1041" data-name="Path 1041" d="M983.168,746.251l-.8,2.351s-.444-.315-1.008-.812c-1.127-.984-2.731-2.684-2.217-3.993.549-1.4,2.372.45,3.365,1.624C982.905,745.889,983.168,746.251,983.168,746.251Z" transform="translate(-722.808 -536.701)" fill="#17c261"/>
    <path id="Path_1042" data-name="Path 1042" d="M996.707,742.027a11.116,11.116,0,0,1-.789.929,11.461,11.461,0,0,1-.143-1.238c-.067-1.2.058-2.8,1.265-2.442S997.437,741.066,996.707,742.027Z" transform="translate(-734.644 -533.82)" fill="#17c261"/>
    <path id="Path_1043" data-name="Path 1043" d="M1028.856,742.839c-.026.774-.1,1.393-.1,1.393a10.114,10.114,0,0,1-1-.9c-.909-.94-1.913-2.4-.5-3.271C1028.724,739.156,1028.9,741.3,1028.856,742.839Z" transform="translate(-756.439 -534.261)" fill="#17c261"/>
    <path id="Path_1044" data-name="Path 1044" d="M1041.579,747.04a5.168,5.168,0,0,1-2.106,1.595,5.7,5.7,0,0,1-.707.257l-.946-1.329a9.431,9.431,0,0,1,.391-1.291,4.928,4.928,0,0,1,.663-1.253A1.689,1.689,0,0,1,1041.579,747.04Z" transform="translate(-764.419 -537.448)" fill="#17c261"/>
    <path id="Path_1045" data-name="Path 1045" d="M988.118,750.58c.4.467.663.829.663.829l-.8,2.351s-.444-.315-1.008-.812a4.583,4.583,0,0,1,.9-2.065C987.954,750.773,988.039,750.674,988.118,750.58Z" transform="translate(-728.421 -541.859)" opacity="0.1"/>
    <path id="Path_1046" data-name="Path 1046" d="M996.742,748.07a11.07,11.07,0,0,1-.789.929,11.462,11.462,0,0,1-.143-1.238,1.621,1.621,0,0,1,.932.31Z" transform="translate(-734.679 -539.862)" opacity="0.1"/>
    <path id="Path_1047" data-name="Path 1047" d="M994.309,758.411l-2,.876a12.061,12.061,0,0,1-1.063-.6c-2.1-1.291-6.323-4.542-3.5-8.374s5.19,3.04,6.134,6.4C994.163,757.722,994.309,758.411,994.309,758.411Z" transform="translate(-728.303 -540.869)" fill="#17c261"/>
    <path id="Path_1048" data-name="Path 1048" d="M1030.67,750.587a1.655,1.655,0,0,1,1.1-.5c-.026.774-.1,1.393-.1,1.393A10.127,10.127,0,0,1,1030.67,750.587Z" transform="translate(-759.357 -541.512)" opacity="0.1"/>
    <path id="Path_1049" data-name="Path 1049" d="M1039.473,753.273a5.668,5.668,0,0,1-.707.257l-.946-1.329a9.419,9.419,0,0,1,.391-1.291A3.429,3.429,0,0,1,1039.473,753.273Z" transform="translate(-764.419 -542.093)" opacity="0.1"/>
    <path id="Path_1050" data-name="Path 1050" d="M1016.764,762.377c-.111.023-.222.044-.336.061-6.7,1.016-2.208-2.6-2.208-2.6s.292-.277.71-.733a7.844,7.844,0,0,0,2.161-3.893c.21-2.17.456-4.206,3.017-3.61C1022.624,752.2,1023.1,761.109,1016.764,762.377Z" transform="translate(-746.669 -542.51)" fill="#17c261"/>
    <rect id="Rectangle_525" data-name="Rectangle 525" width="12.796" height="3.365" transform="translate(257.174 236.541)" fill="#d4dfec"/>
    <rect id="Rectangle_526" data-name="Rectangle 526" width="16.718" height="11.741" transform="translate(255.141 225.606)" fill="#d4dfec"/>
    <rect id="Rectangle_527" data-name="Rectangle 527" width="12.796" height="3.365" transform="translate(257.174 236.541)" opacity="0.1"/>
    <rect id="Rectangle_528" data-name="Rectangle 528" width="16.718" height="11.741" transform="translate(255.141 225.606)" opacity="0.1"/>
    <rect id="Rectangle_529" data-name="Rectangle 529" width="12.796" height="3.365" transform="translate(258.015 236.541)" fill="#d4dfec"/>
    <path id="Path_1051" data-name="Path 1051" d="M1004.629,775c.292,1,.432,1.694.432,1.694l-2,.876a12.061,12.061,0,0,1-1.063-.6A5.112,5.112,0,0,1,1004.629,775Z" transform="translate(-739.061 -559.146)" opacity="0.1"/>
    <path id="Path_1052" data-name="Path 1052" d="M1016.764,780.818c-.111.023-.222.044-.336.061-6.7,1.016-2.208-2.6-2.208-2.6s.292-.278.71-.733A4.444,4.444,0,0,1,1016.764,780.818Z" transform="translate(-746.669 -560.951)" opacity="0.1"/>
    <path id="Path_1053" data-name="Path 1053" d="M989.22,786.232s3.75-13.436,9.008-9.288-2.138,10.515-2.138,10.515Z" transform="translate(-730.014 -559.96)" fill="#17c261"/>
    <circle id="Ellipse_185" data-name="Ellipse 185" cx="0.421" cy="0.421" r="0.421" transform="translate(260.678 211.128)" opacity="0.1"/>
    <circle id="Ellipse_186" data-name="Ellipse 186" cx="0.421" cy="0.421" r="0.421" transform="translate(260.643 213.091)" opacity="0.1"/>
    <circle id="Ellipse_187" data-name="Ellipse 187" cx="0.421" cy="0.421" r="0.421" transform="translate(272.841 211.513)" opacity="0.1"/>
    <circle id="Ellipse_188" data-name="Ellipse 188" cx="0.421" cy="0.421" r="0.421" transform="translate(263.027 221.575)" opacity="0.1"/>
    <circle id="Ellipse_189" data-name="Ellipse 189" cx="0.421" cy="0.421" r="0.421" transform="translate(271.964 214.773)" opacity="0.1"/>
    <circle id="Ellipse_190" data-name="Ellipse 190" cx="0.421" cy="0.421" r="0.421" transform="translate(267.618 219.122)" opacity="0.1"/>
    <circle id="Ellipse_191" data-name="Ellipse 191" cx="0.421" cy="0.421" r="0.421" transform="translate(262.115 211.969)" opacity="0.1"/>
    <circle id="Ellipse_192" data-name="Ellipse 192" cx="0.421" cy="0.421" r="0.421" transform="translate(271.684 212.775)" opacity="0.1"/>
    <circle id="Ellipse_193" data-name="Ellipse 193" cx="0.421" cy="0.421" r="0.421" transform="translate(270.247 216.035)" opacity="0.1"/>
    <circle id="Ellipse_194" data-name="Ellipse 194" cx="0.421" cy="0.421" r="0.421" transform="translate(265.831 221.26)" opacity="0.1"/>
    <circle id="Ellipse_195" data-name="Ellipse 195" cx="0.421" cy="0.421" r="0.421" transform="translate(264.919 219.192)" opacity="0.1"/>
    <circle id="Ellipse_196" data-name="Ellipse 196" cx="0.421" cy="0.421" r="0.421" transform="translate(262.746 214.528)" opacity="0.1"/>
    <rect id="Rectangle_530" data-name="Rectangle 530" width="12.796" height="1.23" transform="translate(258.015 236.541)" opacity="0.1"/>
    <rect id="Rectangle_531" data-name="Rectangle 531" width="16.718" height="11.741" transform="translate(255.982 225.606)" fill="#d4dfec"/>
    <circle id="Ellipse_197" data-name="Ellipse 197" cx="0.421" cy="0.421" r="0.421" transform="translate(266.391 223.153)" opacity="0.1"/>
    <circle id="Ellipse_198" data-name="Ellipse 198" cx="0.421" cy="0.421" r="0.421" transform="translate(263.868 223.678)" opacity="0.1"/>
  </g>
</svg>
