<svg xmlns="http://www.w3.org/2000/svg" width="268.559" height="236.177" viewBox="0 0 268.559 236.177">
  <g id="Group_850" data-name="Group 850" transform="translate(0)">
    <path id="Path_1079" data-name="Path 1079" d="M368.088,277.346c-19.637,16.383-31.914,33.16-41.573,48.015-17.413,26.772-26.329,47.31-54.526,48.084-30.092.826-68.167-16.6-89.13-39.55-16-17.514-22.036-38.244-6.969-56.548,34.814-42.295,43.025-96.1,96.1-96.1S408.844,243.349,368.088,277.346Z" transform="translate(-152.792 -137.583)" fill="#f2f2f2"/>
    <circle id="Ellipse_219" data-name="Ellipse 219" cx="15.628" cy="15.628" r="15.628" transform="translate(152.236 65.703)" fill="#ffa000"/>
    <path id="Path_1080" data-name="Path 1080" d="M186.848,371.244c9.112,26.218-3.293,40.789-22.519,47.471s-37.994,2.944-47.106-23.274,14.109-71.67,14.109-71.67S177.736,345.025,186.848,371.244Z" transform="translate(-115.103 -240.638)" fill="#119a4c"/>
    <path id="Path_1081" data-name="Path 1081" d="M78.8,391.7l-7.269-22.066,5.4-32.3-6.544,28.841-3.269-9.922,3.4-23.194-4.265,20.568h0l-5.879-17.845,5.517-19.441-6.441,16.635-11.128-32.6,13.838,43.467-.524-1.809L44.583,328.861l18.063,16.645,5.85,20.178-.214-.515L49.215,351.7l19.675,15.345.732,2.523-.01.045.081.2L84.535,421l3.516-1.222-8.6-26.117,5.9-24.18Z" transform="translate(-32.237 -217.195)" fill="#3f3d56"/>
    <path id="Path_1082" data-name="Path 1082" d="M383.3,403.761l.377-23.229,15.709-28.738-15.65,25.094.17-10.445,10.826-20.792-10.781,18.028h0l.305-18.786,11.593-16.553-11.545,13.6.191-34.446-1.2,45.6.1-1.881-11.787-18.042,11.6,21.653-1.1,20.981-.033-.557L368.49,356.261l13.547,20.953-.137,2.624-.025.04.011.215L379.1,433.322h3.723l.446-27.494,13.514-20.9Z" transform="translate(-266.446 -222.341)" fill="#3f3d56"/>
    <path id="Path_1083" data-name="Path 1083" d="M367.334,671.981c-17.413,26.772-26.329,47.31-54.526,48.084-30.092.826-68.167-16.6-89.13-39.55,16.466-10.059,45.33-20.3,79.347-20.3A186.185,186.185,0,0,1,367.334,671.981Z" transform="translate(-193.612 -483.916)" fill="#3f3d56"/>
    <path id="Path_1084" data-name="Path 1084" d="M406.46,298.066s3.124,2.234,4.562-2.082.863-4.6.863-4.6h-3.453Z" transform="translate(-325.776 -217.217)" fill="#6c63ff"/>
    <path id="Path_1085" data-name="Path 1085" d="M406.46,298.066s3.124,2.234,4.562-2.082.863-4.6.863-4.6h-3.453Z" transform="translate(-325.776 -217.217)" opacity="0.1"/>
    <circle id="Ellipse_220" data-name="Ellipse 220" cx="15.755" cy="15.755" r="15.755" transform="translate(73.329 6.623)" fill="#2f2e41"/>
    <path id="Path_1086" data-name="Path 1086" d="M271.284,233.259l-.7,12.409,9.9.279-1.673-19.1-6-.279Z" transform="translate(-195.655 -163.825)" fill="#6c63ff"/>
    <path id="Path_1087" data-name="Path 1087" d="M271.284,233.259l-.7,12.409,9.9.279-1.673-19.1-6-.279Z" transform="translate(-195.655 -163.825)" fill="#ffb300" opacity="0.72"/>
    <path id="Path_1088" data-name="Path 1088" d="M379.145,426.356l7.808,30.534s.7,17.428,5.3,26.491,3.9,11.572,3.9,11.572l4.043-1.534s-1.673-19.8-1.673-22.169-1.673-9.9-1.673-9.9a43.572,43.572,0,0,0-1.115-17.707,24.247,24.247,0,0,1,1.115-16.313Z" transform="translate(-306.025 -314.815)" fill="#a0616a"/>
    <path id="Path_1089" data-name="Path 1089" d="M451.646,435.3s5.159,19.52,4.6,22.169,4.183,13.106,4.183,13.106,1.952,14.779,2.51,16.731,4.462,15.476,4.462,15.476l5.438-1.115s-1.255-33.6-4.043-41.967l-.976-25.794Z" transform="translate(-358.449 -320.276)" fill="#a0616a"/>
    <path id="Path_1090" data-name="Path 1090" d="M426,652.357s-1.673-1.394-1.673-.976.837,5.3.837,5.3-.7,2.788-.837,4.043c0,0-3.486,2.091-3.625,4.741s-.558,4.6,0,4.74,9.481,1.115,9.62-.279a16.007,16.007,0,0,0,0-2.789h.558v.279s1.394-.418,1.534-.836,0-5.3,0-5.3a17.652,17.652,0,0,0-.7-4.462l-.418-6.414s-4.043,1.115-4.043,1.673S426,652.357,426,652.357Z" transform="translate(-335.87 -476.82)" fill="#2f2e41"/>
    <path id="Path_1091" data-name="Path 1091" d="M506.17,666.552s0-.836-2.37,0-3.486,1.673-3.346,2.37,1.394,5.577,1.394,5.577-1.115,5.3-.279,7.25.558,1.952.558,1.952,16.731-5.438,16.452-6.274-.976-3.765-2.788-3.9-3.9,1.534-4.74-.558-1.813-2.649-2.649-5.159c0,0-.279-1.952-.418-1.813S506.449,666.831,506.17,666.552Z" transform="translate(-393.733 -488.087)" fill="#2f2e41"/>
    <path id="Path_1092" data-name="Path 1092" d="M417.766,140.231s4.88,7.668,1.394,9.342-3.764.976-3.764.976L417.627,167l6.971,4.74,9.76-9.481.279-.418.976-11.294-1.255-2.37s-5.019.7-5.438-3.486-.976-6.832-.976-6.832Z" transform="translate(-332.237 -106.211)" fill="#a0616a"/>
    <path id="Path_1093" data-name="Path 1093" d="M417.766,140.231s4.88,7.668,1.394,9.342-3.764.976-3.764.976L417.627,167l6.971,4.74,9.76-9.481.279-.418.976-11.294-1.255-2.37s-5.019.7-5.438-3.486-.976-6.832-.976-6.832Z" transform="translate(-332.237 -106.211)" opacity="0.1"/>
    <circle id="Ellipse_221" data-name="Ellipse 221" cx="9.481" cy="9.481" r="9.481" transform="translate(80.091 16.87)" fill="#a0616a"/>
    <path id="Path_1094" data-name="Path 1094" d="M382.578,195.869s-7.273-17.674-7.97-17.674-4.316,2.589-4.316,2.589l-2.075,21.5s3.067,11.154.837,12.827-13.385,25.654-11.572,28.164,12.967,9.76,19.659,9.2,24.121-2.231,24.26-3.9-5.019-30.953-5.716-31.371.976-7.947.976-7.947l-1.116-28.722-1.673-3.9-5.019,14.64Z" transform="translate(-290.218 -134.243)" fill="#2f2e41"/>
    <path id="Path_1095" data-name="Path 1095" d="M388.542,177.391c2.865-2.631,1.884-2.752-.77-1.152-2.51,1.513-10.39-.206-11.283,1.582-1.115,2.231-1.813,22.866-1.394,23.424s-1.813,21.472-.976,21.751,2.37-1.673,3.067-3.207,6.832-30.116,6.832-30.116Z" transform="translate(-302.254 -133.205)" fill="#ffb300"/>
    <path id="Path_1096" data-name="Path 1096" d="M471.176,173.315c-3.669-1.778-2.164-1.877,1.171-.83,2.638.828,9.163,2.531,10.156,2.752a5.427,5.427,0,0,1,2.789,2.928c-.139.279-1.394,14.5-1.394,14.5a24.05,24.05,0,0,0,1.673,3.067c.418.418,6.693,18.265,5.3,19.659s-12.827,4.6-13.8,3.207-.976-9.76-3.346-11.294-6.274-19.938-4.322-25.654C470.71,177.8,472.553,173.982,471.176,173.315Z" transform="translate(-370.902 -130.761)" fill="#ffb300"/>
    <path id="Path_1097" data-name="Path 1097" d="M501.1,312.275l-6.411,4.307s-8.926,1.41-8.368-3.61,8.087-5.438,8.087-5.438l3.765.279Z" transform="translate(-383.504 -228.898)" fill="#a0616a"/>
    <path id="Path_1098" data-name="Path 1098" d="M352.46,295.66l6.411,4.307s8.926,1.41,8.368-3.609-8.087-5.438-8.087-5.438l-3.764.279Z" transform="translate(-286.73 -216.884)" fill="#a0616a"/>
    <path id="Path_1099" data-name="Path 1099" d="M359.865,184.181a30.4,30.4,0,0,0-6.832,12.27c-2.091,7.529-4.6,9.76-4.6,11.294s.418,13.385,1.394,13.524.418-7.25,5.717-6.971c0,0-.558-.976,0-1.394s.7-.7.418-.976a1.465,1.465,0,0,1,0-1.673,7.655,7.655,0,0,0,.7-2.51l1.115-.418Z" transform="translate(-283.818 -139.704)" fill="#ffb300"/>
    <ellipse id="Ellipse_222" data-name="Ellipse 222" cx="11.572" cy="4.74" rx="11.572" ry="4.74" transform="translate(78.627 14.709)" fill="#2f2e41"/>
    <path id="Path_1100" data-name="Path 1100" d="M522.507,191.23s18.544,20.217,17.568,22.308-13.245,18.265-13.664,17.986-3.625-8.366-5.019-8.366c0,0,4.858-1.077,5.636-2.281s4.682-6.084,2.73-7.339-8.366-8.226-8.784-8.505S522.507,191.23,522.507,191.23Z" transform="translate(-408.535 -144.801)" fill="#ffb300"/>
    <circle id="Ellipse_223" data-name="Ellipse 223" cx="6.618" cy="6.618" r="6.618" transform="translate(82.426 0)" fill="#2f2e41"/>
    <rect id="Rectangle_574" data-name="Rectangle 574" width="108" height="21.323" transform="translate(160.559 34.616)" fill="#3f3d56"/>
    <rect id="Rectangle_575" data-name="Rectangle 575" width="108" height="21.323" transform="translate(160.559 59.539)" fill="#3f3d56"/>
    <circle id="Ellipse_224" data-name="Ellipse 224" cx="6.369" cy="6.369" r="6.369" transform="translate(165.544 38.769)" fill="#0059cf"/>
    <rect id="Rectangle_576" data-name="Rectangle 576" width="62.862" height="1.385" transform="translate(187.144 42.646)" fill="#0059cf"/>
    <rect id="Rectangle_577" data-name="Rectangle 577" width="62.862" height="1.385" transform="translate(187.144 46.246)" fill="#0059cf"/>
    <circle id="Ellipse_225" data-name="Ellipse 225" cx="6.369" cy="6.369" r="6.369" transform="translate(165.544 63.969)" fill="#0059cf" opacity="0.3"/>
    <rect id="Rectangle_578" data-name="Rectangle 578" width="62.862" height="1.385" transform="translate(187.144 67.846)" fill="#0059cf" opacity="0.3"/>
    <rect id="Rectangle_579" data-name="Rectangle 579" width="62.862" height="1.385" transform="translate(187.144 71.446)" fill="#0059cf" opacity="0.3"/>
    <path id="Path_1101" data-name="Path 1101" d="M647.334,610.919c-.056-.325-1.344-7.99,1.078-11.1a3.181,3.181,0,0,1,2.343-1.278,3.487,3.487,0,0,1,2.67.929c2.912,2.6,3.2,9.691,3.214,9.991l-.4.015c0-.072-.3-7.219-3.079-9.7a3.092,3.092,0,0,0-2.369-.827,2.791,2.791,0,0,0-2.055,1.123c-2.312,2.969-1.012,10.705-1,10.783Z" transform="translate(-499.663 -439.309)" fill="#2f2e41"/>
    <path id="Path_1102" data-name="Path 1102" d="M483.1,599.261l-1.012-1.214L510.218,594v1.417l7.083-.607L514.873,619.9l-28.534-.4Z" transform="translate(-348.587 -429.506)" fill="#2f2e41"/>
    <path id="Path_1103" data-name="Path 1103" d="M483.1,599.261l-1.012-1.214L510.218,594v1.417l7.083-.607L514.873,619.9l-28.534-.4Z" transform="translate(-348.587 -429.506)" fill="#fff" opacity="0.05"/>
    <path id="Path_1104" data-name="Path 1104" d="M516.728,623.168l-26.292,11.039-.219.091L479.9,629.037l.506-29.242,8.7.607-1.012,1.214.218-.04,27.3-5.019Z" transform="translate(-347.002 -431.356)" fill="#2f2e41"/>
    <path id="Path_1105" data-name="Path 1105" d="M490.436,642.662l-10.539-5.17.506-29.242,8.7.607-1.012,1.214.218-.04-.117.142Z" transform="translate(-347.002 -439.81)" opacity="0.1"/>
    <path id="Path_1106" data-name="Path 1106" d="M662.693,611.415s-2.024-11.737,3.238-12.142S671.6,610,671.6,610" transform="translate(-510.776 -439.839)" fill="none" stroke="#2f2e41" stroke-miterlimit="10" stroke-width="2"/>
  </g>
</svg>
