<svg xmlns="http://www.w3.org/2000/svg" xmlns:xlink="http://www.w3.org/1999/xlink" width="289.057" height="207.704" viewBox="0 0 289.057 207.704">
  <defs>
    <linearGradient id="linear-gradient" x1="0.5" y1="1" x2="0.5" gradientUnits="objectBoundingBox">
      <stop offset="0" stop-color="gray" stop-opacity="0.251"/>
      <stop offset="0.54" stop-color="gray" stop-opacity="0.122"/>
      <stop offset="1" stop-color="gray" stop-opacity="0.102"/>
    </linearGradient>
    <linearGradient id="linear-gradient-5" x1="0.503" y1="1.334" x2="0.503" y2="0.334" xlink:href="#linear-gradient"/>
    <linearGradient id="linear-gradient-6" x1="0.193" y1="0.692" x2="0.193" y2="0.203" xlink:href="#linear-gradient"/>
    <linearGradient id="linear-gradient-9" x1="0.5" x2="0.5" y2="0" xlink:href="#linear-gradient"/>
    <linearGradient id="linear-gradient-11" x1="0.5" x2="0.5" y2="0" xlink:href="#linear-gradient"/>
    <linearGradient id="linear-gradient-13" x1="0.5" x2="0.5" y2="0" xlink:href="#linear-gradient"/>
    <linearGradient id="linear-gradient-14" x1="0.5" x2="0.5" y2="0" xlink:href="#linear-gradient"/>
  </defs>
  <g id="Group_874" data-name="Group 874" transform="translate(-42.576 -217.303)">
    <path id="Path_1054" data-name="Path 1054" d="M83.1,174.568c-4,1.307-7.733,4.469-8.741,8.856-1.144,5.04,1.491,10.133,1.867,15.3,1.229,16.962-21.1,28.93-17.917,45.6,1.267,6.616,6.381,11.493,11.424,15.506,8.072,6.429,17.026,12.106,26.932,13.711,15.05,2.435,30.778-4.728,45.409-.2,11.8,3.651,20.829,14.354,32.548,18.3,8.922,3.008,18.53,1.821,27.807.605,4.989-.653,10.232-1.411,14.266-4.651,7.512-6.032,7.965-17.941,12.989-26.476,7.752-13.176,24.748-15.749,39-13.189s28.084,8.872,42.524,8.338a18.216,18.216,0,0,0,8.938-2.2c3.272-1.989,5.485-5.49,7.44-8.957a153.632,153.632,0,0,0,19.45-72.016c.083-4.37-.059-8.93-1.96-12.8-2.4-4.882-7.2-7.8-12-9.765-11.488-4.7-24.178-5.458-35.439-10.792-10.861-5.138-19.661-14.154-29.116-21.866a149.807,149.807,0,0,0-63.87-30.735c-5.432-1.133-11.069-1.944-16.466-.635-6.218,1.509-11.578,5.7-16.4,10.2-12.824,12-23.1,26.794-34.911,39.94a204.022,204.022,0,0,1-26.53,24.69c-4.381,3.405-9.021,7.448-13.893,9.965C92,173.608,87.807,173.029,83.1,174.568Z" transform="translate(-15.417 131.47)" fill="#ffb300" opacity="0.1"/>
    <g id="Group_849" data-name="Group 849" transform="translate(105.328 229.08)">
      <rect id="Rectangle_541" data-name="Rectangle 541" width="12.111" height="14.323" transform="translate(135.194 162.517)" fill="url(#linear-gradient)"/>
      <rect id="Rectangle_542" data-name="Rectangle 542" width="11.549" height="13.802" transform="translate(147.026 176.316) rotate(180)" fill="#dbdbdb"/>
      <rect id="Rectangle_543" data-name="Rectangle 543" width="12.111" height="14.323" transform="translate(16.618 162.517)" fill="url(#linear-gradient)"/>
      <rect id="Rectangle_544" data-name="Rectangle 544" width="11.549" height="13.802" transform="translate(16.9 162.517)" fill="#dbdbdb"/>
      <rect id="Rectangle_545" data-name="Rectangle 545" width="163.643" height="164.488" rx="14.86" fill="url(#linear-gradient)"/>
      <rect id="Rectangle_546" data-name="Rectangle 546" width="161.67" height="161.67" rx="14.86" transform="translate(1.127 0.844)" fill="#fafafa"/>
      <rect id="Rectangle_547" data-name="Rectangle 547" width="109.284" height="110.41" transform="translate(27.18 26.898)" fill="url(#linear-gradient)"/>
      <rect id="Rectangle_548" data-name="Rectangle 548" width="36.333" height="17.744" transform="translate(111.806 64.218) rotate(-14.86)" fill="url(#linear-gradient-5)"/>
      <rect id="Rectangle_549" data-name="Rectangle 549" width="35.771" height="17.182" transform="translate(112.149 64.419) rotate(-14.86)" fill="#fff"/>
      <rect id="Rectangle_550" data-name="Rectangle 550" width="33.426" height="16.056" transform="translate(113.429 64.661) rotate(-14.86)" fill="#69f0ae"/>
      <ellipse id="Ellipse_212" data-name="Ellipse 212" cx="6.195" cy="3.38" rx="6.195" ry="3.38" transform="translate(124.611 66.359) rotate(-14.86)" fill="#fff"/>
      <rect id="Rectangle_551" data-name="Rectangle 551" width="17.744" height="36.333" transform="translate(110.85 96.661) rotate(-71.04)" fill="url(#linear-gradient-6)"/>
      <rect id="Rectangle_552" data-name="Rectangle 552" width="35.771" height="17.182" transform="translate(116.79 80.237) rotate(18.96)" fill="#fff"/>
      <rect id="Rectangle_553" data-name="Rectangle 553" width="33.426" height="16.056" transform="translate(117.717 81.153) rotate(18.96)" fill="#69f0ae"/>
      <ellipse id="Ellipse_213" data-name="Ellipse 213" cx="3.38" cy="6.195" rx="3.38" ry="6.195" transform="translate(123.871 95.177) rotate(-71.04)" fill="#fff"/>
      <rect id="Rectangle_554" data-name="Rectangle 554" width="36.333" height="17.744" transform="translate(118.258 73.03)" fill="url(#linear-gradient)"/>
      <rect id="Rectangle_555" data-name="Rectangle 555" width="35.771" height="17.182" transform="translate(118.541 73.313)" fill="#fff"/>
      <rect id="Rectangle_556" data-name="Rectangle 556" width="33.426" height="16.056" transform="translate(119.713 73.875)" fill="#69f0ae"/>
      <ellipse id="Ellipse_214" data-name="Ellipse 214" cx="6.195" cy="3.38" rx="6.195" ry="3.38" transform="translate(130.09 78.381)" fill="#fff"/>
      <rect id="Rectangle_557" data-name="Rectangle 557" width="107.592" height="107.592" transform="translate(28.024 28.024)" fill="#e0e0e0"/>
      <circle id="Ellipse_215" data-name="Ellipse 215" cx="20.28" cy="20.28" r="20.28" transform="translate(61.542 61.542)" fill="url(#linear-gradient)"/>
      <circle id="Ellipse_216" data-name="Ellipse 216" cx="19.436" cy="19.436" r="19.436" transform="translate(62.386 62.386)" fill="#fafafa"/>
      <rect id="Rectangle_558" data-name="Rectangle 558" width="5.916" height="6.195" transform="translate(67.035 120.548)" fill="url(#linear-gradient-9)"/>
      <rect id="Rectangle_559" data-name="Rectangle 559" width="5.916" height="6.195" transform="translate(74.922 120.548)" fill="url(#linear-gradient-9)"/>
      <rect id="Rectangle_560" data-name="Rectangle 560" width="5.916" height="6.195" transform="translate(82.806 120.548)" fill="url(#linear-gradient-11)"/>
      <rect id="Rectangle_561" data-name="Rectangle 561" width="5.916" height="6.195" transform="translate(90.693 120.548)" fill="url(#linear-gradient-11)"/>
      <rect id="Rectangle_562" data-name="Rectangle 562" width="5.633" height="5.633" transform="translate(67.175 120.83)" fill="#ffb300"/>
      <rect id="Rectangle_563" data-name="Rectangle 563" width="5.633" height="5.633" transform="translate(75.062 120.83)" fill="#ffb913" opacity="0.7"/>
      <rect id="Rectangle_564" data-name="Rectangle 564" width="5.633" height="5.633" transform="translate(82.948 120.83)" fill="#ffbe26" opacity="0.5"/>
      <rect id="Rectangle_565" data-name="Rectangle 565" width="5.633" height="5.633" transform="translate(90.835 120.83)" fill="#ffb300" opacity="0.3"/>
      <rect id="Rectangle_566" data-name="Rectangle 566" width="1.127" height="3.942" transform="matrix(0.819, 0.574, -0.574, 0.819, 89.956, 69.466)" fill="#6c63ff"/>
      <rect id="Rectangle_567" data-name="Rectangle 567" width="1.127" height="3.942" transform="matrix(-0.574, 0.819, -0.819, -0.574, 94.177, 89.955)" fill="#6c63ff"/>
      <rect id="Rectangle_568" data-name="Rectangle 568" width="1.127" height="3.942" transform="matrix(-0.819, -0.574, 0.574, -0.819, 73.686, 94.176)" fill="#6c63ff"/>
      <rect id="Rectangle_569" data-name="Rectangle 569" width="1.127" height="3.942" transform="matrix(0.574, -0.819, 0.819, 0.574, 69.468, 73.687)" fill="#6c63ff"/>
      <rect id="Rectangle_570" data-name="Rectangle 570" width="1.127" height="3.942" transform="matrix(0.819, 0.574, -0.574, 0.819, 89.946, 69.433)" fill="#119a4c"/>
      <rect id="Rectangle_571" data-name="Rectangle 571" width="1.127" height="3.942" transform="matrix(-0.574, 0.819, -0.819, -0.574, 94.167, 89.923)" fill="#119a4c"/>
      <rect id="Rectangle_572" data-name="Rectangle 572" width="1.127" height="3.942" transform="matrix(-0.819, -0.574, 0.574, -0.819, 73.678, 94.142)" fill="#119a4c"/>
      <rect id="Rectangle_573" data-name="Rectangle 573" width="1.127" height="3.942" transform="matrix(0.574, -0.819, 0.819, 0.574, 69.459, 73.654)" fill="#119a4c"/>
      <circle id="Ellipse_217" data-name="Ellipse 217" cx="12.251" cy="12.251" r="12.251" transform="translate(69.571 69.571)" fill="url(#linear-gradient-13)"/>
      <circle id="Ellipse_218" data-name="Ellipse 218" cx="11.549" cy="11.549" r="11.549" transform="translate(70.273 70.273)" fill="#ffb300"/>
      <path id="Path_1074" data-name="Path 1074" d="M553.775,387.879a11.546,11.546,0,0,1,17.291-10.029,11.546,11.546,0,1,0-13.752,18.335A11.51,11.51,0,0,1,553.775,387.879Z" transform="translate(-481.388 -304.509)" fill="#fff" opacity="0.2"/>
      <path id="Path_1075" data-name="Path 1075" d="M367.933,307.018H358.92v-22.5a.876.876,0,0,1,.876-.873h7.264a.876.876,0,0,1,.876.876Z" transform="translate(-335.26 -235.476)" fill="url(#linear-gradient-14)"/>
      <path id="Path_1076" data-name="Path 1076" d="M367.014,490.308h-7.175a.919.919,0,0,1-.919-.919V466.93h9.013v22.454a.919.919,0,0,1-.919.924Z" transform="translate(-335.26 -374.546)" fill="url(#linear-gradient)"/>
      <path id="Path_1077" data-name="Path 1077" d="M100.017,200.8h6.922a.765.765,0,0,1,.765.765v21.768H99.26V201.572A.765.765,0,0,1,100.017,200.8Z" transform="translate(-75.313 -152.356)" fill="#fafafa"/>
      <path id="Path_1078" data-name="Path 1078" d="M99.23,384.1h8.444v22.275a.256.256,0,0,1-.256.256h-7.93a.256.256,0,0,1-.256-.256V384.1Z" transform="translate(-75.29 -291.434)" fill="#fafafa"/>
    </g>
  </g>
</svg>
