<svg xmlns="http://www.w3.org/2000/svg" width="64" height="60" viewBox="0 0 64 60">
  <g id="Group_941" data-name="Group 941" transform="translate(-26 -527)">
    <rect id="Rectangle_657" data-name="Rectangle 657" width="64" height="60" rx="19" transform="translate(26 527)" fill="#6c63ff"/>
    <path id="Icon_awesome-money-bill-wave" data-name="Icon awesome-money-bill-wave" d="M28.11,3.266A13.4,13.4,0,0,0,22.842,2.25c-5.574,0-11.147,2.821-16.721,2.821A13.73,13.73,0,0,1,1.928,4.45a1.547,1.547,0,0,0-.468-.073A1.44,1.44,0,0,0,0,5.816V20.174a1.439,1.439,0,0,0,.853,1.333,13.394,13.394,0,0,0,5.268,1.017c5.574,0,11.148-2.822,16.722-2.822a13.73,13.73,0,0,1,4.193.621,1.547,1.547,0,0,0,.468.073,1.44,1.44,0,0,0,1.459-1.44V4.6a1.441,1.441,0,0,0-.853-1.334ZM2.172,6.785a15.749,15.749,0,0,0,2.838.4A2.9,2.9,0,0,1,2.172,9.522Zm0,12.9V17.52A2.9,2.9,0,0,1,5.055,20.3,10.932,10.932,0,0,1,2.172,19.683Zm12.309-2.951c-2,0-3.62-1.945-3.62-4.344s1.621-4.344,3.62-4.344,3.62,1.945,3.62,4.344S16.48,16.731,14.481,16.731ZM26.79,17.988a15.559,15.559,0,0,0-2.458-.382,2.89,2.89,0,0,1,2.458-2.23Zm0-10.685a2.89,2.89,0,0,1-2.526-2.785,10.878,10.878,0,0,1,2.526.573Z" transform="translate(47.019 548.363)" fill="#372ce6"/>
    <path id="Icon_awesome-money-bill-wave-2" data-name="Icon awesome-money-bill-wave" d="M28.11,3.266A13.4,13.4,0,0,0,22.842,2.25c-5.574,0-11.147,2.821-16.721,2.821A13.73,13.73,0,0,1,1.928,4.45a1.547,1.547,0,0,0-.468-.073A1.44,1.44,0,0,0,0,5.816V20.174a1.439,1.439,0,0,0,.853,1.333,13.394,13.394,0,0,0,5.268,1.017c5.574,0,11.148-2.822,16.722-2.822a13.73,13.73,0,0,1,4.193.621,1.547,1.547,0,0,0,.468.073,1.44,1.44,0,0,0,1.459-1.44V4.6a1.441,1.441,0,0,0-.853-1.334ZM2.172,6.785a15.749,15.749,0,0,0,2.838.4A2.9,2.9,0,0,1,2.172,9.522Zm0,12.9V17.52A2.9,2.9,0,0,1,5.055,20.3,10.932,10.932,0,0,1,2.172,19.683Zm12.309-2.951c-2,0-3.62-1.945-3.62-4.344s1.621-4.344,3.62-4.344,3.62,1.945,3.62,4.344S16.48,16.731,14.481,16.731ZM26.79,17.988a15.559,15.559,0,0,0-2.458-.382,2.89,2.89,0,0,1,2.458-2.23Zm0-10.685a2.89,2.89,0,0,1-2.526-2.785,10.878,10.878,0,0,1,2.526.573Z" transform="translate(43.019 544.363)" fill="#fff"/>
  </g>
</svg>
