<svg xmlns="http://www.w3.org/2000/svg" width="14.565" height="14.565" viewBox="0 0 14.565 14.565">
  <path id="Icon_awesome-phone-square-alt" data-name="Icon awesome-phone-square-alt" d="M13,2.25H1.561A1.561,1.561,0,0,0,0,3.811V15.255a1.561,1.561,0,0,0,1.561,1.561H13a1.561,1.561,0,0,0,1.561-1.561V3.811A1.561,1.561,0,0,0,13,2.25Zm-.533,9.993-.488,2.113a.488.488,0,0,1-.475.378A9.429,9.429,0,0,1,2.081,5.306a.51.51,0,0,1,.378-.475l2.113-.488a.593.593,0,0,1,.11-.013.529.529,0,0,1,.448.3L6.105,6.9a.582.582,0,0,1,.039.192.553.553,0,0,1-.179.377L4.734,8.48a7.54,7.54,0,0,0,3.6,3.6l1.008-1.232a.553.553,0,0,1,.377-.179.58.58,0,0,1,.192.039l2.276.975a.528.528,0,0,1,.3.448.566.566,0,0,1-.013.11Z" transform="translate(0 -2.25)" fill="#444"/>
</svg>
