<svg xmlns="http://www.w3.org/2000/svg" width="25.17" height="23.409" viewBox="0 0 25.17 23.409">
  <g id="Icons_Menu_Menu_Copy_3" data-name="Icons/Menu/Menu Copy 3" transform="translate(30.837 29.075) rotate(180)">
    <g id="Group_289" data-name="Group 289" transform="translate(5.667 5.667)">
      <path id="Path" d="M12.585,1.463A1.521,1.521,0,0,0,11.012,0H4.719A4.563,4.563,0,0,0,0,4.389v14.63a4.563,4.563,0,0,0,4.719,4.389h6.292a1.521,1.521,0,0,0,1.573-1.463Z" transform="translate(0 0)" fill="#fff"/>
      <path id="Shape" d="M7.866,23.409H3.146A3.045,3.045,0,0,1,0,20.483v-4.39c0-.971.529-1.463,1.573-1.463s1.573.492,1.573,1.463v4.39h4.72c1.044.167,1.573.659,1.573,1.463s-.529,1.3-1.573,1.463Zm14.158,0H17.3c-1.044,0-1.573-.492-1.573-1.463s.529-1.463,1.573-1.463h4.72v-4.39a1.577,1.577,0,0,1,3.146,0v4.39A3.045,3.045,0,0,1,22.024,23.409ZM23.6,8.779c-1.044,0-1.573-.492-1.573-1.463V2.926H17.3c-1.044-.166-1.573-.659-1.573-1.463S16.26.166,17.3,0h4.72A3.045,3.045,0,0,1,25.17,2.926v4.39C25.17,8.286,24.641,8.779,23.6,8.779Zm-22.024,0A1.524,1.524,0,0,1,0,7.316V2.926A3.045,3.045,0,0,1,3.146,0h4.72C8.91,0,9.439.492,9.439,1.463S8.91,2.926,7.866,2.926H3.146v4.39A1.524,1.524,0,0,1,1.573,8.779Z" transform="translate(0 0)" fill="#fff"/>
    </g>
  </g>
</svg>
