<svg xmlns="http://www.w3.org/2000/svg" width="128" height="154.085" viewBox="0 0 128 154.085">
  <g id="Group_999" data-name="Group 999" transform="translate(-124 -171.915)">
    <g id="Ellipse_84" data-name="Ellipse 84" transform="translate(124 198)" fill="none" stroke="#ffb300" stroke-width="3.9">
      <circle cx="64" cy="64" r="64" stroke="none"/>
      <circle cx="64" cy="64" r="62.05" fill="none"/>
    </g>
    <g id="Illus_Motivation" data-name="Illus/Motivation" transform="translate(145.016 223.482)">
      <g id="motivation">
        <path id="Combined_Shape" data-name="Combined Shape" d="M78.384,84.608,57.816,64.04,45.709,76.148l6.466,6.466a1.413,1.413,0,0,1-1.994,1.994L35.666,70.094a1.422,1.422,0,0,1-.328-.519h-.091a7.02,7.02,0,0,1-3.919-1.191A7.373,7.373,0,0,1,29.2,72.914l-.413.413,1.823,1.823a1.41,1.41,0,0,1,0,1.994L23.56,84.2a1.4,1.4,0,0,1-1,.413,1.419,1.419,0,0,1-1-.413L.413,63.043a1.419,1.419,0,0,1-.413-1,1.4,1.4,0,0,1,.413-1l5.055-5.055a1.43,1.43,0,0,1,1-.353,1.43,1.43,0,0,1,1,.353,1.586,1.586,0,0,1,0,1.994L3.4,62.046,22.562,81.2l5.057-5.056L10.283,58.813a1.41,1.41,0,0,1,0-1.994l1.41-1.41a7.376,7.376,0,0,1,4.525-2.128,4.817,4.817,0,0,1,.7-5.92L29.028,35.253a4.816,4.816,0,0,1,6.81,0l2.236,2.237,2.77-2.768a31.427,31.427,0,0,1,.249-7.146l-4.424-4.424A4.369,4.369,0,0,1,35.4,19.6L36.564,7.973A4.427,4.427,0,0,1,37.832,5.3l4.009-4.009A4.4,4.4,0,0,1,44.942,0h.365a4.4,4.4,0,0,1,3.1,1.289l4.059,4.059a4.4,4.4,0,0,1,.043,6.181l-.044.044-.555.555a28.38,28.38,0,0,0-8.249,22.489l6.33,6.33c.789.066,1.591.1,2.383.1A28.382,28.382,0,0,0,72.48,32.7L76.973,28.2,56.405,7.635a1.43,1.43,0,0,1-.353-1,1.43,1.43,0,0,1,.353-1,1.586,1.586,0,0,1,1.994,0L79.965,27.206a1.419,1.419,0,0,1,.413,1,1.4,1.4,0,0,1-.413,1l-2.12,2.12a4.36,4.36,0,0,1,1.414.947l4.059,4.059a4.4,4.4,0,0,1,1.289,3.113v.342a4.4,4.4,0,0,1-1.289,3.111L79.31,46.9a4.424,4.424,0,0,1-2.674,1.268L65.007,49.333c-.152.015-.3.022-.443.022a4.419,4.419,0,0,1-3.107-1.289l-4.534-4.534a31.441,31.441,0,0,1-4.557.333c-.822,0-1.657-.034-2.479-.1l-2.768,2.768,1.008,1.029c.727.742,1.55,1.583,1.554,1.588a7.025,7.025,0,0,1,1.569,4.433c0,.014,0,.028,0,.042s0,.03,0,.044a1.418,1.418,0,0,1,.515.327L80.378,82.614a1.413,1.413,0,0,1-1.994,1.994ZM38.658,69.1l5.057,5.057L55.821,62.046l-5.057-5.057ZM13.689,57.4l-.413.413L26.793,71.333l.413-.414a4.577,4.577,0,0,0,0-6.466L20.155,57.4a4.573,4.573,0,0,0-6.466,0Zm17.919,4.643a4.774,4.774,0,0,1-1.715,1.106l2.369,2.369a4.229,4.229,0,0,0,5.984,0l3.475-3.475L40.671,61a7.625,7.625,0,0,1-2.21-5.807Zm-.585-24.8L18.917,49.355a1.95,1.95,0,0,0-.433.646,1.987,1.987,0,0,0,.433,2.174l3.233,3.233,4.643,4.643a1.969,1.969,0,0,0,.646.433l.03.012.055.02a1.991,1.991,0,0,0,2.089-.466l.826-.825-7.877-7.877a1.6,1.6,0,0,1,0-1.994,1.586,1.586,0,0,1,1.994,0l7.877,7.877L34.67,55l-7.877-7.877a1.413,1.413,0,0,1,1.994-1.994l3.646,3.646,2.237-2.237-3.647-3.646a1.6,1.6,0,0,1,0-1.994,1.586,1.586,0,0,1,1.994,0l3.646,3.647L38.9,42.3l-5.056-5.056a1.994,1.994,0,0,0-2.821,0ZM41.89,51.178a1.413,1.413,0,0,1,.176,1.779,4.805,4.805,0,0,0,.6,6.046l1.048,1.048,3.475-3.475a4.192,4.192,0,0,0,.291-.322,4.241,4.241,0,0,0,0-5.34,4.3,4.3,0,0,0-.29-.321l-6.3-6.295-6.447,6.447A4.807,4.807,0,0,0,40.111,51a1.41,1.41,0,0,1,1.779.176Zm18.346-8.321,3.214,3.214a1.571,1.571,0,0,0,1.276.455l11.628-1.163a1.591,1.591,0,0,0,.96-.455L81.325,40.9a1.579,1.579,0,0,0,.463-1.118v-.342a1.561,1.561,0,0,0-.463-1.118l-4.059-4.059a1.58,1.58,0,0,0-2.236,0l-1.41,1.41a1.581,1.581,0,0,0,1.118,2.7,1.568,1.568,0,0,0,1.118-.463A1.41,1.41,0,1,1,77.849,39.9l-2.115,2.115a1.42,1.42,0,0,1-.861.407l-9.077.881a1.335,1.335,0,0,1-.138.007,1.416,1.416,0,0,1-1.016-.432l-1.054-1.1A31.353,31.353,0,0,1,60.237,42.858ZM40.068,39.484l5.056,5.056L47.361,42.3,42.3,37.248Zm26.623.9,4.934-.483a4.382,4.382,0,0,1-1.106-1.859A31.434,31.434,0,0,1,66.691,40.385ZM43.836,3.284,39.827,7.292a1.6,1.6,0,0,0-.455.962L38.208,19.882a1.568,1.568,0,0,0,.455,1.276l3.112,3.113a31.262,31.262,0,0,1,1.085-3.339l-1-.966a1.405,1.405,0,0,1-.426-1.153l.881-9.077a1.413,1.413,0,0,1,.407-.861l2.115-2.115a1.41,1.41,0,1,1,1.994,1.994,1.581,1.581,0,0,0,2.237,2.236l1.41-1.41a1.58,1.58,0,0,0,0-2.236L46.413,3.284A1.579,1.579,0,0,0,45.3,2.821h-.351A1.579,1.579,0,0,0,43.836,3.284Zm.543,14.337a31.389,31.389,0,0,1,2.21-3.564,4.4,4.4,0,0,1-1.756-1.073l0,0ZM42.3,70.507V67.687h2.82v2.821ZM46.536,29.46a25.575,25.575,0,0,1,4.951-12.547l2.256,1.69a22.755,22.755,0,0,0-4.4,11.162Zm6.758-14.7c.2-.214,2.114-2.136,2.114-2.136L57.4,14.615s-1.87,1.876-2.048,2.067ZM24.045,13.137A7.547,7.547,0,0,0,19.3,8.388a1.41,1.41,0,0,1,0-2.675A7.578,7.578,0,0,0,22.228,3.9,7.586,7.586,0,0,0,24.045.964a1.41,1.41,0,0,1,2.675,0A7.584,7.584,0,0,0,28.537,3.9a7.58,7.58,0,0,0,2.932,1.817,1.41,1.41,0,0,1,0,2.675,7.544,7.544,0,0,0-4.749,4.749,1.41,1.41,0,0,1-2.675,0ZM22.838,7.05a10.42,10.42,0,0,1,2.544,2.544A10.42,10.42,0,0,1,27.926,7.05a10.389,10.389,0,0,1-2.544-2.544A10.4,10.4,0,0,1,22.838,7.05Z" transform="translate(0)" fill="#ffb300"/>
      </g>
    </g>
    <path id="Shape" d="M5.05,10.09a1.008,1.008,0,0,1-.958-.69,5.427,5.427,0,0,0-1.3-2.1A5.433,5.433,0,0,0,.691,6a1.009,1.009,0,0,1,0-1.914,5.436,5.436,0,0,0,2.1-1.3,5.428,5.428,0,0,0,1.3-2.1,1.01,1.01,0,0,1,1.916,0,5.424,5.424,0,0,0,1.3,2.1,5.435,5.435,0,0,0,2.1,1.3A1.009,1.009,0,0,1,9.411,6a5.4,5.4,0,0,0-3.4,3.4A1.01,1.01,0,0,1,5.05,10.09Zm0-6.865a7.454,7.454,0,0,1-1.822,1.82A7.455,7.455,0,0,1,5.05,6.865a7.455,7.455,0,0,1,1.822-1.82A7.455,7.455,0,0,1,5.05,3.224Z" transform="translate(240.348 207.874)" fill="#ffb300"/>
    <path id="Shape-2" data-name="Shape" d="M10.05,20.079a2.007,2.007,0,0,1-1.906-1.373,10.8,10.8,0,0,0-2.59-4.175,10.811,10.811,0,0,0-4.179-2.587,2.007,2.007,0,0,1,0-3.809A10.817,10.817,0,0,0,5.553,5.547a10.8,10.8,0,0,0,2.59-4.175,2.011,2.011,0,0,1,3.813,0,10.8,10.8,0,0,0,2.59,4.175,10.816,10.816,0,0,0,4.18,2.587,2.007,2.007,0,0,1,0,3.809,10.745,10.745,0,0,0-6.77,6.762A2.009,2.009,0,0,1,10.05,20.079Zm0-13.662a14.834,14.834,0,0,1-3.626,3.622,14.836,14.836,0,0,1,3.626,3.622,14.836,14.836,0,0,1,3.626-3.622A14.836,14.836,0,0,1,10.05,6.416Z" transform="translate(194.348 171.915)" fill="#ffb300"/>
  </g>
</svg>
