<svg xmlns="http://www.w3.org/2000/svg" width="31.864" height="59.666" viewBox="0 0 31.864 59.666"><g transform="translate(-18.589 7.916)"><path d="M223.135,104a15.932,15.932,0,0,0-8.4,29.467c.046.029.1.054.142.082a8.728,8.728,0,0,1,16.52,0c.047-.028.1-.053.142-.082a15.932,15.932,0,0,0-8.4-29.467Zm0,22.1a5.653,5.653,0,1,1,5.653-5.653A5.653,5.653,0,0,1,223.135,126.1Z" transform="translate(-188.614 -111.916)" fill="#4e4e4e"/><circle cx="2.009" cy="2.009" r="2.009" transform="translate(20.602 27.648)" fill="#4e4e4e"/><circle cx="2.009" cy="2.009" r="2.009" transform="translate(20.602 33.673)" fill="#4e4e4e"/><circle cx="2.009" cy="2.009" r="2.009" transform="translate(20.602 40.703)" fill="#4e4e4e"/><circle cx="2.009" cy="2.009" r="2.009" transform="translate(20.602 47.733)" fill="#4e4e4e"/><rect width="21.089" height="3.013" rx="1.506" transform="translate(26.628 40.703)" fill="#4e4e4e"/><rect width="21.089" height="3.013" rx="1.506" transform="translate(26.628 47.733)" fill="#4e4e4e"/><rect width="21.089" height="3.013" rx="1.506" transform="translate(26.628 33.673)" fill="#4e4e4e"/><rect width="21.089" height="3.013" rx="1.506" transform="translate(26.628 27.648)" fill="#4e4e4e"/></g></svg>