<svg xmlns="http://www.w3.org/2000/svg" xmlns:xlink="http://www.w3.org/1999/xlink" width="87" height="79" viewBox="0 0 87 79">
  <defs>
    <filter id="Rectangle_714" x="0" y="0" width="87" height="79" filterUnits="userSpaceOnUse">
      <feOffset dy="1" input="SourceAlpha"/>
      <feGaussianBlur stdDeviation="2.5" result="blur"/>
      <feFlood flood-opacity="0.161"/>
      <feComposite operator="in" in2="blur"/>
      <feComposite in="SourceGraphic"/>
    </filter>
  </defs>
  <g id="Group_1007" data-name="Group 1007" transform="translate(-238.5 -487.5)">
    <g transform="matrix(1, 0, 0, 1, 238.5, 487.5)" filter="url(#Rectangle_714)">
      <rect id="Rectangle_714-2" data-name="Rectangle 714" width="72" height="64" rx="12" transform="translate(7.5 6.5)" fill="#ef8a47"/>
    </g>
    <path id="Icon_awesome-file-invoice" data-name="Icon awesome-file-invoice" d="M17.946,15.952H5.982V19.94H17.946Zm5.546-9.409L17.392.436A1.494,1.494,0,0,0,16.332,0h-.38V7.976h7.976V7.6A1.491,1.491,0,0,0,23.492,6.543ZM13.958,8.475V0H1.5A1.492,1.492,0,0,0,0,1.5V30.409a1.492,1.492,0,0,0,1.5,1.5H22.433a1.492,1.492,0,0,0,1.5-1.5V9.97H15.454A1.5,1.5,0,0,1,13.958,8.475ZM3.988,4.487a.5.5,0,0,1,.5-.5H9.472a.5.5,0,0,1,.5.5v1a.5.5,0,0,1-.5.5H4.487a.5.5,0,0,1-.5-.5Zm0,3.988a.5.5,0,0,1,.5-.5H9.472a.5.5,0,0,1,.5.5v1a.5.5,0,0,1-.5.5H4.487a.5.5,0,0,1-.5-.5ZM19.94,27.418a.5.5,0,0,1-.5.5H14.457a.5.5,0,0,1-.5-.5v-1a.5.5,0,0,1,.5-.5h4.985a.5.5,0,0,1,.5.5Zm0-12.463v5.982a1,1,0,0,1-1,1H4.985a1,1,0,0,1-1-1V14.955a1,1,0,0,1,1-1H18.943A1,1,0,0,1,19.94,14.955Z" transform="translate(270.536 510.048)" fill="#fff"/>
  </g>
</svg>
