<svg xmlns="http://www.w3.org/2000/svg" width="35.018" height="35.001" viewBox="0 0 35.018 35.001">
  <path id="Fill_157" data-name="Fill 157" d="M11.638,35h0c-.018-.022-2.3-2.574-4.668-5.205-2.759-.568-5.494-1.12-6.878-1.4L0,28.378,5.455,19.07A13.047,13.047,0,0,1,8.007,3.878a13.581,13.581,0,0,1,19.005,0,13.048,13.048,0,0,1,2.55,15.192l5.456,9.308c-.016,0-3.392.68-6.969,1.417-2.33,2.592-4.648,5.179-4.67,5.2L18.364,26.44l-.188.013c-.2.014-.435.03-.666.03s-.473-.016-.666-.03h-.009l-.09-.006-.09-.006L11.639,35ZM6.79,21.205h0l-3.17,5.41.007,0c.263.076,2.417.695,4.492,1.284.631.613,1.7,1.642,3.187,3.058l.072.069,2.9-4.946A13.5,13.5,0,0,1,6.79,21.205Zm21.439,0h0a13.5,13.5,0,0,1-7.489,4.877l2.9,4.946.077-.071c1.142-1.085,2.214-2.114,3.185-3.056,1.3-.369,2.6-.741,3.482-.993l.015,0,.28-.08.088-.025.007,0,.628-.181-3.17-5.41ZM17.509,5.469a7.656,7.656,0,1,0,7.656,7.655A7.664,7.664,0,0,0,17.509,5.469Zm0,13.125a5.469,5.469,0,1,1,5.468-5.469A5.475,5.475,0,0,1,17.509,18.594Z" fill="#ffb300"/>
</svg>
