<svg xmlns="http://www.w3.org/2000/svg" width="32.005" height="30" viewBox="0 0 32.005 30">
  <path id="Fill_159" data-name="Fill 159" d="M19.994,30H12.011a1,1,0,0,1,0-2H15V21.928A9.013,9.013,0,0,1,9.943,19.2,14.052,14.052,0,0,1,6.719,13.93l-.11.015A4.163,4.163,0,0,1,6.023,14,6,6,0,0,1,.033,8c0-.441-.01-.835-.019-1.183C-.016,5.682-.034,5,.36,4.593.938,4,2.424,4,6.014,4h.009a4,4,0,0,1,3.992-4H21.991a4,4,0,0,1,3.991,4h0c3.594,0,5.081,0,5.659.593.393.4.375,1.089.346,2.224-.009.348-.02.742-.02,1.184a6,6,0,0,1-5.99,6,4.158,4.158,0,0,1-.587-.055l-.108-.015A14.06,14.06,0,0,1,22.062,19.2,9.013,9.013,0,0,1,17,21.928V28h2.994a1,1,0,0,1,0,2ZM10.014,2a2.2,2.2,0,0,0-2,2v6a11.666,11.666,0,0,0,2.339,6.656C11.956,18.812,13.961,20,16,20s4.047-1.187,5.646-3.344A11.669,11.669,0,0,0,23.987,10V4a2.164,2.164,0,0,0-2-2ZM26.159,6h-.177v6a4,4,0,0,0,3.993-4c0-.961-.013-1.435-.309-1.7s-.853-.306-2.075-.306c-.258,0-.469,0-.664,0h-.008L26.2,6Zm-21.745,0c-1.222,0-1.78.043-2.076.306S2.03,7.039,2.03,8a4,4,0,0,0,3.992,4V6L5.342,6H5.078Z" transform="translate(0)" fill="#ffb300"/>
</svg>
