<svg xmlns="http://www.w3.org/2000/svg" width="163.818" height="117.858" viewBox="0 0 163.818 117.858">
  <g id="Group_881" data-name="Group 881" transform="translate(0 0)">
    <path id="Path_1113" data-name="Path 1113" d="M258.372,544.953q-12.662-1.855-24.353-3.2l3.082-4.988c-1.039-.307-5.6,2.536-5.6,2.536l4.046-14.5c-5.226.5-7.885,15.316-7.885,15.316l-5.839-5.039,2.826,5.648c-23.856-2.462-44.459-3.43-61.789-3.541l2.638-4.269c-1.039-.307-5.6,2.536-5.6,2.536l4.046-14.5c-5.226.5-7.885,15.316-7.885,15.316l-5.838-5.039,2.993,5.982c-14.528.176-26.376.951-35.52,1.856,2.669-6.657,11.732-12.958,11.732-12.958-6.921,1.691-10.552,4.562-12.449,7.245a99.478,99.478,0,0,1,8.079-40.366s-14.308,25.995-12.486,43.5l.218,3.107a166.753,166.753,0,0,0-18.225,2.882Z" transform="translate(-94.554 -427.095)" fill="#119a4c"/>
    <path id="Path_1114" data-name="Path 1114" d="M362.756,91.079V196.121a4.722,4.722,0,0,1-4.721,4.717H315.392a4.712,4.712,0,0,1-4.721-4.717V91.079a4.72,4.72,0,0,1,4.721-4.721h6.381v.818a3.887,3.887,0,0,0,3.886,3.888h21.689a3.855,3.855,0,0,0,2.3-.758,3.615,3.615,0,0,0,.382-.321,3.876,3.876,0,0,0,1.2-2.808v-.818h6.8A4.719,4.719,0,0,1,362.756,91.079Z" transform="translate(-275.649 -86.358)" fill="#3f3d56"/>
    <circle id="Ellipse_242" data-name="Ellipse 242" cx="1.134" cy="1.134" r="1.134" transform="translate(45.768 16.367)" fill="#f2f2f2"/>
    <path id="Path_1115" data-name="Path 1115" d="M551.6,108.738a3.615,3.615,0,0,1-.382.321,20.3,20.3,0,0,0,13.1,9.754v-.506A19.819,19.819,0,0,1,551.6,108.738Z" transform="translate(-477.217 -105.111)" fill="#119a4c"/>
    <path id="Path_1116" data-name="Path 1116" d="M491.023,115.4h-.532a29.44,29.44,0,0,0,22.945,18.32v-.5A28.935,28.935,0,0,1,491.023,115.4Z" transform="translate(-426.329 -110.692)" fill="#119a4c"/>
    <path id="Path_1117" data-name="Path 1117" d="M430.7,115.4h-.512a38.817,38.817,0,0,0,32.717,27.73v-.494A38.323,38.323,0,0,1,430.7,115.4Z" transform="translate(-375.8 -110.692)" fill="#119a4c"/>
    <path id="Path_1118" data-name="Path 1118" d="M263.074,158.3h-.3V158h-.058v.3h-.3v.058h.3v.3h.058v-.3h.3Z" transform="translate(-219.899 -132.396)" fill="#f2f2f2"/>
    <path id="Path_1119" data-name="Path 1119" d="M386.074,67.3h-.3V67h-.058v.3h-.3v.058h.3v.3h.058v-.3h.3Z" transform="translate(-322.967 -56.142)" fill="#f2f2f2"/>
    <path id="Path_1120" data-name="Path 1120" d="M281.074,230.3h-.3V230h-.057v.3h-.3v.058h.3v.3h.057v-.3h.3Z" transform="translate(-234.982 -192.728)" fill="#f2f2f2"/>
    <path id="Path_1121" data-name="Path 1121" d="M365.074,177.3h-.3V177h-.058v.3h-.3v.058h.3v.3h.058v-.3h.3Z" transform="translate(-305.37 -148.317)" fill="#f2f2f2"/>
    <path id="Path_1122" data-name="Path 1122" d="M485.074,210.3h-.3V210h-.058v.3h-.3v.058h.3v.3h.058v-.3h.3Z" transform="translate(-405.924 -175.969)" fill="#f2f2f2"/>
    <circle id="Ellipse_243" data-name="Ellipse 243" cx="0.648" cy="0.648" r="0.648" transform="translate(75.099 19.608)" fill="#ff6584"/>
    <path id="Path_1123" data-name="Path 1123" d="M416.779,305.158l-.368.057c.115.736.206,1.488.272,2.231l.371-.032C416.988,306.66,416.9,305.9,416.779,305.158Z" transform="translate(-364.254 -269.701)" fill="#e6e6e6"/>
    <path id="Path_1124" data-name="Path 1124" d="M410.628,277.818l-.357.109c.216.713.408,1.444.572,2.171l.365-.083C411.041,279.28,410.845,278.541,410.628,277.818Z" transform="translate(-359.108 -246.791)" fill="#e6e6e6"/>
    <path id="Path_1125" data-name="Path 1125" d="M400.81,251.6l-.339.156c.311.679.6,1.376.867,2.073l.348-.131C401.419,252.99,401.126,252.283,400.81,251.6Z" transform="translate(-350.897 -224.82)" fill="#e6e6e6"/>
    <path id="Path_1126" data-name="Path 1126" d="M387.535,227.018l-.314.2c.4.629.784,1.28,1.141,1.933l.327-.178C388.329,228.311,387.941,227.653,387.535,227.018Z" transform="translate(-339.794 -204.224)" fill="#e6e6e6"/>
    <path id="Path_1127" data-name="Path 1127" d="M371.035,204.488l-.284.241c.483.567.953,1.16,1.4,1.76l.3-.222C372,205.661,371.524,205.062,371.035,204.488Z" transform="translate(-325.993 -185.345)" fill="#e6e6e6"/>
    <path id="Path_1128" data-name="Path 1128" d="M351.639,184.428l-.248.277c.557.5,1.1,1.021,1.624,1.554l.267-.261C352.755,185.459,352.2,184.93,351.639,184.428Z" transform="translate(-309.77 -168.536)" fill="#e6e6e6"/>
    <path id="Path_1129" data-name="Path 1129" d="M329.72,167.208l-.209.308c.619.416,1.232.86,1.82,1.319l.23-.293C330.965,168.078,330.346,167.629,329.72,167.208Z" transform="translate(-291.436 -154.106)" fill="#e6e6e6"/>
    <path id="Path_1130" data-name="Path 1130" d="M310.671,155.248v.421c.387.2.771.415,1.147.632l.186-.322Q311.348,155.6,310.671,155.248Z" transform="translate(-275.649 -144.084)" fill="#e6e6e6"/>
    <path id="Path_1131" data-name="Path 1131" d="M418.161,515.475c.06-.362.116-.732.164-1.1l.369.049c-.049.371-.105.745-.166,1.112Z" transform="translate(-365.72 -445.015)" fill="#e6e6e6"/>
    <path id="Path_1132" data-name="Path 1132" d="M411.752,536.931l.356.111c.223-.72.426-1.458.6-2.193l-.363-.086C412.172,535.49,411.974,536.219,411.752,536.931Z" transform="translate(-360.349 -462.098)" fill="#e6e6e6"/>
    <path id="Path_1133" data-name="Path 1133" d="M401.71,563.294l.338.158c.321-.682.622-1.384.9-2.088l-.348-.136C402.326,561.925,402.028,562.62,401.71,563.294Z" transform="translate(-351.935 -484.275)" fill="#e6e6e6"/>
    <path id="Path_1134" data-name="Path 1134" d="M388.2,588.248l.313.2c.412-.632.807-1.287,1.176-1.946l-.325-.182C389,586.974,388.607,587.622,388.2,588.248Z" transform="translate(-340.613 -505.302)" fill="#e6e6e6"/>
    <path id="Path_1135" data-name="Path 1135" d="M371.482,611.313l.282.245c.5-.572.976-1.167,1.432-1.768l-.3-.223C372.449,610.161,371.973,610.749,371.482,611.313Z" transform="translate(-326.605 -524.779)" fill="#e6e6e6"/>
    <path id="Path_1136" data-name="Path 1136" d="M351.907,632.035l.245.28c.57-.5,1.127-1.022,1.659-1.554l-.264-.264C353.022,631.024,352.469,631.541,351.907,632.035Z" transform="translate(-310.203 -542.318)" fill="#e6e6e6"/>
    <path id="Path_1137" data-name="Path 1137" d="M329.855,650.056l.206.312c.629-.415,1.254-.858,1.854-1.315l-.225-.3C331.1,649.208,330.478,649.646,329.855,650.056Z" transform="translate(-291.724 -557.618)" fill="#e6e6e6"/>
    <path id="Path_1138" data-name="Path 1138" d="M312.047,664.34c-.451.254-.911.5-1.376.734v-.418c.4-.2.8-.42,1.191-.639Z" transform="translate(-275.649 -570.407)" fill="#e6e6e6"/>
    <path id="Path_1139" data-name="Path 1139" d="M418.836,333.429l.372-.007c.007.376.007.754,0,1.124l-.372-.006C418.843,334.175,418.843,333.8,418.836,333.429Z" transform="translate(-366.285 -293.385)" fill="#e6e6e6"/>
    <path id="Path_1140" data-name="Path 1140" d="M226.216,301.632h38.117a10.7,10.7,0,0,1,10.7,10.7v1.416H236.911a10.7,10.7,0,0,1-10.7-10.7v-1.416Z" transform="translate(-189.557 -252.752)" fill="#fff"/>
    <path id="Path_1141" data-name="Path 1141" d="M470.063,578.183a11.538,11.538,0,0,1-1.218-4.565c-.279-2.789-.1-7.491,2.339-14.05a28.332,28.332,0,0,0-1.123-22.549l.28-.163a24.884,24.884,0,0,1,2.348,6.651,29.017,29.017,0,0,1-1.2,16.174c-4.612,12.4-1.183,18.275-1.148,18.333Z" transform="translate(-408.107 -463.852)" fill="#f2f2f2"/>
    <circle id="Ellipse_244" data-name="Ellipse 244" cx="2.107" cy="2.107" r="2.107" transform="translate(58.042 68.224)" fill="#17c261"/>
    <circle id="Ellipse_245" data-name="Ellipse 245" cx="2.107" cy="2.107" r="2.107" transform="translate(64.686 76.003)" fill="#f2f2f2"/>
    <circle id="Ellipse_246" data-name="Ellipse 246" cx="2.107" cy="2.107" r="2.107" transform="translate(60.149 81.188)" fill="#17c261"/>
    <circle id="Ellipse_247" data-name="Ellipse 247" cx="2.107" cy="2.107" r="2.107" transform="translate(65.659 85.564)" fill="#17c261"/>
    <circle id="Ellipse_248" data-name="Ellipse 248" cx="2.107" cy="2.107" r="2.107" transform="translate(58.528 92.37)" fill="#f2f2f2"/>
    <path id="Path_1142" data-name="Path 1142" d="M482.981,745.433s-2.107-5.186,4.213-9.075Z" transform="translate(-419.753 -631.024)" fill="#f2f2f2"/>
    <path id="Path_1143" data-name="Path 1143" d="M425.407,763.505s-.959-5.515-8.38-5.467Z" transform="translate(-364.77 -649.19)" fill="#f2f2f2"/>
    <circle id="Ellipse_249" data-name="Ellipse 249" cx="12.964" cy="12.964" r="12.964" transform="translate(39.286 41.972)" fill="#ffb300" opacity="0.2"/>
    <circle id="Ellipse_250" data-name="Ellipse 250" cx="9.13" cy="9.13" r="9.13" transform="translate(43.12 45.806)" fill="#ffb300" opacity="0.2"/>
    <circle id="Ellipse_251" data-name="Ellipse 251" cx="6.026" cy="6.026" r="6.026" transform="translate(46.224 48.91)" fill="#ffb300"/>
    <path id="Path_1144" data-name="Path 1144" d="M412.411,411.671a1.1,1.1,0,1,0-1.788.849l-.4,2.824h2.191l-.4-2.824A1.093,1.093,0,0,0,412.411,411.671Z" transform="translate(-359.065 -358.035)" fill="#fff"/>
    <path id="Path_1145" data-name="Path 1145" d="M673.378,135.217s-3.614-3.24-8.474,2.866-12.462,9.1-14.207,11.465c0,0,7.228-2.991,9.721-4.237s2.368-1,2.368-1-3.365,2.368-3.988,4.736-.125,4.362-1.246,6.73,21.435,1.62,21.435,1.62a13.575,13.575,0,0,0,1.62-7.851C679.984,145.561,680.357,135.715,673.378,135.217Z" transform="translate(-560.573 -126.579)" fill="#2f2e41"/>
    <path id="Path_1146" data-name="Path 1146" d="M722.954,202.56s.786,5.5-2.582,6.736-2.133,2.919-2.133,2.919l5.052,2.47L728.68,213l1.8-2.694s-2.919-.674-2.133-2.694,1.01-2.694,1.01-2.694Z" transform="translate(-616.984 -183.729)" fill="#ffb9b9"/>
    <path id="Path_1147" data-name="Path 1147" d="M722.954,202.56s.786,5.5-2.582,6.736-2.133,2.919-2.133,2.919l5.052,2.47L728.68,213l1.8-2.694s-2.919-.674-2.133-2.694,1.01-2.694,1.01-2.694Z" transform="translate(-616.984 -183.729)" fill="#cc8e7f"/>
    <path id="Path_1148" data-name="Path 1148" d="M811.969,299.551s-.786,10.329-.561,10.778,0,16.054,0,16.054,1.572,8.42-.449,8.869-1.572-9.431-1.572-9.431L807.366,312.8l.224-12.911Z" transform="translate(-691.853 -265.003)" fill="#ffb9b9"/>
    <path id="Path_1149" data-name="Path 1149" d="M811.969,299.551s-.786,10.329-.561,10.778,0,16.054,0,16.054,1.572,8.42-.449,8.869-1.572-9.431-1.572-9.431L807.366,312.8l.224-12.911Z" transform="translate(-691.853 -265.003)" fill="#cc8e7f"/>
    <path id="Path_1150" data-name="Path 1150" d="M682.087,491.454s-3.7,14.034-3.593,20.882a150.777,150.777,0,0,0,1.572,16.391s.224,4.154-.112,4.6,1.684,2.358,1.684,2.358l2.133-1.235.786-.9v-.786s-1.235-3.817-.224-6.848,1.572-10.666.561-13.023l6.961-20.657Z" transform="translate(-583.863 -425.807)" fill="#dc9c8c"/>
    <path id="Path_1151" data-name="Path 1151" d="M661.273,746.917s-1.347-1.684-2.245-1.123-2.358,4.378-2.358,4.378-5.052,4.828-1.46,5.052,5.164-1.01,5.613-1.908,4.6-3.256,4.6-3.256-.449-4.266-1.123-4.379-1.684,1.684-1.684,1.684Z" transform="translate(-563.274 -638.833)" fill="#2f2e41"/>
    <path id="Path_1152" data-name="Path 1152" d="M768.063,479.58V493.5a43.049,43.049,0,0,0,.337,5.052c.337,2.47-1.909,20.882-1.909,20.882l.224,3.256,2.807-.224.337-2.807,4.042-12.35s1.347-7.522.674-10.329,3.48-20.77,3.48-20.77Z" transform="translate(-657.602 -413.035)" fill="#dc9c8c"/>
    <path id="Path_1153" data-name="Path 1153" d="M761.1,751.52l.831-.181s.628-1.391,1.414-1.054a8.481,8.481,0,0,1,1.563.936l.346.635a13.423,13.423,0,0,0,1.8,2.807c1.01,1.123,2.133,3.593.449,3.817s-3.929.337-4.6-.224-.225-1.46-.9-1.684-1.235-.9-1.123-1.123S761.1,751.52,761.1,751.52Z" transform="translate(-652.884 -642.65)" fill="#2f2e41"/>
    <circle id="Ellipse_252" data-name="Ellipse 252" cx="4.99" cy="4.99" r="4.99" transform="translate(105.471 12.719)" fill="#dc9c8c"/>
    <path id="Path_1154" data-name="Path 1154" d="M718,246.993l1.483-.518s-.585.967,2.559,1.528,6.4.76,7.859-1.079c0,0,.562-.268,1.347.518s1.235.561,1.235.561l-.561,2.919-1.123,5.389-1.459,4.042-4.154-.9L720.69,256.2l-1.684-4.378v-4.042Z" transform="translate(-616.966 -220.528)" fill="#ffb300"/>
    <path id="Path_1155" data-name="Path 1155" d="M702.666,250.726l1.123-.786s3.817.674,4.042,2.47l-2.919,5.613a6.391,6.391,0,0,1-.112,4.828c-1.123,2.582-1.01,3.144-1.01,3.144L703,269.363l-14.258,1.123a10.1,10.1,0,0,0-.786-1.572c-.225-.225-.225-1.01,0-1.01s0-.337-.225-.674-.337-.449,0-.9-.561-4.491-.561-4.491v-4.378l-3.817-5.052s1.347-2.021,2.021-2.245,3.878-1.11,3.878-1.11l.725,1.068,1.01,8.126,1.459,4.94,6.145-1.044,2.387-4.008,1.572-4.715Z" transform="translate(-587.94 -222.689)" fill="#ffb300"/>
    <path id="Path_1156" data-name="Path 1156" d="M814.313,265.6l.9.674s.786,6.287.561,6.736-4.154.9-4.266.674S814.313,265.6,814.313,265.6Z" transform="translate(-695.32 -236.557)" fill="#ffb300"/>
    <path id="Path_1157" data-name="Path 1157" d="M698.851,243.884l1.123,7.41s-1.01,11-.786,13.248l.224.674s-.449-.225-.561.225a10.5,10.5,0,0,0,0,1.909s-.674.674-.9,4.378-2.919,12.574-1.909,12.911,7.073,2.021,10.329,1.684,14.932-4.266,14.819-5.277-5.726-15.269-5.726-15.269a14.753,14.753,0,0,1-1.01-1.909c0-.224,1.347-1.123,1.01-2.021s-2.133-10.329-2.133-10.329l1.235-6.736-1.684-.449-1.235,6.512a12.955,12.955,0,0,1-9.88.225l-1.123-7.634Z" transform="translate(-598.382 -217.98)" fill="#2f2e41"/>
    <path id="Path_1158" data-name="Path 1158" d="M747.864,161.925s8.308,5.726,10.553,3.144-3.929-4.828-3.929-4.828l-5.164-.561Z" transform="translate(-641.994 -147.797)" fill="#2f2e41"/>
    <path id="Path_1159" data-name="Path 1159" d="M567.409,508.584a4.38,4.38,0,1,0-1.374-1.705l-11.458,9.54-1.526-1.811-.685.458-.763-.905.627-.528-.763-.905-.975.821.469.557-1.045.88-.469-.557-1.532,1.291.7.836.557-.469.763.905-.7.587,1.408,1.671-1.671,1.408,1.7,2.02Zm2.861-6.4a2.9,2.9,0,1,1-3.134,2.64A2.9,2.9,0,0,1,570.27,502.185Z" transform="translate(-474.448 -433.547)" fill="#c68b00"/>
    <path id="Path_1160" data-name="Path 1160" d="M678.4,307.864s.786,10.329.561,10.778,0,16.054,0,16.054-1.572,8.42.449,8.869,1.572-9.431,1.572-9.431L683,321.112l-.225-12.911Z" transform="translate(-583.768 -271.968)" fill="#dc9c8c"/>
    <path id="Path_1161" data-name="Path 1161" d="M677.475,267.682l-.9.337s-1.684,7.073-1.235,7.073,5.838.674,5.838.449-1.01-5.726-1.01-5.726Z" transform="translate(-581.16 -238.298)" fill="#ffb300"/>
  </g>
</svg>
