<svg xmlns="http://www.w3.org/2000/svg" xmlns:xlink="http://www.w3.org/1999/xlink" width="114.865" height="96.718" viewBox="0 0 114.865 96.718">
  <defs>
    <linearGradient id="linear-gradient" x1="0.141" y1="1.022" x2="0.928" y2="-0.011" gradientUnits="objectBoundingBox">
      <stop offset="0" stop-color="gray" stop-opacity="0.251"/>
      <stop offset="0.54" stop-color="gray" stop-opacity="0.122"/>
      <stop offset="1" stop-color="gray" stop-opacity="0.102"/>
    </linearGradient>
    <linearGradient id="linear-gradient-2" x1="0.5" y1="1" x2="0.5" y2="0" xlink:href="#linear-gradient"/>
  </defs>
  <g id="Group_215" data-name="Group 215" transform="translate(-67 -83.798)">
    <g id="Group_44" data-name="Group 44" transform="translate(67 95.929)">
      <g id="Group_43" data-name="Group 43" transform="translate(0 0)">
        <path id="Path_330" data-name="Path 330" d="M63.3,476c1.818,7.769,5.665,14.484,11.746,17.739,12.637,6.765,41.137,3.276,62.407-.733a48.706,48.706,0,0,0,27.7-15.833Z" transform="translate(-62.058 -430.983)" fill="#4f44ff" opacity="0.1"/>
        <path id="Path_331" data-name="Path 331" d="M199.971,54.483H188.3a1.009,1.009,0,1,1,0-2.018h2.018a1.009,1.009,0,0,1,0-2.018h-1.441a1.009,1.009,0,1,1,0-2.018h6.091a16.119,16.119,0,0,0-4.751-1.31c-16.609-2.134-22.539-.722-24.631.733a23.26,23.26,0,0,1-8.537,3.742c-10.248,2.114-29.413,4.658-46.783-.815-8.633-2.722-15.05,1.876-18.9,9.557H202a18.025,18.025,0,0,0-1.37-6.1A1,1,0,0,1,199.971,54.483Z" transform="translate(-87.189 -46.03)" fill="#4f44ff" opacity="0.1"/>
        <path id="Path_332" data-name="Path 332" d="M51.691,321.15a51.413,51.413,0,0,0,.452,13.553L154.61,338.45a48.16,48.16,0,0,0,7.12-10.857Zm40.527,9.669H90.2a1.009,1.009,0,1,1,0,2.018H78.53a1.009,1.009,0,1,1,0-2.018h2.018a1.009,1.009,0,1,1,0-2.018H79.107a1.009,1.009,0,1,1,0-2.018H90.777a1.009,1.009,0,1,1,0,2.018h1.441a1.009,1.009,0,1,1,0,2.018Z" transform="translate(-51.44 -292.345)" fill="#4f44ff" opacity="0.1"/>
        <path id="Path_333" data-name="Path 333" d="M168.545,183.34,56.676,186.062A44.676,44.676,0,0,0,54,197.613H166.585a47.791,47.791,0,0,0,1.626-7.363A34.891,34.891,0,0,0,168.545,183.34Zm-91.834,8.916H74.694a1.009,1.009,0,0,1,0,2.018H63.023a1.009,1.009,0,1,1,0-2.018H65.04a1.009,1.009,0,0,1,0-2.018H63.6a1.009,1.009,0,1,1,0-2.018H75.27a1.009,1.009,0,1,1,0,2.018h1.441a1.009,1.009,0,1,1,0,2.018Z" transform="translate(-53.732 -168.964)" fill="#4f44ff" opacity="0.1"/>
        <g id="Group_22" data-name="Group 22" transform="translate(70.239 42.285)" opacity="0.1">
          <path id="Path_334" data-name="Path 334" d="M729,510.118s2.953-7.277,8.466-9.976a11.9,11.9,0,0,0,5.4-5.24,20.009,20.009,0,0,0,1.354-3.4" transform="translate(-728.3 -487.145)" fill="none" stroke="#535461" stroke-miterlimit="10" stroke-width="2"/>
          <path id="Path_335" data-name="Path 335" d="M877.139,452.534c-.575.722-3.549,1.78-3.549,1.78s.358-3.141.933-3.858a1.675,1.675,0,0,1,2.617,2.081Z" transform="translate(-857.751 -449.901)" fill="#4f44ff"/>
          <path id="Path_336" data-name="Path 336" d="M864,502.128c-.875.294-3.945-.438-3.945-.438s2-2.437,2.88-2.732A1.675,1.675,0,0,1,864,502.128Z" transform="translate(-845.638 -493.772)" fill="#4f44ff"/>
          <path id="Path_337" data-name="Path 337" d="M817.645,566.129c-.9-.187-3.185-2.369-3.185-2.369s2.961-1.092,3.865-.9a1.675,1.675,0,0,1-.681,3.273Z" transform="translate(-804.812 -551.01)" fill="#4f44ff"/>
          <path id="Path_338" data-name="Path 338" d="M763.61,605.614c-.922-.033-3.54-1.8-3.54-1.8s2.735-1.574,3.657-1.544a1.675,1.675,0,1,1-.117,3.341Z" transform="translate(-756.117 -586.319)" fill="#4f44ff"/>
          <path id="Path_339" data-name="Path 339" d="M832.731,490.775c.118.916,2.117,3.358,2.117,3.358s1.316-2.869,1.2-3.785a1.675,1.675,0,0,0-3.316.427Z" transform="translate(-821.168 -484.902)" fill="#4f44ff"/>
          <path id="Path_340" data-name="Path 340" d="M771.971,532.251c.386.838,3.025,2.57,3.025,2.57s.4-3.131.011-3.969a1.675,1.675,0,1,0-3.036,1.4Z" transform="translate(-766.591 -521.416)" fill="#4f44ff"/>
          <path id="Path_341" data-name="Path 341" d="M722.344,590.218c.239.892,2.547,3.045,2.547,3.045s.921-3.018.682-3.911a1.675,1.675,0,0,0-3.229.866Z" transform="translate(-722.312 -573.735)" fill="#4f44ff"/>
          <path id="Path_342" data-name="Path 342" d="M877.139,452.534c-.575.722-3.549,1.78-3.549,1.78s.358-3.141.933-3.858a1.675,1.675,0,0,1,2.617,2.081Z" transform="translate(-857.751 -449.901)" opacity="0.25"/>
          <path id="Path_343" data-name="Path 343" d="M864,502.128c-.875.294-3.945-.438-3.945-.438s2-2.437,2.88-2.732A1.675,1.675,0,0,1,864,502.128Z" transform="translate(-845.638 -493.772)" opacity="0.25"/>
          <path id="Path_344" data-name="Path 344" d="M817.645,566.129c-.9-.187-3.185-2.369-3.185-2.369s2.961-1.092,3.865-.9a1.675,1.675,0,0,1-.681,3.273Z" transform="translate(-804.812 -551.01)" opacity="0.25"/>
          <path id="Path_345" data-name="Path 345" d="M763.61,605.614c-.922-.033-3.54-1.8-3.54-1.8s2.735-1.574,3.657-1.544a1.675,1.675,0,1,1-.117,3.341Z" transform="translate(-756.117 -586.319)" opacity="0.25"/>
          <path id="Path_346" data-name="Path 346" d="M832.731,490.775c.118.916,2.117,3.358,2.117,3.358s1.316-2.869,1.2-3.785a1.675,1.675,0,0,0-3.316.427Z" transform="translate(-821.168 -484.902)" opacity="0.25"/>
          <path id="Path_347" data-name="Path 347" d="M771.971,532.251c.386.838,3.025,2.57,3.025,2.57s.4-3.131.011-3.969a1.675,1.675,0,1,0-3.036,1.4Z" transform="translate(-766.591 -521.416)" opacity="0.25"/>
          <path id="Path_348" data-name="Path 348" d="M722.344,590.218c.239.892,2.547,3.045,2.547,3.045s.921-3.018.682-3.911a1.675,1.675,0,0,0-3.229.866Z" transform="translate(-722.312 -573.735)" opacity="0.25"/>
        </g>
        <g id="Group_23" data-name="Group 23" transform="translate(65.837 26.9)" opacity="0.1">
          <path id="Path_349" data-name="Path 349" d="M709,374.343s.373-7.844,4.679-12.219a11.9,11.9,0,0,0,3.35-6.737,20.01,20.01,0,0,0,.15-3.656" transform="translate(-705.992 -346.624)" fill="none" stroke="#535461" stroke-miterlimit="10" stroke-width="2"/>
          <path id="Path_350" data-name="Path 350" d="M785.35,305.29c-.3.872-2.759,2.854-2.759,2.854s-.7-3.077-.4-3.949a1.675,1.675,0,1,1,3.158,1.1Z" transform="translate(-771.453 -302.957)" fill="#4f44ff"/>
          <path id="Path_351" data-name="Path 351" d="M788.808,353.836c-.733.567-3.868.9-3.868.9s1.084-2.965,1.811-3.533a1.675,1.675,0,1,1,2.056,2.636Z" transform="translate(-773.981 -345.77)" fill="#4f44ff"/>
          <path id="Path_352" data-name="Path 352" d="M761.02,429.9c-.915.122-3.79-1.179-3.79-1.179s2.432-2.012,3.35-2.135a1.675,1.675,0,1,1,.444,3.314Z" transform="translate(-749.172 -413.616)" fill="#4f44ff"/>
          <path id="Path_353" data-name="Path 353" d="M724.886,485.332c-.882.275-3.936-.523-3.936-.523s2.056-2.394,2.938-2.67a1.675,1.675,0,0,1,1,3.191Z" transform="translate(-716.69 -463.336)" fill="#4f44ff"/>
          <path id="Path_354" data-name="Path 354" d="M751.562,359.28c.419.825,3.112,2.466,3.112,2.466s.29-3.141-.125-3.968a1.675,1.675,0,0,0-2.987,1.5Z" transform="translate(-743.977 -351.296)" fill="#4f44ff"/>
          <path id="Path_355" data-name="Path 355" d="M709.276,419.9c.643.663,3.706,1.422,3.706,1.422s-.663-3.085-1.306-3.748a1.675,1.675,0,0,0-2.4,2.327Z" transform="translate(-705.879 -405.182)" fill="#4f44ff"/>
          <path id="Path_356" data-name="Path 356" d="M680.49,489.811c.523.762,3.413,2.028,3.413,2.028s-.132-3.154-.653-3.916a1.675,1.675,0,0,0-2.759,1.885Z" transform="translate(-680.265 -467.993)" fill="#4f44ff"/>
        </g>
        <path id="Path_357" data-name="Path 357" d="M351.19,785.542c4.117,1.384,9.139.542,13.81.64a4.755,4.755,0,0,1,1.829.292,4.174,4.174,0,0,1,1.117.958c1.309,1.234,3.99,1.631,6.334,1.422a46.123,46.123,0,0,0,6.7-1.43c3.824-.913,8.195-1.328,11.966-.333a3.121,3.121,0,0,0,1.082.16c.827-.082,1.073-.743,1.651-1.121,1.047-.683,3.312-.5,3.769-1.4.269-.523-.35-1.068-1.023-1.428-2.578-1.378-6.265-1.6-9.639-1.392s-6.69.8-10.081.8c-4.225,0-8.307-.9-12.491-1.268a25.655,25.655,0,0,0-8.778.523C354.5,782.787,353.851,784.613,351.19,785.542Z" transform="translate(-319.807 -704.319)" fill="#4f44ff" opacity="0.1"/>
        <rect id="Rectangle_86" data-name="Rectangle 86" width="5.444" height="0.733" rx="0.366" transform="translate(52.613 10.776)" fill="#eaeaf3"/>
        <circle id="Ellipse_102" data-name="Ellipse 102" cx="0.523" cy="0.523" r="0.523" transform="translate(59.418 10.671)" fill="#eaeaf3"/>
      </g>
    </g>
    <g id="Group_38" data-name="Group 38" transform="translate(74.015 83.798)">
      <g id="Group_42" data-name="Group 42" transform="translate(26.274 5.623)">
        <g id="Group_29" data-name="Group 29" opacity="0.5">
          <path id="Path_375" data-name="Path 375" d="M454.785,128.49l-42.5.1a1.746,1.746,0,0,0-1.742,1.751l.193,79.495a1.746,1.746,0,0,0,1.751,1.742l42.5-.1a1.746,1.746,0,0,0,1.742-1.753l-.193-79.495a1.746,1.746,0,0,0-1.751-1.741Z" transform="translate(-410.54 -128.49)" fill="url(#linear-gradient)"/>
        </g>
        <rect id="Rectangle_101" data-name="Rectangle 101" width="44.754" height="80.781" rx="13.64" transform="translate(0.619 1.191) rotate(-0.14)" fill="#fff"/>
        <path id="_Path_" data-name="&lt;Path&gt;" d="M456.759,152.869a3.628,3.628,0,0,1-3.568,3.095L437.733,156a3.628,3.628,0,0,1-3.579-3.077l-8.187.02a1.7,1.7,0,0,0-1.7,1.7l.178,73.331a1.7,1.7,0,0,0,1.705,1.7l39.115-.095a1.7,1.7,0,0,0,1.7-1.7l-.178-73.331a1.7,1.7,0,0,0-1.7-1.7Z" transform="translate(-422.515 -149.736)" fill="#119a4c" opacity="0.4"/>
      </g>
      <rect id="Rectangle_102" data-name="Rectangle 102" width="9.973" height="0.624" rx="0.312" transform="matrix(1, -0.015, 0.015, 1, 43.882, 9.831)" fill="#dbdbdb"/>
      <ellipse id="Ellipse_109" data-name="Ellipse 109" cx="0.375" cy="0.375" rx="0.375" ry="0.375" transform="matrix(1, -0.015, 0.015, 1, 55.596, 9.529)" fill="#dbdbdb"/>
      <ellipse id="Ellipse_119" data-name="Ellipse 119" cx="0.505" cy="0.947" rx="0.505" ry="0.947" transform="translate(61.782 26.743)" fill="#be7c5e"/>
      <g id="Group_32" data-name="Group 32" transform="translate(8.881 25.628)" opacity="0.5">
        <path id="Path_400" data-name="Path 400" d="M210,242.61v18.244h49.926V242.61Z" transform="translate(-210 -242.61)" fill="url(#linear-gradient-2)"/>
      </g>
      <path id="Path_401" data-name="Path 401" d="M219,247.5v17.257h34.032a31.485,31.485,0,0,0,4.084,0h9.529V247.5Z" transform="translate(-209.157 -222.872)" fill="#818181"/>
      <rect id="Rectangle_103" data-name="Rectangle 103" width="23.009" height="2.301" transform="translate(23.659 28.079)" fill="#f5f5f5"/>
      <rect id="Rectangle_104" data-name="Rectangle 104" width="31.062" height="2.301" transform="translate(23.659 31.531)" fill="#fff"/>
      <rect id="Rectangle_105" data-name="Rectangle 105" width="27.611" height="2.301" transform="translate(23.659 34.982)" fill="#fff"/>
      <g id="Group_34" data-name="Group 34" transform="translate(9.843 91.269)" opacity="0.5">
        <rect id="Rectangle_109" data-name="Rectangle 109" width="0.383" height="2.173" transform="translate(0.895)" fill="#47e6b1"/>
        <rect id="Rectangle_110" data-name="Rectangle 110" width="0.383" height="2.173" transform="translate(2.173 0.895) rotate(90)" fill="#47e6b1"/>
      </g>
      <g id="Group_35" data-name="Group 35" transform="translate(80.02 24.543)" opacity="0.5">
        <rect id="Rectangle_111" data-name="Rectangle 111" width="0.383" height="2.173" transform="translate(0.895)" fill="#47e6b1"/>
        <rect id="Rectangle_112" data-name="Rectangle 112" width="0.383" height="2.173" transform="translate(2.173 0.895) rotate(90)" fill="#47e6b1"/>
      </g>
      <g id="Group_36" data-name="Group 36" transform="translate(88.201 78.231)" opacity="0.5">
        <rect id="Rectangle_113" data-name="Rectangle 113" width="0.383" height="2.173" transform="translate(0.895)" fill="#47e6b1"/>
        <rect id="Rectangle_114" data-name="Rectangle 114" width="0.383" height="2.173" transform="translate(2.173 0.895) rotate(90)" fill="#47e6b1"/>
      </g>
      <g id="Group_37" data-name="Group 37" transform="translate(64.042)" opacity="0.5">
        <rect id="Rectangle_115" data-name="Rectangle 115" width="0.383" height="2.173" transform="translate(0.895)" fill="#47e6b1"/>
        <rect id="Rectangle_116" data-name="Rectangle 116" width="0.383" height="2.173" transform="translate(2.173 0.895) rotate(90)" fill="#47e6b1"/>
      </g>
      <path id="Path_404" data-name="Path 404" d="M453.026,790.872a.469.469,0,0,1-.256-.568.227.227,0,0,0,.01-.052h0a.235.235,0,0,0-.423-.156h0a.231.231,0,0,0-.026.046.469.469,0,0,1-.568.256.225.225,0,0,0-.052-.01h0a.235.235,0,0,0-.156.423h0a.228.228,0,0,0,.046.026.469.469,0,0,1,.256.568.226.226,0,0,0-.01.052h0a.235.235,0,0,0,.423.156h0a.226.226,0,0,0,.026-.046.469.469,0,0,1,.568-.256.226.226,0,0,0,.052.01h0a.235.235,0,0,0,.156-.423h0A.222.222,0,0,0,453.026,790.872Z" transform="translate(-419.957 -699.819)" fill="#4d8af0" opacity="0.5"/>
      <path id="Path_405" data-name="Path 405" d="M252.226,473.522a.469.469,0,0,1-.256-.568.226.226,0,0,0,.01-.052h0a.235.235,0,0,0-.423-.156h0a.227.227,0,0,0-.026.046.469.469,0,0,1-.568.256.224.224,0,0,0-.052-.01h0a.235.235,0,0,0-.156.423h0a.227.227,0,0,0,.046.026.469.469,0,0,1,.256.568.226.226,0,0,0-.01.052h0a.235.235,0,0,0,.424.162h0a.225.225,0,0,0,.026-.046.469.469,0,0,1,.568-.256.224.224,0,0,0,.052.01h0a.235.235,0,0,0,.156-.423h0a.227.227,0,0,0-.047-.032Z" transform="translate(-244.825 -423.035)" fill="#4d8af0" opacity="0.5"/>
      <path id="Path_406" data-name="Path 406" d="M361.226,560.522a.469.469,0,0,1-.256-.568.228.228,0,0,0,.01-.052h0a.235.235,0,0,0-.423-.156h0a.224.224,0,0,0-.026.046.469.469,0,0,1-.568.256.228.228,0,0,0-.052-.01h0a.235.235,0,0,0-.156.423h0a.229.229,0,0,0,.046.026.469.469,0,0,1,.256.568.227.227,0,0,0-.01.052h0a.235.235,0,0,0,.424.162h0a.227.227,0,0,0,.026-.046.469.469,0,0,1,.568-.256.225.225,0,0,0,.052.01h0a.235.235,0,0,0,.156-.423h0A.226.226,0,0,0,361.226,560.522Z" transform="translate(-339.891 -498.914)" fill="#4d8af0" opacity="0.5"/>
      <path id="Path_407" data-name="Path 407" d="M983.226,796.522a.469.469,0,0,1-.256-.568.229.229,0,0,0,.01-.052h0a.235.235,0,0,0-.423-.156h0a.226.226,0,0,0-.026.046.469.469,0,0,1-.568.256.228.228,0,0,0-.052-.01h0a.235.235,0,0,0-.156.423h0a.231.231,0,0,0,.046.026.469.469,0,0,1,.256.568.226.226,0,0,0-.01.052h0a.235.235,0,0,0,.424.162h0a.229.229,0,0,0,.026-.046.469.469,0,0,1,.568-.256.22.22,0,0,0,.052.01h0a.235.235,0,0,0,.156-.423h0A.226.226,0,0,0,983.226,796.522Z" transform="translate(-882.383 -704.747)" fill="#4d8af0" opacity="0.5"/>
      <ellipse id="Ellipse_120" data-name="Ellipse 120" cx="0.767" cy="0.767" rx="0.767" ry="0.767" transform="translate(0 83.472)" fill="#f55f44" opacity="0.5"/>
      <ellipse id="Ellipse_121" data-name="Ellipse 121" cx="0.767" cy="0.767" rx="0.767" ry="0.767" transform="translate(86.539 7.414)" fill="#4d8af0" opacity="0.5"/>
      <ellipse id="Ellipse_122" data-name="Ellipse 122" cx="0.767" cy="0.767" rx="0.767" ry="0.767" transform="translate(12.527 8.948)" fill="#47e6b1" opacity="0.5"/>
      <ellipse id="Ellipse_123" data-name="Ellipse 123" cx="0.767" cy="0.767" rx="0.767" ry="0.767" transform="translate(87.306 43.461)" fill="#f55f44" opacity="0.5"/>
    </g>
    <ellipse id="Ellipse_133" data-name="Ellipse 133" cx="4.716" cy="4.716" rx="4.716" ry="4.716" transform="translate(86.748 112.12)" fill="#ffb300"/>
  </g>
</svg>
