<svg xmlns="http://www.w3.org/2000/svg" width="50" height="50" viewBox="0 0 50 50">
  <g id="Group_995" data-name="Group 995" transform="translate(-74 -340)">
    <circle id="Ellipse_273" data-name="Ellipse 273" cx="21" cy="21" r="21" transform="translate(78 344)" fill="#17c261"/>
    <g id="Ellipse_274" data-name="Ellipse 274" transform="translate(74 340)" fill="none" stroke="#119a4c" stroke-width="1" stroke-dasharray="9">
      <circle cx="25" cy="25" r="25" stroke="none"/>
      <circle cx="25" cy="25" r="24.5" fill="none"/>
    </g>
    <g id="naira" transform="translate(88.537 356.265)">
      <path id="Path_441" data-name="Path 441" d="M20.2,54.693H17.335V51.941H20.2a.779.779,0,1,0,0-1.558H17.335V46.564a1.843,1.843,0,0,0-.327-1.216A1.049,1.049,0,0,0,16.155,45a1,1,0,0,0-.822.345,1.864,1.864,0,0,0-.324,1.218v3.819H9.622l-2.29-3.466c-.2-.309-.38-.6-.559-.877a3.9,3.9,0,0,0-.467-.607,1.494,1.494,0,0,0-.456-.319A1.512,1.512,0,0,0,5.225,45a1.576,1.576,0,0,0-.881.265,1.457,1.457,0,0,0-.576.667A3.415,3.415,0,0,0,3.614,47.1v3.281H.779a.779.779,0,0,0,0,1.558H3.614v2.752H.779a.779.779,0,1,0,0,1.558H3.614v4.36a1.8,1.8,0,0,0,.339,1.2,1.053,1.053,0,0,0,.854.359,1.07,1.07,0,0,0,.848-.36A1.761,1.761,0,0,0,6,60.611v-4.36h4.874L13.512,60.3c.183.267.373.537.562.8a3.8,3.8,0,0,0,.552.622,1.72,1.72,0,0,0,.563.345,2.079,2.079,0,0,0,.7.11c.713,0,1.444-.218,1.444-1.838V56.251H20.2a.779.779,0,0,0,0-1.558Zm-5.19-2.752v2.752H12.471l-1.819-2.752ZM6,48.779l1.047,1.6H6Zm0,5.915V51.941H8.063l1.8,2.752Zm9.009,3.841L13.5,56.251h1.508Z" transform="translate(0 -45.001)" fill="#fff"/>
    </g>
  </g>
</svg>
